<svg inkscape:version="1.3.2 (091e20e, 2023-11-25, custom)" sodipodi:docname="icon.svg" version="1.1" viewBox="0 0 48 48" xmlns="http://www.w3.org/2000/svg" xmlns:cc="http://creativecommons.org/ns#" xmlns:dc="http://purl.org/dc/elements/1.1/" xmlns:inkscape="http://www.inkscape.org/namespaces/inkscape" xmlns:rdf="http://www.w3.org/1999/02/22-rdf-syntax-ns#" xmlns:sodipodi="http://sodipodi.sourceforge.net/DTD/sodipodi-0.dtd">
    <style>@media(prefers-color-scheme:dark){path{filter:invert(100%)};</style>
    <title>DevsForge organization icon</title>
    <sodipodi:namedview bordercolor="#eeeeee" borderopacity="1" inkscape:current-layer="svg1" inkscape:cx="11.6875" inkscape:cy="10.6875" inkscape:deskcolor="#505050" inkscape:document-units="px" inkscape:pagecheckerboard="0" inkscape:pageopacity="0" inkscape:showpageshadow="0" inkscape:window-height="1369" inkscape:window-maximized="1" inkscape:window-width="2560" inkscape:window-x="1912" inkscape:window-y="-8" inkscape:zoom="8" pagecolor="#505050"/>
    <metadata>
        <rdf:RDF>
            <cc:Work rdf:about="">
                <cc:license rdf:resource="https://creativecommons.org/licenses/by-sa/4.0/"/>
                <dc:title>DevsForge organization icon</dc:title>
                <dc:date>2024/09/14</dc:date>
                <dc:creator>
                    <cc:Agent>
                        <dc:title>DevsForge</dc:title>
                    </cc:Agent>
                </dc:creator>
                <dc:rights>
                    <cc:Agent>
                        <dc:title>DevsForge</dc:title>
                    </cc:Agent>
                </dc:rights>
                <dc:publisher>
                    <cc:Agent>
                        <dc:title>DevsForge</dc:title>
                    </cc:Agent>
                </dc:publisher>
                <dc:identifier>devsforge-icon</dc:identifier>
                <dc:language>en</dc:language>
                <dc:subject>
                    <rdf:Bag>
                        <rdf:li>devsforge</rdf:li>
                        <rdf:li>logo</rdf:li>
                        <rdf:li>icon</rdf:li>
                    </rdf:Bag>
                </dc:subject>
                <dc:contributor>
                    <cc:Agent>
                        <dc:title>Serhii Horodilov</dc:title>
                    </cc:Agent>
                </dc:contributor>
            </cc:Work>
            <cc:License rdf:about="https://creativecommons.org/licenses/by-sa/4.0/">
                <cc:permits rdf:resource="https://creativecommons.org/ns#Reproduction"/>
                <cc:permits rdf:resource="https://creativecommons.org/ns#Distribution"/>
                <cc:requires rdf:resource="https://creativecommons.org/ns#Notice"/>
                <cc:requires rdf:resource="https://creativecommons.org/ns#Attribution"/>
                <cc:permits rdf:resource="https://creativecommons.org/ns#DerivativeWorks"/>
                <cc:requires rdf:resource="https://creativecommons.org/ns#ShareAlike"/>
            </cc:License>
        </rdf:RDF>
    </metadata>
    <path d="m10.241 0-6.1875 38.934h12.641c2.7022 0 5.1378-0.51576 7.3066-1.5469 2.1689-1.0667 3.9645-2.5413 5.3867-4.4258 1.4222-1.8844 2.3276-4.0717 2.7188-6.5605l2.2402-13.92c0.39111-2.5244 0.17715-4.7117-0.64062-6.5605-0.81778-1.8844-2.1511-3.3419-4-4.373-1.8489-1.0311-4.124-1.5469-6.8262-1.5469zm21.908 0c1.7876 1.2395 3.1926 2.9194 4.0605 4.9141 0.35886 0.81253 0.61206 1.667 0.7832 2.5527h5.7266l1.2266-7.4668zm-15.135 7.4668h4.6387c1.6356 0 2.881 0.46228 3.7344 1.3867 0.85333 0.92444 1.1723 2.1336 0.95898 3.627l-2.2402 13.92c-0.24889 1.5289-0.9423 2.7552-2.0801 3.6797-1.1378 0.92445-2.5246 1.3867-4.1602 1.3867h-4.6387zm19.496 8.6406-1.2012 7.4668h3.5176l1.1719-7.4668zm-7.7363 21.303c-1.0504 0.86356-2.2061 1.6065-3.4551 2.2207l-0.01563 0.0059-0.01563 0.0078c-2.4378 1.159-5.1498 1.7391-8.043 1.7812-0.4993 0.11548-1.0416 0.17383-1.6289 0.17383h-8.2676l-1.0117 6.4004h8.5332c3.7689 0 6.8978-0.92455 9.3867-2.7734 2.4889-1.8489 3.9807-4.3723 4.4785-7.5723z" fill="#000"/>
</svg>
