<svg inkscape:version="1.3.2 (091e20e, 2023-11-25, custom)" sodipodi:docname="logo.svg" version="1.1" viewBox="0 0 360 180" xmlns="http://www.w3.org/2000/svg" xmlns:cc="http://creativecommons.org/ns#" xmlns:dc="http://purl.org/dc/elements/1.1/" xmlns:inkscape="http://www.inkscape.org/namespaces/inkscape" xmlns:rdf="http://www.w3.org/1999/02/22-rdf-syntax-ns#" xmlns:sodipodi="http://sodipodi.sourceforge.net/DTD/sodipodi-0.dtd" xmlns:xlink="http://www.w3.org/1999/xlink">
    <style>@media(prefers-color-scheme:dark){#f{filter:invert(100%)};</style>
    <title>DevsForge organization logo</title>
    <sodipodi:namedview bordercolor="#eeeeee" borderopacity="1" inkscape:current-layer="f" inkscape:cx="179.99915" inkscape:cy="85.798413" inkscape:deskcolor="#505050" inkscape:document-units="px" inkscape:pagecheckerboard="0" inkscape:pageopacity="0" inkscape:showpageshadow="0" inkscape:window-height="1369" inkscape:window-maximized="1" inkscape:window-width="2560" inkscape:window-x="1912" inkscape:window-y="-8" inkscape:zoom="4.2250199" pagecolor="#505050" showguides="true"/>
    <defs>
        <linearGradient id="a" inkscape:collect="always">
            <stop stop-color="#fff70f" offset="0"/>
            <stop stop-color="#e6a500" offset=".76364"/>
            <stop stop-color="#ff8b00" offset=".96364"/>
            <stop stop-color="#2e2e2e" offset="1"/>
        </linearGradient>
        <radialGradient id="b" cx="4046" cy="1829.1" r="27.5" gradientTransform="translate(-2413 -1102.9)" gradientUnits="userSpaceOnUse" inkscape:collect="always" xlink:href="#a"/>
        <radialGradient id="c" cx="4046" cy="1829.1" r="27.5" gradientTransform="translate(-2491 -1102.9)" gradientUnits="userSpaceOnUse" inkscape:collect="always" xlink:href="#a"/>
        <filter id="d" x="-.011116" y="-.013037" width="1.0222" height="1.0261" color-interpolation-filters="sRGB" inkscape:collect="always">
            <feGaussianBlur inkscape:collect="always" stdDeviation="0.2547315"/>
        </filter>
        <filter id="e" x="-.011116" y="-.013037" width="1.0222" height="1.0261" color-interpolation-filters="sRGB" inkscape:collect="always">
            <feGaussianBlur inkscape:collect="always" stdDeviation="0.2547315"/>
        </filter>
    </defs>
    <metadata>
        <rdf:RDF>
            <cc:Work rdf:about="">
                <cc:license rdf:resource="https://creativecommons.org/licenses/by-sa/4.0/"/>
                <dc:title>DevsForge organization logo</dc:title>
                <dc:date>2024/07/03</dc:date>
                <dc:creator>
                    <cc:Agent>
                        <dc:title>DevsForge</dc:title>
                    </cc:Agent>
                </dc:creator>
                <dc:rights>
                    <cc:Agent>
                        <dc:title>DevsForge</dc:title>
                    </cc:Agent>
                </dc:rights>
                <dc:publisher>
                    <cc:Agent>
                        <dc:title>DevsForge</dc:title>
                    </cc:Agent>
                </dc:publisher>
                <dc:identifier>devsforge-logo</dc:identifier>
                <dc:language>en</dc:language>
                <dc:subject>
                    <rdf:Bag>
                        <rdf:li>devsforge</rdf:li>
                        <rdf:li>logo</rdf:li>
                    </rdf:Bag>
                </dc:subject>
                <dc:contributor>
                    <cc:Agent>
                        <dc:title>Serhii Horodilov</dc:title>
                    </cc:Agent>
                </dc:contributor>
            </cc:Work>
            <cc:License rdf:about="https://creativecommons.org/licenses/by-sa/4.0/">
                <cc:permits rdf:resource="https://creativecommons.org/ns#Reproduction"/>
                <cc:permits rdf:resource="https://creativecommons.org/ns#Distribution"/>
                <cc:requires rdf:resource="https://creativecommons.org/ns#Notice"/>
                <cc:requires rdf:resource="https://creativecommons.org/ns#Attribution"/>
                <cc:permits rdf:resource="https://creativecommons.org/ns#DerivativeWorks"/>
                <cc:requires rdf:resource="https://creativecommons.org/ns#ShareAlike"/>
            </cc:License>
        </rdf:RDF>
    </metadata>
    <g id="f" transform="translate(4.2207 89.515)">
        <path d="m0 48.911v-48.911h15.879q5.0921 0 8.8442 1.943 3.8191 1.943 5.8961 5.4941 2.1441 3.4841 2.1441 8.2412v17.487q0 4.6901-2.1441 8.2412-2.077 3.5511-5.8961 5.5611-3.7521 1.943-8.8442 1.943zm10.05-9.0452h5.8291q3.0151 0 4.8911-1.876 1.943-1.876 1.943-4.8241v-17.487q0-2.9481-1.943-4.7571-1.876-1.876-4.8911-1.876h-5.8291zm46.097 9.7152q-4.8911 0-8.5762-1.809-3.6181-1.876-5.6281-5.1591-1.943-3.3501-1.943-7.7722v-8.7102q0-4.4221 1.943-7.7052 2.01-3.3501 5.6281-5.1591 3.6851-1.876 8.5762-1.876t8.4422 1.876q3.6181 1.809 5.5611 5.1591 2.01 3.2831 2.01 7.7052v6.8342h-22.58v1.876q0 3.4841 1.608 5.0921 1.675 1.608 4.9581 1.608 2.1441 0 3.7521-0.67002t1.876-2.01h9.8492q-1.072 4.8241-5.2931 7.7722t-10.184 2.9481zm-6.5662-23.451v0.87102l12.998-0.134v-0.87102q0-3.4171-1.608-5.2931-1.541-1.876-4.8241-1.876t-4.9581 1.943q-1.608 1.943-1.608 5.3601zm40.469 22.781-12.261-36.851h10.385l6.4322 20.703q0.60302 1.876 1.072 3.8861 0.53602 2.01 0.67002 3.7521 0.134-1.742 0.60301-3.7521 0.46902-2.01 1.005-3.8191l6.2982-20.77h10.519l-12.127 36.851zm44.891 0.67002q-4.5561 0-7.9732-1.407-3.4171-1.474-5.3601-4.0201-1.876-2.5461-1.876-5.9631h9.8492q0 1.876 1.407 2.8141 1.407 0.93803 3.9531 0.93803h2.9481q2.7471 0 4.2211-0.93803 1.541-0.93802 1.541-2.6801 0-1.675-1.206-2.4121-1.206-0.80402-3.6851-1.072l-8.4422-1.005q-4.8911-0.60302-7.5042-3.6181-2.6131-3.0821-2.6131-7.6382 0-11.189 14.338-11.189h3.1491q6.7672 0 10.787 2.9481 4.0201 2.9481 4.0201 7.9062h-9.8492q0-1.608-1.34-2.4791-1.273-0.87102-3.6181-0.87102h-3.1491q-2.3451 0-3.5511 0.87102t-1.206 2.4121 1.139 2.077q1.206 0.53601 3.3501 0.80402l8.0402 1.005q5.4271 0.67002 8.1742 3.8191 2.7471 3.1491 2.7471 8.3082 0 5.4271-3.8861 8.4422-3.8861 2.9481-11.457 2.9481z"/>
        <path d="m181.24 0c-3.0821 0-5.518 0.82581-7.3047 2.4785-1.742 1.608-2.6133 3.8187-2.6133 6.6328v7.9746h-10.854v4.8242h10.854v27.002h5.3613v-27.002h15.209v-4.8242h-15.209v-7.9746c0-2.8587 1.5192-4.2871 4.5566-4.2871h126.4v-4.8242zm78.859 11.391c-2.7694 0-5.0236 0.66974-6.7656 2.0098-1.6974 1.34-2.7484 3.1714-3.1504 5.4941v-6.834h-5.3594v36.852h5.3594v-23.652c0-2.9481 0.71517-5.2259 2.1445-6.834 1.4294-1.608 3.5057-2.4121 6.2305-2.4121 5.4941 0 8.2422 2.8587 8.2422 8.5762v3.2168h5.293v-3.2168c0-4.1988-1.0273-7.4368-3.082-9.7148-2.0547-2.3227-5.026-3.4844-8.9121-3.4844zm35.512 0c-3.7521 0-6.7234 1.2288-8.9121 3.6855s-3.2832 5.7619-3.2832 9.916v7.8379c0 4.1988 1.0945 7.504 3.2832 9.916 2.1887 2.3674 5.16 3.5527 8.9121 3.5527 2.6801 0 4.8908-0.60452 6.6328-1.8105s2.8365-2.8794 3.2832-5.0234h0.13477l-0.13477 6.4316v3.2832c0 2.1887-0.6243 3.8858-1.875 5.0918-1.2507 1.2507-2.9932 1.875-5.2266 1.875h-134.78v4.8242h134.71c3.8861 0 6.9246-1.0491 9.1133-3.1484 2.2334-2.0547 3.3496-4.9352 3.3496-8.6426v-37.119h-5.2266v6.3652h-0.0664c-0.44668-2.1887-1.5412-3.9095-3.2832-5.1602s-3.9527-1.875-6.6328-1.875zm41.875 0c-4.2881 0-7.7039 1.294-10.25 3.8848-2.5461 2.5461-3.8203 6.0528-3.8203 10.52v9.3809c0 4.4668 1.2742 7.9952 3.8203 10.586 2.5461 2.5461 5.9619 3.8203 10.25 3.8203 3.7968 0 6.9459-0.89494 9.4473-2.6816 2.5014-1.7867 3.9535-4.2207 4.3555-7.3027h-5.293c-0.31267 1.6527-1.2274 2.9704-2.7461 3.9531-1.5187 0.93802-3.441 1.4082-5.7637 1.4082-2.7247 0-4.89-0.82776-6.498-2.4805-1.608-1.6974-2.4121-3.9535-2.4121-6.7676v-3.8848h22.982v-6.5664c0-4.1988-1.2742-7.5494-3.8203-10.051-2.5461-2.5461-5.9639-3.8184-10.252-3.8184zm-120.6 0.06641c-4.3328 0-7.7723 1.2723-10.318 3.8184-2.5014 2.5461-3.752 6.0765-3.752 10.588v9.2461c0 4.5114 1.2723 8.0399 3.8184 10.586s5.9639 3.8184 10.252 3.8184 7.7039-1.2723 10.25-3.8184c2.546-2.5461 3.8203-6.0745 3.8203-10.586v-9.2461c0-4.5114-1.2743-8.0418-3.8203-10.588-2.5014-2.5461-5.9172-3.8184-10.25-3.8184zm120.6 4.3555c2.8141 0 5.003 0.82581 6.5664 2.4785 1.5634 1.6527 2.3457 3.976 2.3457 6.9688v2.3457h-17.822v-2.3457c0-2.9927 0.78234-5.316 2.3457-6.9688 1.5634-1.6527 3.7504-2.4785 6.5644-2.4785zm-40.334 0.20117c2.6354 0 4.69 0.82581 6.1641 2.4785 1.5187 1.608 2.2773 3.8642 2.2773 6.7676v7.3691c0 2.9034-0.75865 5.1832-2.2773 6.8359-1.5187 1.608-3.5733 2.4121-6.1641 2.4121-2.6801 0-4.7564-0.78233-6.2305-2.3457-1.474-1.5634-2.2109-3.7069-2.2109-6.4316v-8.3086c0-2.7247 0.73691-4.8683 2.2109-6.4316 1.474-1.5634 3.5504-2.3457 6.2305-2.3457zm-80.268 0.20117c2.7247 0 4.8683 0.78038 6.4316 2.3438 1.5634 1.5634 2.3457 3.8432 2.3457 6.8359v10.184c0 2.9927-0.78234 5.2706-2.3457 6.834-1.5634 1.5634-3.7069 2.3457-6.4316 2.3457-2.7247 1e-6 -4.8683-0.78234-6.4316-2.3457-1.5634-1.5634-2.3457-3.8412-2.3457-6.834v-10.184c0-2.9927 0.78233-5.2726 2.3457-6.8359 1.5634-1.5634 3.7069-2.3438 6.4316-2.3438z"/>
    </g>
    <g transform="matrix(.21769 0 0 .21769 -166.66 -121.17)">
        <path d="m1168.7 725.77c-131.43 34.409-267.47 47.848-403.09 39.871 50.124 23.583 102.57 41.886 156.48 54.613 80.163-40.468 160.42-71.566 246.61-94.484zm847.54 0c86.191 22.918 166.45 54.016 246.61 94.484 53.912-12.727 106.35-31.03 156.48-54.613-135.62 7.9766-271.66-5.4623-403.09-39.871z" fill="#6b3c1d"/>
        <path d="m1169.1 725.67c-86.337 22.928-166.71 54.063-247 94.592 60.276 14.577 122.05 22.083 184.06 22.365 9.0342-0.041 18.046-0.3124 27.051-0.6582a72 72 0 0 1-7.8379-10.771 72 72 0 0 1 26.356-98.354 72 72 0 0 1 17.369-7.1738zm846.78 0a72 72 0 0 1 17.369 7.1738 72 72 0 0 1 26.356 98.354 72 72 0 0 1-7.8379 10.771c9.0043 0.3458 18.017 0.6176 27.051 0.6582 62.013-0.2825 123.78-7.7882 184.06-22.365-80.283-40.529-160.66-71.664-247-94.592z" fill="#e7c2a9"/>
        <path d="m1169.1 725.78a493.5 493.5 0 0 0-119.06 49.172 493.5 493.5 0 0 0-77.734 55.707c44.167 7.719 88.928 11.764 133.82 11.969 31.11-0.14 62.057-2.1317 92.707-5.8554zm846.72 0-29.74 110.99c30.65 3.7237 61.597 5.7154 92.707 5.8554 44.896-0.2045 89.657-4.2497 133.82-11.969a493.5 493.5 0 0 0-77.734-55.707 493.5 493.5 0 0 0-119.06-49.172z" fill="#e4ba9f"/>
        <path d="m1169.1 725.73a305 305 0 0 0-73.58 30.389 305 305 0 0 0-90.264 79.566c33.426 4.4141 67.118 6.7876 100.89 6.9414 31.11-0.14 62.057-2.1317 92.707-5.8554zm846.75 0-29.754 111.04c30.65 3.7237 61.597 5.7154 92.707 5.8554 33.773-0.1538 67.464-2.5273 100.89-6.9414a305 305 0 0 0-90.264-79.566 305 305 0 0 0-73.58-30.389z" fill="#e0af8e"/>
        <path d="m1169.1 725.7a188.5 188.5 0 0 0-45.475 18.783 188.5 188.5 0 0 0-81.525 95.217c21.29 1.8115 42.655 2.8307 64.055 2.9277 31.11-0.14 62.057-2.1317 92.707-5.8554zm846.76 0-29.762 111.07c30.65 3.7237 61.597 5.7154 92.707 5.8554 21.4-0.097 42.765-1.1162 64.055-2.9277a188.5 188.5 0 0 0-81.525-95.217 188.5 188.5 0 0 0-45.475-18.783z" fill="#dba17c"/>
        <path d="m1169.1 725.68a116.5 116.5 0 0 0-28.104 11.609 116.5 116.5 0 0 0-58.172 104.89c7.7728 0.2628 15.551 0.4122 23.334 0.4472 31.11-0.14 62.058-2.1315 92.709-5.8554zm846.77 0-29.768 111.09c30.65 3.7239 61.599 5.7154 92.709 5.8554 7.783-0.035 15.561-0.1844 23.334-0.4472a116.5 116.5 0 0 0-58.172-104.89 116.5 116.5 0 0 0-28.104-11.609z" fill="#d7986e"/>
        <path d="m1503.4 681.62c-112.03 0.0749-226.83 15.48-334.39 44.043a72 72 0 0 0-17.369 7.1738 72 72 0 0 0-26.356 98.354 72 72 0 0 0 7.8379 10.772c0.01 0 0.015 3e-4 0.025 0 3.1416-0.1208 6.2805-0.2637 9.4179-0.4199 7.8549-0.3948 15.699-0.8806 23.524-1.5059 2.1751-0.1717 4.3469-0.3592 6.5195-0.5488 8.7444-0.7709 17.471-1.6638 26.17-2.7207 136.15-16.541 266.32-67.923 377.55-149.93-24.255-2.4259-48.574-4.1648-72.928-5.2148zm178 0v2e-3c-24.353 1.05-48.673 2.7889-72.928 5.2148 111.23 82.007 241.4 133.39 377.55 149.93 8.6988 1.0569 17.426 1.9498 26.17 2.7207 2.1726 0.1896 4.3444 0.3771 6.5195 0.5488 7.8249 0.6253 15.668 1.1111 23.523 1.5059 3.1374 0.1562 6.2764 0.2991 9.418 0.4199 0.01 3e-4 0.017 0 0.025 0a72 72 0 0 0 7.8379-10.772 72 72 0 0 0-26.356-98.354 72 72 0 0 0-17.369-7.1738c-107.56-28.563-222.35-43.968-334.39-44.043z" fill="#d38d5f"/>
        <path d="m1582.3 737.09a188.5 188.5 0 0 0-127.68 59.467 305 305 0 0 0 25.654 25.082 116.5 116.5 0 0 1 102.02-84.549zm20.215 0a116.5 116.5 0 0 1 102.02 84.549 305 305 0 0 0 25.654-25.082 188.5 188.5 0 0 0-127.68-59.467z" fill="#6b3c1d"/>
        <path d="m1592.4 736.62a116.5 116.5 0 0 1 86.092 105.35 305 305 0 0 0 26.037-20.334 116.5 116.5 0 0 0-102.02-84.549 188.5 188.5 0 0 0-10.107-0.46484zm0 0a188.5 188.5 0 0 0-10.108 0.46484 116.5 116.5 0 0 0-102.02 84.549 305 305 0 0 0 26.037 20.334 116.5 116.5 0 0 1 86.092-105.35z" fill="#e4ba9f"/>
        <path d="m1592.4 736.62a116.5 116.5 0 0 1 55.914 123.94 305 305 0 0 0 30.178-18.59 116.5 116.5 0 0 0-86.092-105.35zm0 0a116.5 116.5 0 0 0-86.092 105.35 305 305 0 0 0 30.178 18.59 116.5 116.5 0 0 1 55.914-123.94z" fill="#e0af8e"/>
        <path d="m1592.4 736.62a116.5 116.5 0 0 1 18.193 141.13 305 305 0 0 0 37.721-17.197 116.5 116.5 0 0 0-55.914-123.94zm0 0a116.5 116.5 0 0 0-55.914 123.94 305 305 0 0 0 37.721 17.197 116.5 116.5 0 0 1 18.193-141.13z" fill="#d7986e"/>
        <path d="m1592.4 736.62a116.5 116.5 0 0 0-18.193 141.13 305 305 0 0 0 18.193 6.3086 305 305 0 0 0 18.193-6.3086 116.5 116.5 0 0 0-18.193-141.13z" fill="#d38d5f"/>
        <path d="m1564.6 825.62c-10.29 0.074-16.99 8.5876-17 17 0 5.6239 2.9633 11.866 9.1621 15.082-1.1082-3.8145-2.7222-7.4635-4.7989-10.85 3.0038 4.7237 7.3777 8.4181 12.537 10.59l0.1035-0.0352 0.1035 0.0352c5.1595-2.1717 9.5333-5.8662 12.537-10.59-2.0767 3.3861-3.6906 7.0351-4.7988 10.85 6.1988-3.2162 9.1621-9.4581 9.1621-15.082-0.01-8.4124-6.7095-16.926-17-17zm55.59 0c-10.29 0.074-16.994 8.5876-17 17 0 5.6239 2.9633 11.866 9.1621 15.082-1.1082-3.8145-2.7221-7.4635-4.7988-10.85 3.0038 4.7237 7.3776 8.4181 12.537 10.59l0.1035-0.0352 0.1035 0.0352c5.1595-2.1717 9.5333-5.8662 12.537-10.59-2.0767 3.3861-3.6906 7.0351-4.7988 10.85 6.1988-3.2162 9.1621-9.4581 9.1621-15.082-0.01-8.4124-6.7095-16.926-17-17z" fill="#decd87"/>
        <path d="m1552 846.86a44.5 44.5 0 0 1 4.7989 10.85c0.973 0.505 2.005 0.92143 3.0879 1.2363 1.5918-0.359 3.1475-0.86119 4.6504-1.4961a27.5 27.5 0 0 1-12.537-10.59zm80.871 0a27.5 27.5 0 0 1-12.537 10.59c1.5029 0.6349 3.0586 1.1371 4.6504 1.4961 1.0829-0.3149 2.1149-0.73133 3.0879-1.2363a44.5 44.5 0 0 1 4.7988-10.85z"/>
        <path d="m1577.3 846.86a27.5 27.5 0 0 1-12.537 10.59c1.5029 0.6349 3.0586 1.1371 4.6504 1.4961 1.0829-0.3149 2.1149-0.73133 3.0879-1.2363a44.5 44.5 0 0 1 4.7988-10.85zm30.309 0a44.5 44.5 0 0 1 4.7988 10.85c0.973 0.505 2.005 0.92143 3.0879 1.2363 1.5918-0.359 3.1475-0.86119 4.6504-1.4961a27.5 27.5 0 0 1-12.537-10.59z"/>
        <path d="m1548 654.12c-39.764 0-72.088 32.236-72.088 72 0 64.341 52.159 116.5 116.5 116.5s116.5-52.159 116.5-116.5c0-39.764-32.323-72-72.088-72z" fill="#a05a2c"/>
        <path d="m1547.9 681.62a44.5 44.5 0 0 0-44.186 39.338 116.5 116.5 0 0 0-0.3144 5.1621 116.5 116.5 0 0 0 89 112.94 116.5 116.5 0 0 0 89-112.94 116.5 116.5 0 0 0-0.3145-5.1621 44.5 44.5 0 0 0-44.186-39.338 44.5 44.5 0 0 0-44.5 44.5 44.5 44.5 0 0 0-44.5-44.5z" fill="#e9c6af"/>
        <path d="m1592.4 726.12c-0.01 12.65-6.7157 24.351-17.627 30.752 11.382 15.795 17.545 34.752 17.627 54.221 0.082-19.469 6.2447-38.425 17.627-54.221-10.911-6.4012-17.618-18.102-17.627-30.752z" fill="#333"/>
        <circle cx="1554.9" cy="726.12" r="27.5" fill="url(#c)"/>
        <path transform="matrix(-.95496 0 0 .95496 -2385.4 -1020.4)" d="m-4145.7 1809.7a72 72 0 0 1 46.953 18.785 27.5 27.5 0 0 1 0.043 0.6074 27.5 27.5 0 0 1-27.5 27.5 27.5 27.5 0 0 1-27.5-27.5 27.5 27.5 0 0 1 8.0039-19.393z" fill="#cdcdcd" filter="url(#e)" opacity=".5" style="mix-blend-mode:overlay;paint-order:markers fill stroke"/>
        <circle transform="scale(-1,1)" cx="-1557.9" cy="726.12" r="17" fill="#2e2e2e"/>
        <circle cx="1632.9" cy="726.12" r="27.5" fill="url(#b)"/>
        <path transform="matrix(-.95496 0 0 .95496 -2307.4 -1020.4)" d="m-4145.7 1809.7a72 72 0 0 1 46.953 18.785 27.5 27.5 0 0 1 0.043 0.6074 27.5 27.5 0 0 1-27.5 27.5 27.5 27.5 0 0 1-27.5-27.5 27.5 27.5 0 0 1 8.0039-19.393z" fill="#cdcdcd" filter="url(#d)" opacity=".5" style="mix-blend-mode:overlay;paint-order:markers fill stroke"/>
        <circle transform="scale(-1,1)" cx="-1629.9" cy="726.12" r="17" fill="#2e2e2e"/>
    </g>
</svg>
