<svg inkscape:version="1.3.2 (091e20e, 2023-11-25, custom)" sodipodi:docname="title.svg" version="1.1" viewBox="0 0 351.56 60.971" xmlns="http://www.w3.org/2000/svg" xmlns:cc="http://creativecommons.org/ns#" xmlns:dc="http://purl.org/dc/elements/1.1/" xmlns:inkscape="http://www.inkscape.org/namespaces/inkscape" xmlns:rdf="http://www.w3.org/1999/02/22-rdf-syntax-ns#" xmlns:sodipodi="http://sodipodi.sourceforge.net/DTD/sodipodi-0.dtd">
    <style>@media(prefers-color-scheme:dark){path{filter:invert(100%)};}</style>
    <title>DevsForge organization title</title>
    <sodipodi:namedview bordercolor="#eeeeee" borderopacity="1" inkscape:current-layer="svg1" inkscape:cx="160.62913" inkscape:cy="20.734397" inkscape:deskcolor="#505050" inkscape:document-units="px" inkscape:pagecheckerboard="0" inkscape:pageopacity="0" inkscape:showpageshadow="0" inkscape:window-height="1009" inkscape:window-maximized="1" inkscape:window-width="1920" inkscape:window-x="-8" inkscape:window-y="-8" inkscape:zoom="2.001505" pagecolor="#505050"/>
    <metadata>
        <rdf:RDF>
            <cc:Work rdf:about="">
                <cc:license rdf:resource="https://creativecommons.org/licenses/by-sa/4.0/"/>
                <dc:title>DevsForge organization title</dc:title>
                <dc:date>2024/07/03</dc:date>
                <dc:creator>
                    <cc:Agent>
                        <dc:title>DevsForge</dc:title>
                    </cc:Agent>
                </dc:creator>
                <dc:rights>
                    <cc:Agent>
                        <dc:title>DevsForge</dc:title>
                    </cc:Agent>
                </dc:rights>
                <dc:publisher>
                    <cc:Agent>
                        <dc:title>DevsForge</dc:title>
                    </cc:Agent>
                </dc:publisher>
                <dc:identifier>devsforge-title</dc:identifier>
                <dc:language>en</dc:language>
                <dc:subject>
                    <rdf:Bag>
                        <rdf:li>devsforge</rdf:li>
                        <rdf:li>logo</rdf:li>
                        <rdf:li>title</rdf:li>
                    </rdf:Bag>
                </dc:subject>
                <dc:contributor>
                    <cc:Agent>
                        <dc:title>Serhii Horodilov</dc:title>
                    </cc:Agent>
                </dc:contributor>
            </cc:Work>
            <cc:License rdf:about="https://creativecommons.org/licenses/by-sa/4.0/">
                <cc:permits rdf:resource="https://creativecommons.org/ns#Reproduction"/>
                <cc:permits rdf:resource="https://creativecommons.org/ns#Distribution"/>
                <cc:requires rdf:resource="https://creativecommons.org/ns#Notice"/>
                <cc:requires rdf:resource="https://creativecommons.org/ns#Attribution"/>
                <cc:permits rdf:resource="https://creativecommons.org/ns#DerivativeWorks"/>
                <cc:requires rdf:resource="https://creativecommons.org/ns#ShareAlike"/>
            </cc:License>
        </rdf:RDF>
    </metadata>
    <path id="a"
          d="m0 48.911v-48.911h15.879q5.0921 0 8.8442 1.943 3.8191 1.943 5.8961 5.4941 2.1441 3.4841 2.1441 8.2412v17.487q0 4.6901-2.1441 8.2412-2.077 3.5511-5.8961 5.5611-3.7521 1.943-8.8442 1.943zm10.05-9.0452h5.8291q3.0151 0 4.8911-1.876 1.943-1.876 1.943-4.8241v-17.487q0-2.9481-1.943-4.7571-1.876-1.876-4.8911-1.876h-5.8291zm46.097 9.7152q-4.8911 0-8.5762-1.809-3.6181-1.876-5.6281-5.1591-1.943-3.3501-1.943-7.7722v-8.7102q0-4.4221 1.943-7.7052 2.01-3.3501 5.6281-5.1591 3.6851-1.876 8.5762-1.876t8.4422 1.876q3.6181 1.809 5.5611 5.1591 2.01 3.2831 2.01 7.7052v6.8342h-22.58v1.876q0 3.4841 1.608 5.0921 1.675 1.608 4.9581 1.608 2.1441 0 3.7521-0.67002 1.608-0.67002 1.876-2.01h9.8492q-1.072 4.8241-5.2931 7.7722-4.2211 2.9481-10.184 2.9481zm-6.5662-23.451v0.87102l12.998-0.134v-0.87102q0-3.4171-1.608-5.2931-1.541-1.876-4.8241-1.876-3.2831 0-4.9581 1.943-1.608 1.943-1.608 5.3601zm40.469 22.781-12.261-36.851h10.385l6.4322 20.703q0.60302 1.876 1.072 3.8861 0.53602 2.01 0.67002 3.7521 0.134-1.742 0.60301-3.7521 0.46902-2.01 1.005-3.8191l6.2982-20.77h10.519l-12.127 36.851zm44.891 0.67002q-4.5561 0-7.9732-1.407-3.4171-1.474-5.3601-4.0201-1.876-2.5461-1.876-5.9631h9.8492q0 1.876 1.407 2.8141 1.407 0.93803 3.9531 0.93803h2.9481q2.7471 0 4.2211-0.93803 1.541-0.93802 1.541-2.6801 0-1.675-1.206-2.4121-1.206-0.80402-3.6851-1.072l-8.4422-1.005q-4.8911-0.60302-7.5042-3.6181-2.6131-3.0821-2.6131-7.6382 0-11.189 14.338-11.189h3.1491q6.7672 0 10.787 2.9481 4.0201 2.9481 4.0201 7.9062h-9.8492q0-1.608-1.34-2.4791-1.273-0.87102-3.6181-0.87102h-3.1491q-2.3451 0-3.5511 0.87102-1.206 0.87102-1.206 2.4121t1.139 2.077q1.206 0.53601 3.3501 0.80402l8.0402 1.005q5.4271 0.67002 8.1742 3.8191 2.7471 3.1491 2.7471 8.3082 0 5.4271-3.8861 8.4422-3.8861 2.9481-11.457 2.9481z"
          stroke-width="1.4698" style="font-variant-ligatures:discretionary-ligatures;paint-order:markers fill stroke"/>
    <path id="b"
          d="m181.24 0c-3.0821 0-5.518 0.82581-7.3047 2.4785-1.742 1.608-2.6133 3.8187-2.6133 6.6328v7.9746h-10.854v4.8242h10.854v27.002h5.3613v-27.002h15.209v-4.8242h-15.209v-7.9746c0-2.8587 1.5192-4.2871 4.5566-4.2871h126.4v-4.8242h-126.4zm78.859 11.391c-2.7694 0-5.0236 0.66974-6.7656 2.0098-1.6974 1.34-2.7484 3.1714-3.1504 5.4941v-6.834h-5.3594v36.852h5.3594v-23.652c0-2.9481 0.71517-5.2259 2.1445-6.834 1.4294-1.608 3.5057-2.4121 6.2305-2.4121 5.4941 0 8.2422 2.8587 8.2422 8.5762v3.2168h5.293v-3.2168c0-4.1988-1.0273-7.4368-3.082-9.7148-2.0547-2.3227-5.026-3.4844-8.9121-3.4844zm35.512 0c-3.7521 0-6.7234 1.2288-8.9121 3.6855-2.1887 2.4567-3.2832 5.7619-3.2832 9.916v7.8379c0 4.1988 1.0945 7.504 3.2832 9.916 2.1887 2.3674 5.16 3.5527 8.9121 3.5527 2.6801 0 4.8908-0.60452 6.6328-1.8105s2.8365-2.8794 3.2832-5.0234h0.13477l-0.13477 6.4316v3.2832c0 2.1887-0.6243 3.8858-1.875 5.0918-1.2507 1.2507-2.9932 1.875-5.2266 1.875h-134.78v4.8242h134.71c3.8861 0 6.9246-1.0491 9.1133-3.1484 2.2334-2.0547 3.3496-4.9352 3.3496-8.6426v-37.119h-5.2266v6.3652h-0.06641c-0.44668-2.1887-1.5412-3.9095-3.2832-5.1602s-3.9527-1.875-6.6328-1.875zm41.875 0c-4.2881 0-7.7039 1.294-10.25 3.8848-2.5461 2.5461-3.8203 6.0528-3.8203 10.52v9.3809c0 4.4668 1.2742 7.9952 3.8203 10.586 2.5461 2.5461 5.9619 3.8203 10.25 3.8203 3.7968 0 6.9459-0.89494 9.4473-2.6816 2.5014-1.7867 3.9535-4.2207 4.3555-7.3027h-5.293c-0.31267 1.6527-1.2274 2.9704-2.7461 3.9531-1.5187 0.93802-3.441 1.4082-5.7637 1.4082-2.7247 0-4.89-0.82776-6.498-2.4805-1.608-1.6974-2.4121-3.9535-2.4121-6.7676v-3.8848h22.982v-6.5664c0-4.1988-1.2742-7.5494-3.8203-10.051-2.5461-2.5461-5.9639-3.8184-10.252-3.8184zm-120.6 0.066406c-4.3328 0-7.7723 1.2723-10.318 3.8184-2.5014 2.5461-3.752 6.0765-3.752 10.588v9.2461c0 4.5114 1.2723 8.0399 3.8184 10.586 2.5461 2.5461 5.9639 3.8184 10.252 3.8184s7.7039-1.2723 10.25-3.8184c2.546-2.5461 3.8203-6.0745 3.8203-10.586v-9.2461c0-4.5114-1.2743-8.0418-3.8203-10.588-2.5014-2.5461-5.9172-3.8184-10.25-3.8184zm120.6 4.3555c2.8141 0 5.003 0.82581 6.5664 2.4785 1.5634 1.6527 2.3457 3.976 2.3457 6.9688v2.3457h-17.822v-2.3457c0-2.9927 0.78234-5.316 2.3457-6.9688 1.5634-1.6527 3.7504-2.4785 6.5644-2.4785zm-40.334 0.20117c2.6354 0 4.69 0.82581 6.1641 2.4785 1.5187 1.608 2.2773 3.8642 2.2773 6.7676v7.3691c0 2.9034-0.75865 5.1832-2.2773 6.8359-1.5187 1.608-3.5733 2.4121-6.1641 2.4121-2.6801 0-4.7564-0.78233-6.2305-2.3457-1.474-1.5634-2.2109-3.7069-2.2109-6.4316v-8.3086c0-2.7247 0.73691-4.8683 2.2109-6.4316 1.474-1.5634 3.5504-2.3457 6.2305-2.3457zm-80.268 0.20117c2.7247 0 4.8683 0.78038 6.4316 2.3438 1.5634 1.5634 2.3457 3.8432 2.3457 6.8359v10.184c0 2.9927-0.78234 5.2706-2.3457 6.834-1.5634 1.5634-3.7069 2.3457-6.4316 2.3457-2.7247 1e-6 -4.8683-0.78234-6.4316-2.3457-1.5634-1.5634-2.3457-3.8412-2.3457-6.834v-10.184c0-2.9927 0.78233-5.2726 2.3457-6.8359 1.5634-1.5634 3.7069-2.3438 6.4316-2.3438z"
          stroke-width="1.4698" style="font-variant-ligatures:discretionary-ligatures;paint-order:markers fill stroke"/>
</svg>
