<?xml version="1.0" encoding="UTF-8" standalone="no"?>
<!-- Created with Inkscape (http://www.inkscape.org/) -->

<svg
  width="360"
  height="180"
  viewBox="0 0 360 180"
  version="1.1"
  id="svg1"
  inkscape:version="1.3.2 (091e20e, 2023-11-25, custom)"
  sodipodi:docname="logo.svg"
  xml:space="preserve"
  xmlns:inkscape="http://www.inkscape.org/namespaces/inkscape"
  xmlns:sodipodi="http://sodipodi.sourceforge.net/DTD/sodipodi-0.dtd"
  xmlns="http://www.w3.org/2000/svg"
  xmlns:svg="http://www.w3.org/2000/svg"
  xmlns:rdf="http://www.w3.org/1999/02/22-rdf-syntax-ns#"
  xmlns:cc="http://creativecommons.org/ns#"
  xmlns:dc="http://purl.org/dc/elements/1.1/">
  <title
    id="title1">Devs Forge organization logo
  </title>
  <sodipodi:namedview
    id="namedview1"
    pagecolor="#505050"
    bordercolor="#eeeeee"
    borderopacity="1"
    inkscape:showpageshadow="0"
    inkscape:pageopacity="0"
    inkscape:pagecheckerboard="0"
    inkscape:deskcolor="#505050"
    inkscape:document-units="px"
    inkscape:zoom="1.7206265"
    inkscape:cx="123.21094"
    inkscape:cy="93.861163"
    inkscape:window-width="1920"
    inkscape:window-height="991"
    inkscape:window-x="-9"
    inkscape:window-y="-9"
    inkscape:window-maximized="1"
    inkscape:current-layer="svg1"/>
  <defs
    id="defs1"/>
  <metadata
    id="metadata1">
    <rdf:RDF>
    <cc:License
      rdf:about="http://creativecommons.org/licenses/by-sa/4.0/">
      <cc:permits
        rdf:resource="http://creativecommons.org/ns#Reproduction"/>
      <cc:permits
        rdf:resource="http://creativecommons.org/ns#Distribution"/>
      <cc:requires
        rdf:resource="http://creativecommons.org/ns#Notice"/>
      <cc:requires
        rdf:resource="http://creativecommons.org/ns#Attribution"/>
      <cc:permits
        rdf:resource="http://creativecommons.org/ns#DerivativeWorks"/>
      <cc:requires
        rdf:resource="http://creativecommons.org/ns#ShareAlike"/>
    </cc:License>
      <cc:Work
        rdf:about=""><cc:license
           rdf:resource="http://creativecommons.org/licenses/by-sa/4.0/" />
        <dc:title>Devs Forge organization logo</dc:title>
        <dc:date>07/03/2024</dc:date>
        <dc:creator>
          <cc:Agent>
            <dc:title>devsforge.org</dc:title>
          </cc:Agent>
        </dc:creator>
        <dc:rights>
          <cc:Agent>
            <dc:title>devsforge.org</dc:title>
          </cc:Agent>
        </dc:rights>
        <dc:publisher>
          <cc:Agent>
            <dc:title>devsforge.org</dc:title>
          </cc:Agent>
        </dc:publisher>
        <dc:identifier>devsforge-logo</dc:identifier>
        <dc:language>en</dc:language>
        <dc:subject>
          <rdf:Bag>
            <rdf:li>devsforge</rdf:li>
            <rdf:li>logo</rdf:li>
          </rdf:Bag>
        </dc:subject>
        <dc:contributor>
          <cc:Agent>
            <dc:title>Serhii Horodilov</dc:title>
          </cc:Agent>
        </dc:contributor>
      </cc:Work>
    </rdf:RDF>
  </metadata>
  <g
    id="devsforge-symbol"
    transform="matrix(0.21769016,0,0,0.21769016,-4.075128e-6,4.9717977)">
    <path
      id="symbol-v1.0-tail-5d"
      style="fill:#6b3c1d;fill-opacity:1;stroke-width:0.736063;-inkscape-stroke:none;paint-order:markers fill stroke"
      d="M 714.7344,167.51367 A 305,305 0 0 1 689.0801,142.43164 188.5,188.5 0 0 1 816.7559,82.96484 116.5,116.5 0 0 0 714.7344,167.51367 Z"/>
    <path
      id="symbol-v1.0-tail-4d"
      style="fill:#e4ba9f;fill-opacity:1;stroke-width:0.736063;-inkscape-stroke:none;paint-order:markers fill stroke"
      d="M 740.7715,187.84765 A 305,305 0 0 1 714.7344,167.51367 116.5,116.5 0 0 1 816.7559,82.96484 188.5,188.5 0 0 1 826.8633,82.5 116.5,116.5 0 0 0 740.7715,187.84765 Z"/>
    <path
      id="symbol-v1.0-tail-3d"
      style="fill:#e0af8e;fill-opacity:1;stroke-width:0.736063;-inkscape-stroke:none;paint-order:markers fill stroke"
      d="M 770.9493,206.43745 A 305,305 0 0 1 740.7715,187.84765 116.5,116.5 0 0 1 826.8633,82.5 116.5,116.5 0 0 0 770.9493,206.43745 Z"/>
    <path
      id="symbol-v1.0-tail-2d"
      style="fill:#d7986e;fill-opacity:1;stroke-width:0.736063;-inkscape-stroke:none;paint-order:markers fill stroke"
      d="M 808.67,223.63475 A 305,305 0 0 1 770.9493,206.43745 116.5,116.5 0 0 1 826.8633,82.5 116.5,116.5 0 0 0 808.67,223.63475 Z"/>
    <path
      id="symbol-v1.0-tail-5"
      style="fill:#6b3c1d;fill-opacity:1;stroke-width:0.736063;-inkscape-stroke:none;paint-order:markers fill stroke"
      d="m 938.9922,167.51367 a 305,305 0 0 0 25.6543,-25.08203 188.5,188.5 0 0 0 -127.6758,-59.4668 116.5,116.5 0 0 1 102.0215,84.54883 z"/>
    <path
      id="symbol-v1.0-tail-4"
      style="fill:#e4ba9f;fill-opacity:1;stroke-width:0.736063;-inkscape-stroke:none;paint-order:markers fill stroke"
      d="M 912.9551,187.84765 A 305,305 0 0 0 938.9922,167.51367 116.5,116.5 0 0 0 836.9707,82.96484 188.5,188.5 0 0 0 826.8633,82.5 116.5,116.5 0 0 1 912.9551,187.84765 Z"/>
    <path
      id="symbol-v1.0-tail-3"
      style="fill:#e0af8e;fill-opacity:1;stroke-width:0.736063;-inkscape-stroke:none;paint-order:markers fill stroke"
      d="M 882.7773,206.43745 A 305,305 0 0 0 912.9551,187.84765 116.5,116.5 0 0 0 826.8633,82.5 a 116.5,116.5 0 0 1 55.914,123.93745 z"/>
    <path
      id="symbol-v1.0-tail-2"
      style="fill:#d7986e;fill-opacity:1;stroke-width:0.736063;-inkscape-stroke:none;paint-order:markers fill stroke"
      d="M 845.0566,223.63475 A 305,305 0 0 0 882.7773,206.43745 116.5,116.5 0 0 0 826.8633,82.5 116.5,116.5 0 0 1 845.0566,223.63475 Z"/>
    <path
      id="symbol-v1.0-tail-1"
      style="fill:#d38d5f;fill-opacity:1;stroke-width:0.736063;-inkscape-stroke:none;paint-order:markers fill stroke"
      d="m 826.8638,82.5 a 116.5,116.5 0 0 0 -18.1933,141.13475 305,305 0 0 0 18.1933,6.3086 305,305 0 0 0 18.1934,-6.3086 A 116.5,116.5 0 0 0 826.8638,82.5 Z"/>
    <path
      id="symbol-v1.0-wing-7d"
      style="fill:#6b3c1d;fill-opacity:1;stroke:none;stroke-width:0.615225;paint-order:markers fill stroke"
      d="M 403.0918,71.65079 C 316.9007,94.56891 236.6415,125.66681 156.4785,166.13522 102.5659,153.40781 50.1238,135.10481 0,111.52191 c 135.6242,7.9766 271.6644,-5.4623 403.0918,-39.87112 z"/>
    <path
      id="symbol-v1.0-wing-6d"
      style="fill:#e7c2a9;fill-opacity:1;stroke:none;stroke-width:0.615225;paint-order:markers fill stroke"
      d="m 403.4746,71.54339 a 72,72 0 0 0 -17.3691,7.17382 72,72 0 0 0 -26.3555,98.35354 72,72 0 0 0 7.8379,10.7715 c -9.0043,0.3458 -18.0166,0.6176 -27.0508,0.6582 -62.0131,-0.2825 -123.7825,-7.7882 -184.0586,-22.36523 80.2826,-40.52881 160.6586,-71.66391 246.9961,-94.59183 z"/>
    <path
      id="symbol-v1.0-wing-5d"
      style="fill:#e4ba9f;fill-opacity:1;stroke:none;stroke-width:0.38023;paint-order:markers fill stroke"
      d="m 403.5039,71.65279 29.7402,110.99216 c -30.6499,3.7237 -61.5973,5.7155 -92.707,5.8555 -44.8966,-0.2045 -89.6574,-4.2497 -133.8242,-11.9687 a 493.5,493.5 0 0 1 77.7344,-55.70714 493.5,493.5 0 0 1 119.0566,-49.17182 z"/>
    <path
      id="symbol-v1.0-wing-4d"
      style="fill:#e0af8e;fill-opacity:1;stroke:none;stroke-width:0.234995;paint-order:markers fill stroke"
      d="m 403.4902,71.60389 29.7539,111.04106 c -30.6499,3.7237 -61.5973,5.7155 -92.707,5.8555 -33.773,-0.1538 -67.4641,-2.5273 -100.8906,-6.9414 a 305,305 0 0 1 90.2636,-79.56644 305,305 0 0 1 73.5801,-30.38872 z"/>
    <path
      id="symbol-v1.0-wing-3d"
      style="fill:#dba17c;fill-opacity:1;stroke:none;stroke-width:0.1;paint-order:markers fill stroke"
      d="m 403.4824,71.57269 29.7617,111.07226 c -30.6499,3.7237 -61.5973,5.7155 -92.707,5.8555 -21.3996,-0.097 -42.7646,-1.1162 -64.0547,-2.9277 a 188.5,188.5 0 0 1 81.5254,-95.21684 188.5,188.5 0 0 1 45.4746,-18.78322 z"/>
    <path
      id="symbol-v1.0-wing-2d"
      style="fill:#d7986e;fill-opacity:1;stroke:none;stroke-width:0.1;paint-order:markers fill stroke"
      d="m 403.4785,71.55309 29.7676,111.09186 c -30.6505,3.7239 -61.5987,5.7155 -92.709,5.8555 -7.783,-0.035 -15.5612,-0.1845 -23.334,-0.4473 A 116.5,116.5 0 0 1 375.375,83.16251 116.5,116.5 0 0 1 403.4785,71.55309 Z"/>
    <path
      id="symbol-v1.0-wing-1d"
      style="fill:#d38d5f;fill-opacity:1;stroke:none;stroke-width:0.615225;paint-order:markers fill stroke"
      d="m 737.8633,27.50039 c 24.3534,1.05 48.6725,2.789 72.9277,5.2149 -111.2315,82.00722 -241.3965,133.38873 -377.5469,149.92966 -8.6988,1.0569 -17.4255,1.9498 -26.1699,2.7207 -2.1726,0.1896 -4.3444,0.3772 -6.5195,0.5489 -7.8249,0.6253 -15.6686,1.111 -23.5235,1.5058 -3.1374,0.1562 -6.2763,0.2992 -9.4179,0.42 -0.01,3e-4 -0.017,0 -0.025,0 a 72,72 0 0 1 -7.8379,-10.7715 72,72 0 0 1 26.3555,-98.35354 72,72 0 0 1 17.3691,-7.17382 c 107.5554,-28.5626 222.3547,-43.9681 334.3887,-44.043 z"/>
    <path
      id="symbol-v1.0-claw-3d"
      style="display:inline;fill:#decd87;fill-opacity:1;stroke:none;stroke-width:0.1;paint-order:markers fill stroke"
      d="m 799.0723,171.50225 c 10.2905,0.074 16.9944,8.5876 17,17 0,5.6239 -2.9634,11.8658 -9.1622,15.082 1.1082,-3.8145 2.7222,-7.4635 4.7989,-10.8496 -3.0038,4.7237 -7.3776,8.4182 -12.5371,10.5899 l -0.1036,-0.035 -0.1035,0.035 c -5.1595,-2.1717 -9.5333,-5.8662 -12.5371,-10.5899 2.0767,3.3861 3.6907,7.0351 4.7989,10.8496 -6.1988,-3.2162 -9.1622,-9.4581 -9.1622,-15.082 0.01,-8.4124 6.7095,-16.926 17,-17 v 0 z"/>
    <path
      id="symbol-v1.0-claw-2d"
      style="display:inline;fill:#000000;fill-opacity:1;stroke:none;stroke-width:0.1;paint-order:markers fill stroke"
      d="m 806.9101,203.58425 c -0.973,0.505 -2.0049,0.9215 -3.0878,1.2364 -1.5918,-0.359 -3.1475,-0.8612 -4.6504,-1.4961 a 27.5,27.5 0 0 0 12.5371,-10.5899 44.5,44.5 0 0 0 -4.7989,10.8496 z"/>
    <path
      id="symbol-v1.0-claw-1d"
      style="display:inline;fill:#000000;fill-opacity:1;stroke:none;stroke-width:0.1;paint-order:markers fill stroke"
      d="m 791.2266,203.58425 c 0.973,0.505 2.0049,0.9215 3.0878,1.2364 1.5918,-0.359 3.1475,-0.8612 4.6504,-1.4961 a 27.5,27.5 0 0 1 -12.5371,-10.5899 44.5,44.5 0 0 1 4.7989,10.8496 z"/>
    <path
      id="symbol-v1.0-wing-7"
      style="fill:#6b3c1d;fill-opacity:1;stroke:none;stroke-width:0.615225;paint-order:markers fill stroke"
      d="m 1250.6348,71.65079 c 86.1911,22.91812 166.4503,54.01602 246.6133,94.48443 53.9126,-12.72741 106.3547,-31.03041 156.4785,-54.61331 -135.6242,7.9766 -271.6644,-5.4623 -403.0918,-39.87112 z"/>
    <path
      id="symbol-v1.0-wing-6"
      style="fill:#e7c2a9;fill-opacity:1;stroke:none;stroke-width:0.615225;paint-order:markers fill stroke"
      d="m 1250.252,71.54339 a 72,72 0 0 1 17.3691,7.17382 72,72 0 0 1 26.3555,98.35354 72,72 0 0 1 -7.8379,10.7715 c 9.0043,0.3458 18.0166,0.6176 27.0508,0.6582 62.0131,-0.2825 123.7825,-7.7882 184.0586,-22.36523 -80.2826,-40.52881 -160.6586,-71.66391 -246.9961,-94.59183 z"/>
    <path
      id="symbol-v1.0-wing-5"
      style="fill:#e4ba9f;fill-opacity:1;stroke:none;stroke-width:0.38023;paint-order:markers fill stroke"
      d="m 1250.2227,71.65279 -29.7402,110.99216 c 30.6499,3.7237 61.5973,5.7155 92.707,5.8555 44.8966,-0.2045 89.6574,-4.2497 133.8242,-11.9687 a 493.5,493.5 0 0 0 -77.7344,-55.70714 493.5,493.5 0 0 0 -119.0566,-49.17182 z"/>
    <path
      id="symbol-v1.0-wing-4"
      style="fill:#e0af8e;fill-opacity:1;stroke:none;stroke-width:0.234995;paint-order:markers fill stroke"
      d="m 1250.2364,71.60389 -29.7539,111.04106 c 30.6499,3.7237 61.5973,5.7155 92.707,5.8555 33.773,-0.1538 67.4641,-2.5273 100.8906,-6.9414 a 305,305 0 0 0 -90.2636,-79.56644 305,305 0 0 0 -73.5801,-30.38872 z"/>
    <path
      id="symbol-v1.0-wing-3"
      style="fill:#dba17c;fill-opacity:1;stroke:none;stroke-width:0.1;paint-order:markers fill stroke"
      d="m 1250.2442,71.57269 -29.7617,111.07226 c 30.6499,3.7237 61.5973,5.7155 92.707,5.8555 21.3996,-0.097 42.7646,-1.1162 64.0547,-2.9277 a 188.5,188.5 0 0 0 -81.5254,-95.21684 188.5,188.5 0 0 0 -45.4746,-18.78322 z"/>
    <path
      id="symbol-v1.0-wing-2"
      style="fill:#d7986e;fill-opacity:1;stroke:none;stroke-width:0.1;paint-order:markers fill stroke"
      d="m 1250.2481,71.55309 -29.7676,111.09186 c 30.6505,3.7239 61.5987,5.7155 92.709,5.8555 7.783,-0.035 15.5612,-0.1845 23.334,-0.4473 A 116.5,116.5 0 0 0 1278.3516,83.16251 116.5,116.5 0 0 0 1250.2481,71.55309 Z"/>
    <path
      id="symbol-v1.0-wing-1"
      style="fill:#d38d5f;fill-opacity:1;stroke:none;stroke-width:0.615225;paint-order:markers fill stroke"
      d="m 915.8633,27.50039 c -24.3534,1.05 -48.6725,2.789 -72.9277,5.2149 111.2315,82.00722 241.3965,133.38873 377.5469,149.92966 8.6988,1.0569 17.4255,1.9498 26.1699,2.7207 2.1726,0.1896 4.3444,0.3772 6.5195,0.5489 7.8249,0.6253 15.6686,1.111 23.5235,1.5058 3.1374,0.1562 6.2763,0.2992 9.4179,0.42 0.01,3e-4 0.017,0 0.025,0 a 72,72 0 0 0 7.8379,-10.7715 72,72 0 0 0 -26.3555,-98.35354 72,72 0 0 0 -17.3691,-7.17382 c -107.5554,-28.5626 -222.3547,-43.9681 -334.3887,-44.043 z"/>
    <path
      id="symbol-v1.0-claw-3"
      style="display:inline;fill:#decd87;fill-opacity:1;stroke:none;stroke-width:0.1;paint-order:markers fill stroke"
      d="m 854.6543,171.50225 c -10.2905,0.074 -16.9944,8.5876 -17,17 0,5.6239 2.9634,11.8658 9.1622,15.082 -1.1082,-3.8145 -2.7222,-7.4635 -4.7989,-10.8496 3.0038,4.7237 7.3776,8.4182 12.5371,10.5899 l 0.1036,-0.035 0.1035,0.035 c 5.1595,-2.1717 9.5333,-5.8662 12.5371,-10.5899 -2.0767,3.3861 -3.6907,7.0351 -4.7989,10.8496 6.1988,-3.2162 9.1622,-9.4581 9.1622,-15.082 -0.01,-8.4124 -6.7095,-16.926 -17,-17 v 0 z"/>
    <path
      id="symbol-v1.0-claw-2"
      style="display:inline;fill:#000000;fill-opacity:1;stroke:none;stroke-width:0.1;paint-order:markers fill stroke"
      d="m 846.8165,203.58425 c 0.973,0.505 2.0049,0.9215 3.0878,1.2364 1.5918,-0.359 3.1475,-0.8612 4.6504,-1.4961 a 27.5,27.5 0 0 1 -12.5371,-10.5899 44.5,44.5 0 0 1 4.7989,10.8496 z"/>
    <path
      id="symbol-v1.0-claw-1"
      style="display:inline;fill:#000000;fill-opacity:1;stroke:none;stroke-width:0.1;paint-order:markers fill stroke"
      d="m 862.5,203.58425 c -0.973,0.505 -2.0049,0.9215 -3.0878,1.2364 -1.5918,-0.359 -3.1475,-0.8612 -4.6504,-1.4961 a 27.5,27.5 0 0 0 12.5371,-10.5899 44.5,44.5 0 0 0 -4.7989,10.8496 z"/>
    <path
      id="symbol-v1.0-head-2"
      style="display:inline;fill:#a05a2c;fill-opacity:1;stroke:none;stroke-width:0.0897605;paint-order:markers fill stroke"
      d="m 782.4517,0 c -39.7642,0 -72.0879,32.23566 -72.0879,72 0,64.34087 52.1591,116.49995 116.5,116.49995 64.3412,0 116.5,-52.15908 116.5,-116.49995 0,-39.76434 -32.3234,-72 -72.0879,-72 z"/>
    <path
      id="symbol-v1.0-head-1"
      style="display:inline;fill:#e9c6af;fill-opacity:1;stroke:none;stroke-width:0.0897605;paint-order:markers fill stroke"
      d="M 782.3638,27.5 A 44.5,44.5 0 0 0 738.1783,66.83789 116.5,116.5 0 0 0 737.8638,72 a 116.5,116.5 0 0 0 89,112.93945 A 116.5,116.5 0 0 0 915.8638,72 116.5,116.5 0 0 0 915.5494,66.83789 44.5,44.5 0 0 0 871.3638,27.5 a 44.5,44.5 0 0 0 -44.5,44.5 44.5,44.5 0 0 0 -44.5,-44.5 z"/>
    <path
      id="symbol-v1.0-beak-1"
      style="display:inline;fill:#333333;fill-opacity:1;stroke:none;stroke-width:0.0897605;paint-order:markers fill stroke"
      d="m 826.8638,72 c -0.011,15.77671 -8.3745,30.36837 -21.9824,38.35156 14.1952,19.69888 21.8806,43.34068 21.9824,67.62109 0.1018,-24.28041 7.7873,-47.92221 21.9824,-67.62109 C 835.2384,102.36837 826.8748,87.77671 826.8638,72 Z"/>
    <circle
      style="fill:#000000;fill-opacity:1;stroke:none;stroke-width:0.1;paint-order:markers fill stroke"
      id="symbol-v1.0-eye-1"
      cx="867.36334"
      cy="71.999817"
      r="27.5"/>
    <circle
      style="fill:#000000;fill-opacity:1;stroke:none;stroke-width:0.1;paint-order:markers fill stroke"
      id="symbol-v1.0-eye-1d"
      cx="-786.36334"
      cy="71.999817"
      r="27.5"
      transform="scale(-1,1)"/>
  </g>
  <g
    id="devsforge-title"
    transform="translate(4.220705,89.514648)">
    <path
      style="font-weight:800;font-size:67.0016px;font-family:'JetBrainsMono Nerd Font';-inkscape-font-specification:'JetBrainsMono Nerd Font, Ultra-Bold';font-variant-ligatures:discretionary-ligatures;letter-spacing:0px;word-spacing:0px;fill:#000000;stroke-width:1.46977;paint-order:markers fill stroke"
      d="M 0,48.911166 V 0 h 15.87938 q 5.092121,0 8.844211,1.943046 3.819091,1.943047 5.896141,5.494131 2.144051,3.484084 2.144051,8.241198 v 17.487418 q 0,4.690112 -2.144051,8.241193 -2.07705,3.55109 -5.896141,5.56114 -3.75209,1.94304 -8.844211,1.94304 z m 10.05024,-9.045213 h 5.82914 q 3.015072,0 4.891117,-1.876045 1.943046,-1.876045 1.943046,-4.824115 V 15.678375 q 0,-2.948071 -1.943046,-4.757114 Q 18.894452,9.045216 15.87938,9.045216 h -5.82914 z m 46.09713,9.715233 q -4.891117,0 -8.576205,-1.80904 -3.618087,-1.87605 -5.628135,-5.15913 -1.943046,-3.350078 -1.943046,-7.772183 v -8.710209 q 0,-4.422105 1.943046,-7.705184 2.010048,-3.35008 5.628135,-5.159123 3.685088,-1.876045 8.576205,-1.876045 4.891117,0 8.442202,1.876045 3.618086,1.809043 5.561133,5.159123 2.010048,3.283079 2.010048,7.705184 v 6.834164 h -22.57954 v 1.876045 q 0,3.484083 1.608038,5.092121 1.675041,1.608042 4.958119,1.608042 2.144051,0 3.75209,-0.67002 1.608038,-0.670015 1.876045,-2.010047 h 9.849235 q -1.072026,4.824117 -5.293126,7.772187 -4.221101,2.94807 -10.184244,2.94807 z M 49.581213,26.130624 v 0.871021 l 12.998311,-0.134003 v -0.871021 q 0,-3.417081 -1.608039,-5.293126 -1.541036,-1.876045 -4.824115,-1.876045 -3.283078,0 -4.958119,1.943046 -1.608038,1.943047 -1.608038,5.360128 z M 90.050208,48.911166 77.788915,12.060288 h 10.385248 l 6.432154,20.703495 q 0.603015,1.876045 1.072026,3.886093 0.536016,2.010048 0.670016,3.75209 0.134,-1.742042 0.60301,-3.75209 0.46902,-2.010048 1.00503,-3.819091 l 6.298151,-20.770497 h 10.51925 l -12.12729,36.850878 z m 44.891102,0.67002 q -4.55611,0 -7.97319,-1.40703 -3.41708,-1.47404 -5.36013,-4.0201 -1.87604,-2.54606 -1.87604,-5.963143 h 9.84923 q 0,1.876045 1.40704,2.814063 1.40703,0.93803 3.95309,0.93803 h 2.94807 q 2.74707,0 4.2211,-0.93803 1.54104,-0.938018 1.54104,-2.68006 0,-1.67504 -1.20603,-2.412058 -1.20603,-0.804019 -3.68509,-1.072025 l -8.4422,-1.005024 q -4.89112,-0.603015 -7.50418,-3.618087 -2.61306,-3.082074 -2.61306,-7.638182 0,-11.189268 14.33834,-11.189268 h 3.14908 q 6.76716,0 10.78725,2.94807 4.0201,2.948071 4.0201,7.90619 h -9.84924 q 0,-1.608039 -1.34003,-2.47906 -1.27303,-0.871021 -3.61808,-0.871021 h -3.14908 q -2.34506,0 -3.55108,0.871021 -1.20603,0.871021 -1.20603,2.412058 0,1.541037 1.13902,2.07705 1.20603,0.536012 3.35008,0.804019 l 8.0402,1.005024 q 5.42713,0.670016 8.17419,3.819091 2.74707,3.149075 2.74707,8.308199 0,5.427133 -3.8861,8.442203 -3.88609,2.94807 -11.45727,2.94807 z"
      id="devs-text"/>
    <path
      id="forge-text"
      style="font-weight:300;font-size:67.0016px;font-family:'JetBrainsMono Nerd Font';-inkscape-font-specification:'JetBrainsMono Nerd Font, Light';font-variant-ligatures:discretionary-ligatures;letter-spacing:0px;word-spacing:0px;fill:#000000;stroke-width:1.46977;paint-order:markers fill stroke"
      d="m 181.24023,0 c -3.08206,0 -5.51797,0.82581128 -7.30468,2.4785156 -1.74204,1.6080374 -2.61328,3.8187483 -2.61328,6.6328125 v 7.9746099 h -10.85352 v 4.824218 h 10.85352 v 27.001953 h 5.36132 V 21.910156 h 15.20899 V 17.085938 H 176.68359 V 9.1113281 c 0,-2.8587321 1.51925,-4.2871093 4.55664,-4.2871093 h 126.4043 V 0 Z m 78.85938,11.390625 c -2.7694,0 -5.02358,0.669735 -6.76563,2.009766 -1.69737,1.34003 -2.74838,3.171421 -3.15039,5.49414 v -6.833984 h -5.35937 v 36.851562 h 5.35937 V 25.259766 c 0,-2.948068 0.71517,-5.225948 2.14453,-6.833985 1.42937,-1.608036 3.50574,-2.412109 6.23047,-2.412109 5.49413,0 8.24219,2.858707 8.24219,8.576172 v 3.216797 h 5.29297 v -3.216797 c 0,-4.198763 -1.02732,-7.436792 -3.08203,-9.714844 -2.05472,-2.32272 -5.02603,-3.484375 -8.91211,-3.484375 z m 35.51172,0 c -3.75209,0 -6.72339,1.228824 -8.91211,3.685547 -2.18872,2.456722 -3.2832,5.761921 -3.2832,9.916016 v 7.83789 c 0,4.198763 1.09448,7.503957 3.2832,9.916016 2.18872,2.367387 5.16002,3.552734 8.91211,3.552734 2.68007,0 4.89077,-0.604518 6.63281,-1.810547 1.74204,-1.206029 2.83652,-2.879386 3.2832,-5.023437 h 0.13477 l -0.13477,6.43164 v 3.283204 c 0,2.188717 -0.6243,3.885768 -1.875,5.091796 -1.25068,1.250699 -2.99317,1.875 -5.22656,1.875 H 163.64453 v 4.824219 h 134.71289 c 3.88609,0 6.92457,-1.049059 9.11328,-3.148437 2.23339,-2.054718 3.34961,-4.935162 3.34961,-8.642578 V 12.060547 h -5.22656 v 6.365234 h -0.0664 c -0.44668,-2.188717 -1.54116,-3.90946 -3.2832,-5.160156 -1.74204,-1.250696 -3.95274,-1.875 -6.63281,-1.875 z m 41.875,0 c -4.2881,0 -7.70394,1.29404 -10.25,3.884766 -2.54607,2.546058 -3.82031,6.052762 -3.82031,10.519531 v 9.380859 c 0,4.466766 1.27424,7.995207 3.82031,10.585938 2.54606,2.546057 5.9619,3.820312 10.25,3.820312 3.79675,0 6.94587,-0.894935 9.44726,-2.68164 2.50139,-1.786712 3.95347,-4.220664 4.35547,-7.302735 h -5.29297 c -0.31267,1.652705 -1.22739,2.970433 -2.74609,3.953125 -1.51871,0.938019 -3.44095,1.408203 -5.76367,1.408203 -2.72473,0 -4.89002,-0.827763 -6.49805,-2.480468 -1.60804,-1.697373 -2.41211,-3.953515 -2.41211,-6.767578 v -3.884766 h 22.98242 v -6.566406 c 0,-4.198764 -1.27425,-7.549391 -3.82031,-10.050782 -2.54606,-2.546058 -5.96386,-3.818359 -10.25195,-3.818359 z m -120.60156,0.06641 c -4.33277,0 -7.77231,1.272302 -10.31836,3.81836 -2.50139,2.546058 -3.75196,6.076453 -3.75196,10.58789 v 9.246094 c 0,4.511433 1.27231,8.039873 3.81836,10.585937 2.54606,2.546058 5.96386,3.81836 10.25196,3.81836 4.2881,0 7.70394,-1.272302 10.25,-3.81836 2.54605,-2.546064 3.82031,-6.074504 3.82031,-10.585937 v -9.246094 c 0,-4.511437 -1.27426,-8.041832 -3.82031,-10.58789 -2.5014,-2.546058 -5.91724,-3.81836 -10.25,-3.81836 z M 337.48633,15.8125 c 2.81406,0 5.00303,0.825811 6.5664,2.478516 1.56337,1.652704 2.34571,3.976014 2.34571,6.96875 v 2.345703 h -17.82227 v -2.345703 c 0,-2.992736 0.78234,-5.316046 2.34571,-6.96875 1.56337,-1.652705 3.75038,-2.478516 6.56445,-2.478516 z m -40.33399,0.201172 c 2.63539,0 4.69003,0.825811 6.16407,2.478516 1.51869,1.608036 2.27734,3.864178 2.27734,6.767578 v 7.36914 c 0,2.9034 -0.75865,5.183233 -2.27734,6.835938 -1.51871,1.608031 -3.57334,2.412109 -6.16407,2.412109 -2.68006,0 -4.75644,-0.782334 -6.23046,-2.345703 -1.47403,-1.563369 -2.21094,-3.706911 -2.21094,-6.431641 v -8.308593 c 0,-2.724729 0.73691,-4.868272 2.21094,-6.431641 1.47402,-1.563369 3.5504,-2.345703 6.23046,-2.345703 z m -80.26757,0.201172 c 2.72473,0 4.86826,0.780381 6.43164,2.34375 1.56336,1.563369 2.3457,3.843202 2.3457,6.835937 v 10.183594 c 0,2.992736 -0.78234,5.270614 -2.3457,6.833984 -1.56338,1.563365 -3.70691,2.345704 -6.43164,2.345703 -2.72473,10e-7 -4.86827,-0.782338 -6.43165,-2.345703 -1.56337,-1.56337 -2.3457,-3.841248 -2.3457,-6.833984 V 25.394531 c 0,-2.992735 0.78233,-5.272568 2.3457,-6.835937 1.56338,-1.563369 3.70692,-2.34375 6.43165,-2.34375 z"/>
  </g>
</svg>

