<?xml version="1.0" encoding="UTF-8" standalone="no"?>
<!-- Created with Inkscape (http://www.inkscape.org/) -->

<svg
   width="4480.9492"
   height="4600.5"
   viewBox="0 0 4480.9495 4600.4999"
   version="1.1"
   id="svg1"
   inkscape:version="1.3.2 (091e20e, 2023-11-25, custom)"
   sodipodi:docname="symbol.svg"
   xmlns:inkscape="http://www.inkscape.org/namespaces/inkscape"
   xmlns:sodipodi="http://sodipodi.sourceforge.net/DTD/sodipodi-0.dtd"
   xmlns="http://www.w3.org/2000/svg"
   xmlns:svg="http://www.w3.org/2000/svg"
   xmlns:rdf="http://www.w3.org/1999/02/22-rdf-syntax-ns#"
   xmlns:cc="http://creativecommons.org/ns#"
   xmlns:dc="http://purl.org/dc/elements/1.1/">
  <title
     id="title1">Devs Forge organization symbol</title>
  <sodipodi:namedview
     id="namedview1"
     pagecolor="#505050"
     bordercolor="#eeeeee"
     borderopacity="1"
     inkscape:showpageshadow="0"
     inkscape:pageopacity="0"
     inkscape:pagecheckerboard="0"
     inkscape:deskcolor="#505050"
     inkscape:document-units="px"
     showgrid="false"
     showguides="true"
     inkscape:zoom="0.2588849"
     inkscape:cx="2242.3092"
     inkscape:cy="2300.25"
     inkscape:window-width="2560"
     inkscape:window-height="1369"
     inkscape:window-x="1912"
     inkscape:window-y="-8"
     inkscape:window-maximized="1"
     inkscape:current-layer="svg1">
    <sodipodi:guide
       position="2992.0001,4689.9999"
       orientation="-1,0"
       id="guide1"
       inkscape:locked="false"
       inkscape:label=""
       inkscape:color="rgb(0,134,229)" />
    <sodipodi:guide
       position="3792.0001,4689.9999"
       orientation="-1,0"
       id="guide54"
       inkscape:locked="false"
       inkscape:label=""
       inkscape:color="rgb(0,134,229)" />
    <sodipodi:guide
       position="4609.0003,2921.9059"
       orientation="0,-1"
       id="guide137"
       inkscape:locked="false" />
    <sodipodi:guide
       position="3136.0002,1737.1803"
       orientation="0,-1"
       id="guide16"
       inkscape:locked="false" />
    <sodipodi:guide
       position="3136.0002,1771.1803"
       orientation="0,1"
       id="guide17"
       inkscape:label=""
       inkscape:locked="false"
       inkscape:color="rgb(0,134,229)" />
    <sodipodi:guide
       position="3136.0002,1682.1803"
       orientation="0,1"
       id="guide18"
       inkscape:label=""
       inkscape:locked="false"
       inkscape:color="rgb(0,134,229)" />
    <sodipodi:guide
       position="3136.0002,1716.1803"
       orientation="0,1"
       id="guide21"
       inkscape:label=""
       inkscape:locked="false"
       inkscape:color="rgb(0,134,229)" />
    <sodipodi:guide
       position="3136.0002,1758.1803"
       orientation="0,1"
       id="guide22"
       inkscape:label=""
       inkscape:locked="false"
       inkscape:color="rgb(0,134,229)" />
  </sodipodi:namedview>
  <defs
     id="defs1" />
  <circle
     style="fill:#666666;fill-opacity:0.396875;stroke:none;stroke-width:0.995455;paint-order:markers fill stroke"
     id="fibonacci-2584"
     cx="1292"
     cy="3308.5002"
     r="1292"
     inkscape:label="n17" />
  <circle
     style="fill:#666666;fill-opacity:0.396875;stroke:none;stroke-width:0.615225;paint-order:markers fill stroke"
     id="fibonacci-1597"
     cx="798.50012"
     cy="1218.0001"
     r="798.5"
     inkscape:label="n16" />
  <circle
     style="fill:#666666;fill-opacity:0.396875;stroke:none;stroke-width:0.38023;paint-order:markers fill stroke"
     id="fibonacci-987"
     cx="2090.5"
     cy="913.00018"
     r="493.5"
     inkscape:label="n15" />
  <circle
     style="fill:#666666;fill-opacity:0.396875;stroke:none;stroke-width:0.234995;paint-order:markers fill stroke"
     id="fibonacci-610"
     cx="2279"
     cy="1711.5001"
     r="305"
     inkscape:label="n14" />
  <circle
     style="fill:#666666;fill-opacity:0.396875;stroke:none;stroke-width:0.1;paint-order:markers fill stroke"
     id="fibonacci-377"
     cx="1785.5"
     cy="1828.0001"
     r="188.5"
     inkscape:label="n13" />
  <circle
     style="fill:#666666;fill-opacity:0.396875;stroke:none;stroke-width:0.1;paint-order:markers fill stroke"
     id="fibonacci-233"
     cx="1713.5"
     cy="1523.0001"
     r="116.5"
     inkscape:label="n12" />
  <circle
     id="fibonacci-144"
     cx="1902"
     cy="1478.5001"
     r="72"
     style="font-variation-settings:normal;vector-effect:none;fill:#666666;fill-opacity:0.396875;stroke:none;stroke-width:0.1;stroke-linecap:butt;stroke-linejoin:miter;stroke-miterlimit:4;stroke-dasharray:none;stroke-dashoffset:0;stroke-opacity:1;-inkscape-stroke:none;paint-order:markers fill stroke;stop-color:#000000"
     inkscape:label="n11" />
  <circle
     style="fill:#666666;fill-opacity:0.396875;stroke:none;stroke-width:0.1;paint-order:markers fill stroke"
     id="fibonacci-89"
     cx="1929.5"
     cy="1595.0001"
     r="44.5"
     inkscape:label="n10" />
  <circle
     style="fill:#666666;fill-opacity:0.396875;stroke:none;stroke-width:0.1;paint-order:markers fill stroke"
     id="fibonacci-55"
     cx="1857.5"
     cy="1612.0001"
     r="27.5"
     inkscape:label="n9" />
  <circle
     style="fill:#666666;fill-opacity:0.396875;stroke:none;stroke-width:0.1;paint-order:markers fill stroke"
     id="fibonacci-34"
     cx="1847"
     cy="1567.5001"
     r="17"
     inkscape:label="n8" />
  <circle
     id="fibonacci-21"
     cx="1874.5"
     cy="1561.0001"
     r="10.5"
     style="font-variation-settings:normal;vector-effect:none;fill:#666666;fill-opacity:0.396875;stroke:none;stroke-width:0.1;stroke-linecap:butt;stroke-linejoin:miter;stroke-miterlimit:4;stroke-dasharray:none;stroke-dashoffset:0;stroke-opacity:1;-inkscape-stroke:none;paint-order:markers fill stroke;stop-color:#000000"
     inkscape:label="n7" />
  <circle
     id="fibonacci-13"
     cx="1878.5"
     cy="1578.0001"
     r="6.5"
     style="font-variation-settings:normal;vector-effect:none;fill:#666666;fill-opacity:0.396875;stroke:none;stroke-width:0.1;stroke-linecap:butt;stroke-linejoin:miter;stroke-miterlimit:4;stroke-dasharray:none;stroke-dashoffset:0;stroke-opacity:1;-inkscape-stroke:none;paint-order:markers fill stroke;stop-color:#000000"
     inkscape:label="n6" />
  <circle
     style="fill:#666666;fill-opacity:0.396875;stroke:none;stroke-width:0.1;paint-order:markers fill stroke"
     id="fibonacci-8"
     cx="1868"
     cy="1580.5001"
     r="4"
     inkscape:label="n5" />
  <circle
     style="fill:#666666;fill-opacity:0.396875;stroke:none;stroke-width:0.16733;paint-order:markers fill stroke"
     id="fibonacci-5"
     cx="1866.5"
     cy="1574.0001"
     r="2.5"
     inkscape:label="n4" />
  <circle
     style="fill:#666666;fill-opacity:0.396875;stroke:none;stroke-width:0.100398;paint-order:markers fill stroke"
     id="fibonacci-3"
     cx="1870.5"
     cy="1573.0001"
     r="1.5"
     inkscape:label="n3" />
  <circle
     style="fill:#666666;fill-opacity:0.396875;stroke:none;stroke-width:0.1;paint-order:markers fill stroke"
     id="fibonacci-2"
     cx="1871"
     cy="1575.5001"
     r="1"
     inkscape:label="n2" />
  <circle
     style="fill:#666666;fill-opacity:0.396875;stroke:none;stroke-width:0.1;paint-order:markers fill stroke"
     id="fibonacci-1"
     r="0.5"
     cy="1576.0001"
     cx="1869.5"
     inkscape:label="n1" />
  <metadata
     id="metadata1">
    <rdf:RDF>
      <cc:Work
         rdf:about="">
        <dc:title>Devs Forge organization symbol</dc:title>
        <dc:date>07/01/2024</dc:date>
        <dc:creator>
          <cc:Agent>
            <dc:title>devsforge.org</dc:title>
          </cc:Agent>
        </dc:creator>
        <dc:rights>
          <cc:Agent>
            <dc:title>devsforge.org</dc:title>
          </cc:Agent>
        </dc:rights>
        <dc:publisher>
          <cc:Agent>
            <dc:title>devsforge.org</dc:title>
          </cc:Agent>
        </dc:publisher>
        <dc:identifier>devsforge.org-symbol:latest</dc:identifier>
        <dc:language>en</dc:language>
        <dc:subject>
          <rdf:Bag>
            <rdf:li>devsforge.org</rdf:li>
            <rdf:li>devs forge</rdf:li>
            <rdf:li>symbol</rdf:li>
            <rdf:li>logo</rdf:li>
          </rdf:Bag>
        </dc:subject>
        <dc:description>The organization symbol for usage in logo and promo materials</dc:description>
        <dc:contributor>
          <cc:Agent>
            <dc:title>Serhii Horodilov</dc:title>
          </cc:Agent>
        </dc:contributor>
        <cc:license
           rdf:resource="http://creativecommons.org/licenses/by-sa/4.0/" />
      </cc:Work>
      <cc:License
         rdf:about="http://creativecommons.org/licenses/by-sa/4.0/">
        <cc:permits
           rdf:resource="http://creativecommons.org/ns#Reproduction" />
        <cc:permits
           rdf:resource="http://creativecommons.org/ns#Distribution" />
        <cc:requires
           rdf:resource="http://creativecommons.org/ns#Notice" />
        <cc:requires
           rdf:resource="http://creativecommons.org/ns#Attribution" />
        <cc:permits
           rdf:resource="http://creativecommons.org/ns#DerivativeWorks" />
        <cc:requires
           rdf:resource="http://creativecommons.org/ns#ShareAlike" />
      </cc:License>
    </rdf:RDF>
  </metadata>
  <rect
     style="fill:#000000;fill-opacity:0.50108;stroke-width:0.318027;-inkscape-stroke:none;paint-order:markers fill stroke"
     id="rect1"
     width="144"
     height="144"
     x="2992"
     y="381.39883"
     ry="0.00011381805" />
  <rect
     style="fill:#ffffff;fill-opacity:0.50108;stroke:none;stroke-width:0.196558;-inkscape-stroke:none;paint-order:markers fill stroke"
     id="rect2"
     width="89"
     height="89"
     x="2992"
     y="436.39883"
     ry="7.0345879e-05" />
  <rect
     style="fill:#ffffff;fill-opacity:0.50108;stroke-width:0.121469;-inkscape-stroke:none;paint-order:markers fill stroke"
     id="rect3"
     width="55.000084"
     height="55.000084"
     x="3081"
     y="381.39883"
     ry="4.3472239e-05" />
  <path
     id="circle13"
     style="fill:#e9c6af;fill-opacity:0.396875;stroke:none;stroke-width:0.0897605;paint-order:markers fill stroke"
     inkscape:label="head inner"
     d="m 3036.4998,934.83759 c -24.5767,0 -44.5,19.92333 -44.5,44.5 V 1092.277 c 52.1322,-12.6636 88.8764,-59.2913 89,-112.93941 -0.067,-1.72282 -0.1715,-3.44395 -0.3145,-5.16211 -2.6187,-22.4219 -21.6112,-39.33075 -44.1855,-39.33789 z"
     sodipodi:nodetypes="cscccc" />
  <g
     id="g23"
     inkscape:label="head inner template"
     transform="translate(-2008.0002,110.00016)">
    <circle
       style="fill:#0000ff;fill-opacity:0.396875;stroke:none;stroke-width:0.0897605;paint-order:markers fill stroke"
       id="circle16"
       cx="4972.5"
       cy="631.39868"
       r="116.5"
       inkscape:label="head inner a" />
    <circle
       style="fill:#ffccaa;fill-opacity:0.396875;stroke:none;stroke-width:0.0342862;paint-order:markers fill stroke"
       id="circle17"
       cx="5044.5"
       cy="631.39868"
       r="44.5"
       inkscape:label="head inner b" />
  </g>
  <circle
     style="fill:#ff0000;fill-opacity:0.396875;stroke:none;stroke-width:0.0897605;paint-order:markers fill stroke"
     id="circle27"
     cx="2992"
     cy="425.89883"
     r="116.5"
     inkscape:label="head outer a" />
  <circle
     style="fill:#ff00ff;fill-opacity:0.396875;stroke:none;stroke-width:0.0554743;paint-order:markers fill stroke"
     id="circle25"
     cx="3036.5"
     cy="425.89883"
     r="72"
     inkscape:label="head outer b" />
  <circle
     style="fill:#0000ff;fill-opacity:0.396875;stroke:none;stroke-width:0.0897605;paint-order:markers fill stroke"
     id="circle7"
     cx="2964.5"
     cy="425.89883"
     r="116.5"
     inkscape:label="head inner a" />
  <circle
     style="fill:#ffccaa;fill-opacity:0.396875;stroke:none;stroke-width:0.0342862;paint-order:markers fill stroke"
     id="circle8"
     cx="3036.5"
     cy="425.89883"
     r="44.5"
     inkscape:label="head inner b" />
  <g
     id="g54"
     transform="translate(-2008.0002,110.00016)">
    <circle
       style="fill:#ff0000;fill-opacity:0.396875;stroke:none;stroke-width:0.0897605;paint-order:markers fill stroke"
       id="circle28"
       cx="5000"
       cy="1175.7156"
       r="116.5"
       inkscape:label="head outer a" />
    <circle
       style="fill:#ff00ff;fill-opacity:0.396875;stroke:none;stroke-width:0.0554743;paint-order:markers fill stroke"
       id="circle29"
       cx="5044.5"
       cy="1175.7156"
       r="72"
       inkscape:label="head outer b" />
  </g>
  <path
     id="circle30"
     style="fill:#ff0000;fill-opacity:0.396875;stroke:none;stroke-width:0.0897605;paint-order:markers fill stroke"
     inkscape:label="head outer a"
     d="m 3036.4998,1523.6545 a 72,72 0 0 0 -44.5,15.6016 v 112.7968 60.1016 a 116.5,116.5 0 0 0 116.5,-116.5 72,72 0 0 0 -72,-72 z" />
  <path
     id="circle32"
     style="fill:#ff7f2a;fill-opacity:0.396875;stroke:none;stroke-width:0.0897605;paint-order:markers fill stroke"
     inkscape:label="head outer a"
     d="m 3036.4998,2188.0319 h -44.5 v 128.3984 60.1016 c 64.3412,0 116.5,-52.1588 116.5,-116.5 0,-39.7645 -32.2355,-72 -72,-72 z"
     sodipodi:nodetypes="ccccsc" />
  <path
     id="circle34"
     style="fill:#ffe6d5;fill-opacity:0.396875;stroke:none;stroke-width:0.0897605;paint-order:markers fill stroke"
     inkscape:label="head inner a"
     d="m 3036.4998,2215.5319 a 44.5,44.5 0 0 0 -44.5,44.5 v 112.9374 a 116.5,116.5 0 0 0 89,-112.9374 116.5,116.5 0 0 0 -0.3145,-5.1661 44.5,44.5 0 0 0 -44.1855,-39.3339 z" />
  <rect
     style="fill:#000000;fill-opacity:0.50108;stroke-width:0.318027;-inkscape-stroke:none;paint-order:markers fill stroke"
     id="rect39"
     width="144"
     height="144"
     x="3792"
     y="381.39883"
     ry="0.00011381805" />
  <rect
     style="fill:#ffffff;fill-opacity:0.50108;stroke:none;stroke-width:0.196558;-inkscape-stroke:none;paint-order:markers fill stroke"
     id="rect41"
     width="89"
     height="89"
     x="3792"
     y="436.39883"
     ry="7.0345879e-05" />
  <rect
     style="fill:#ffffff;fill-opacity:0.50108;stroke-width:0.121469;-inkscape-stroke:none;paint-order:markers fill stroke"
     id="rect42"
     width="55.000084"
     height="55.000084"
     x="3881"
     y="381.39883"
     ry="4.3472239e-05" />
  <circle
     style="fill:#0000ff;fill-opacity:0.6;stroke:none;stroke-width:0.0342862;paint-order:markers fill stroke"
     id="circle46"
     cx="3836.5"
     cy="425.89883"
     r="44.5"
     inkscape:label="head inner b" />
  <circle
     style="fill:#ff6600;fill-opacity:0.5;stroke:none;stroke-width:0.1;paint-order:markers fill stroke"
     id="circle47"
     cx="3840.5"
     cy="425.89883"
     r="27.5"
     inkscape:label="n9" />
  <circle
     id="circle49"
     cx="3802.5"
     cy="425.89883"
     r="10.5"
     style="font-variation-settings:normal;vector-effect:none;fill:#0000ff;fill-opacity:0.8;stroke:none;stroke-width:0.1;stroke-linecap:butt;stroke-linejoin:miter;stroke-miterlimit:4;stroke-dasharray:none;stroke-dashoffset:0;stroke-opacity:1;-inkscape-stroke:none;paint-order:markers fill stroke;stop-color:#000000"
     inkscape:label="n7" />
  <rect
     style="fill:#000000;fill-opacity:0.50108;stroke-width:0.318027;-inkscape-stroke:none;paint-order:markers fill stroke"
     id="rect50"
     width="144"
     height="144"
     x="3792"
     y="525.39886"
     ry="0.00011381805" />
  <rect
     style="fill:#ffffff;fill-opacity:0.50108;stroke:none;stroke-width:0.196558;-inkscape-stroke:none;paint-order:markers fill stroke"
     id="rect51"
     width="89"
     height="89"
     x="3792"
     y="580.39886"
     ry="7.0345879e-05" />
  <rect
     style="fill:#ffffff;fill-opacity:0.50108;stroke-width:0.121469;-inkscape-stroke:none;paint-order:markers fill stroke"
     id="rect52"
     width="55.000084"
     height="55.000084"
     x="3881"
     y="525.39886"
     ry="4.3472239e-05" />
  <circle
     style="fill:#0000ff;fill-opacity:0.6;stroke:none;stroke-width:0.0342862;paint-order:markers fill stroke"
     id="circle52"
     cx="-3836.5"
     cy="569.89886"
     r="44.5"
     inkscape:label="head inner b"
     transform="scale(-1,1)" />
  <circle
     style="fill:#ff6600;fill-opacity:0.5;stroke:none;stroke-width:0.1;paint-order:markers fill stroke"
     id="circle53"
     cx="-3832.5"
     cy="569.89886"
     r="27.5"
     inkscape:label="n9"
     transform="scale(-1,1)" />
  <circle
     id="circle54"
     cx="-3870.5"
     cy="569.89886"
     r="10.5"
     style="font-variation-settings:normal;vector-effect:none;fill:#0000ff;fill-opacity:0.8;stroke:none;stroke-width:0.1;stroke-linecap:butt;stroke-linejoin:miter;stroke-miterlimit:4;stroke-dasharray:none;stroke-dashoffset:0;stroke-opacity:1;-inkscape-stroke:none;paint-order:markers fill stroke;stop-color:#000000"
     inkscape:label="n7"
     transform="scale(-1,1)" />
  <g
     id="g64"
     inkscape:label="head inner template"
     transform="translate(-2008.0002,1318.6945)">
    <circle
       style="fill:#0000ff;fill-opacity:0.396875;stroke:none;stroke-width:0.0897605;paint-order:markers fill stroke"
       id="circle63"
       cx="4972.5"
       cy="631.39868"
       r="116.5"
       inkscape:label="head inner a" />
    <circle
       style="fill:#ffccaa;fill-opacity:0.396875;stroke:none;stroke-width:0.0342862;paint-order:markers fill stroke"
       id="circle64"
       cx="5044.5"
       cy="631.39868"
       r="44.5"
       inkscape:label="head inner b" />
  </g>
  <g
     id="g66"
     transform="translate(-2008.0002,774.37757)">
    <circle
       style="fill:#ff0000;fill-opacity:0.396875;stroke:none;stroke-width:0.0897605;paint-order:markers fill stroke"
       id="circle65"
       cx="5000"
       cy="1175.7156"
       r="116.5"
       inkscape:label="head outer a" />
    <circle
       style="fill:#ff00ff;fill-opacity:0.396875;stroke:none;stroke-width:0.0554743;paint-order:markers fill stroke"
       id="circle66"
       cx="5044.5"
       cy="1175.7156"
       r="72"
       inkscape:label="head outer b" />
  </g>
  <path
     id="circle115"
     style="fill:#ff7e28;fill-opacity:0.396078;stroke:none;stroke-width:0.0897605;paint-order:markers fill stroke"
     inkscape:label="head outer a"
     d="m 3836.5,1878.094 -44.5,2e-4 v 128.3982 60.1016 c 64.3412,0 116.5,-52.1588 116.5,-116.5 0,-39.7645 -32.2355,-72 -72,-72 z"
     sodipodi:nodetypes="ccccsc" />
  <path
     id="circle113"
     style="fill:#ffbe94;fill-opacity:0.635294;stroke:none;stroke-width:0.0897605;paint-order:markers fill stroke"
     inkscape:label="head inner a"
     d="m 3836.5,1905.594 a 44.5,44.5 0 0 0 -44.5,44.5 v 112.9374 a 116.5,116.5 0 0 0 89,-112.9374 116.5,116.5 0 0 0 -0.3145,-5.1661 44.5,44.5 0 0 0 -44.1855,-39.3339 z" />
  <path
     id="circle123"
     style="fill:#ff7e28;fill-opacity:0.396078;stroke:none;stroke-width:0.0897605;paint-order:markers fill stroke"
     inkscape:label="head outer a"
     d="m 4408.9484,1878.094 -44.5,2e-4 v 128.3982 60.1016 c 64.3412,0 116.5,-52.1588 116.5,-116.5 0,-39.7645 -32.2355,-72 -72,-72 z"
     sodipodi:nodetypes="ccccsc" />
  <path
     id="circle121"
     style="fill:#ffbe94;fill-opacity:0.635294;stroke:none;stroke-width:0.0897605;paint-order:markers fill stroke"
     inkscape:label="head inner a"
     d="m 4408.9484,1905.594 a 44.5,44.5 0 0 0 -44.5,44.5 v 112.9374 a 116.5,116.5 0 0 0 89,-112.9374 116.5,116.5 0 0 0 -0.3145,-5.1661 44.5,44.5 0 0 0 -44.1855,-39.3339 z" />
  <circle
     style="fill:#000000;fill-opacity:0.8;stroke:none;stroke-width:0.1;paint-order:markers fill stroke"
     id="circle125"
     cx="-3832.5"
     cy="1950.0931"
     r="27.5"
     inkscape:label="n9"
     transform="scale(-1,1)" />
  <circle
     style="fill:#000000;fill-opacity:0.890196;stroke:none;stroke-width:0.1;paint-order:markers fill stroke"
     id="circle127"
     cx="4412.9487"
     cy="1950.0931"
     r="27.5"
     inkscape:label="n9" />
  <path
     id="path137"
     style="fill:#ff7e28;fill-opacity:0.396078;stroke:none;stroke-width:0.0897605;paint-order:markers fill stroke"
     inkscape:label="head outer a"
     d="m 4108.9742,1878.094 -44.5,2e-4 v 128.3982 60.1016 c 64.3412,0 116.5,-52.1588 116.5,-116.5 0,-39.7645 -32.2355,-72 -72,-72 z"
     sodipodi:nodetypes="ccccsc" />
  <path
     id="path138"
     style="fill:#ffbe94;fill-opacity:0.635294;stroke:none;stroke-width:0.0897605;paint-order:markers fill stroke"
     inkscape:label="head inner a"
     d="m 4108.9742,1905.594 a 44.5,44.5 0 0 0 -44.5,44.5 v 112.9374 a 116.5,116.5 0 0 0 89,-112.9374 116.5,116.5 0 0 0 -0.3145,-5.1661 44.5,44.5 0 0 0 -44.1855,-39.3339 z" />
  <circle
     style="fill:#000000;fill-opacity:0.890196;stroke:none;stroke-width:0.1;paint-order:markers fill stroke"
     id="circle138"
     cx="4108.9741"
     cy="1950.0931"
     r="27.5"
     inkscape:label="n9" />
  <path
     id="path139"
     style="fill:#ff7e28;fill-opacity:0.396078;stroke:none;stroke-width:0.0897605;paint-order:markers fill stroke"
     inkscape:label="head outer a"
     d="m 3747.5,2168.094 c -39.7645,0 -72,32.2355 -72,72 0,64.341 52.159,116.5 116.5,116.5 64.341,0 116.5,-52.159 116.5,-116.5 0,-39.7645 -32.2355,-72 -72,-72 z"
     sodipodi:nodetypes="ssssss" />
  <path
     id="path140"
     style="fill:#ffbe94;fill-opacity:0.635294;stroke:none;stroke-width:0.0897605;paint-order:markers fill stroke"
     inkscape:label="head inner a"
     d="m 3747.5,2195.594 a 44.5,44.5 0 0 0 -44.1855,39.3339 116.5,116.5 0 0 0 -0.3145,5.1661 116.5,116.5 0 0 0 89,112.9374 116.5,116.5 0 0 0 89,-112.9374 116.5,116.5 0 0 0 -0.3145,-5.1661 44.5,44.5 0 0 0 -44.1855,-39.3339 44.5,44.5 0 0 0 -44.5,44.5 44.5,44.5 0 0 0 -44.5,-44.5 z" />
  <path
     id="path141"
     style="fill:#ff7e28;fill-opacity:0.396078;stroke:none;stroke-width:0.0897605;paint-order:markers fill stroke"
     inkscape:label="head outer a"
     d="m 4319.9492,2168.094 c -39.7643,0 -72,32.2355 -72,72 0,64.341 52.159,116.5 116.5,116.5 64.3412,0 116.5,-52.159 116.5,-116.5 0,-39.7645 -32.2355,-72 -72,-72 z"
     sodipodi:nodetypes="ssssss" />
  <path
     id="path142"
     style="fill:#ffbe94;fill-opacity:0.635294;stroke:none;stroke-width:0.0897605;paint-order:markers fill stroke"
     inkscape:label="head inner a"
     d="m 4319.9492,2195.594 a 44.5,44.5 0 0 0 -44.1855,39.3339 116.5,116.5 0 0 0 -0.3145,5.1661 116.5,116.5 0 0 0 89,112.9374 116.5,116.5 0 0 0 89,-112.9374 116.5,116.5 0 0 0 -0.3144,-5.1661 44.5,44.5 0 0 0 -44.1856,-39.3339 44.5,44.5 0 0 0 -44.5,44.5 44.5,44.5 0 0 0 -44.5,-44.5 z" />
  <circle
     style="fill:#000000;fill-opacity:0.8;stroke:none;stroke-width:0.1;paint-order:markers fill stroke"
     id="circle142"
     cx="-3832.5"
     cy="2240.0933"
     r="27.5"
     inkscape:label="n9"
     transform="scale(-1,1)" />
  <circle
     style="fill:#000000;fill-opacity:0.890196;stroke:none;stroke-width:0.1;paint-order:markers fill stroke"
     id="circle143"
     cx="4412.9487"
     cy="2240.0933"
     r="27.5"
     inkscape:label="n9" />
  <path
     id="path143"
     style="fill:#ff7e28;fill-opacity:0.396078;stroke:none;stroke-width:0.0897605;paint-order:markers fill stroke"
     inkscape:label="head outer a"
     d="m 4019.9746,2168.094 c -39.7645,0 -72,32.2355 -72,72 0,64.341 52.159,116.5 116.5,116.5 64.341,0 116.5,-52.159 116.5,-116.5 0,-39.7645 -32.2355,-72 -72,-72 z"
     sodipodi:nodetypes="ssssss" />
  <path
     id="path144"
     style="fill:#ffbe94;fill-opacity:0.635294;stroke:none;stroke-width:0.0897605;paint-order:markers fill stroke"
     inkscape:label="head inner a"
     d="m 4019.9746,2195.594 a 44.5,44.5 0 0 0 -44.1855,39.3339 116.5,116.5 0 0 0 -0.3145,5.1661 116.5,116.5 0 0 0 89,112.9374 116.5,116.5 0 0 0 89,-112.9374 116.5,116.5 0 0 0 -0.3144,-5.1661 44.5,44.5 0 0 0 -44.1856,-39.3339 44.5,44.5 0 0 0 -44.5,44.5 44.5,44.5 0 0 0 -44.5,-44.5 z" />
  <circle
     style="fill:#000000;fill-opacity:0.890196;stroke:none;stroke-width:0.1;paint-order:markers fill stroke"
     id="circle144"
     cx="4108.9741"
     cy="2240.0933"
     r="27.5"
     inkscape:label="n9" />
  <circle
     style="fill:#000000;fill-opacity:0.890196;stroke:none;stroke-width:0.1;paint-order:markers fill stroke"
     id="circle146"
     cx="-4315.9482"
     cy="2240.0933"
     r="27.5"
     inkscape:label="n9"
     transform="scale(-1,1)" />
  <circle
     style="fill:#000000;fill-opacity:0.890196;stroke:none;stroke-width:0.1;paint-order:markers fill stroke"
     id="circle148"
     cx="-4019.9741"
     cy="2240.0933"
     r="27.5"
     inkscape:label="n9"
     transform="scale(-1,1)" />
  <circle
     style="fill:#000000;fill-opacity:0.8;stroke:none;stroke-width:0.1;paint-order:markers fill stroke"
     id="circle150"
     cx="3751.5"
     cy="2240.0933"
     r="27.5"
     inkscape:label="n9" />
  <rect
     style="fill:#000000;fill-opacity:0.50108;stroke-width:0.318027;-inkscape-stroke:none;paint-order:markers fill stroke"
     id="rect4"
     width="144"
     height="144"
     x="2992"
     y="2808.3196"
     ry="0.00011381805" />
  <circle
     style="display:inline;fill:#ff0000;fill-opacity:0.396875;stroke:none;stroke-width:0.0897605;paint-order:markers fill stroke"
     id="circle6"
     cx="2992"
     cy="2852.8196"
     r="116.5"
     inkscape:label="head outer a" />
  <circle
     style="display:inline;fill:#ff00ff;fill-opacity:0.396875;stroke:none;stroke-width:0.0554743;paint-order:markers fill stroke"
     id="circle9"
     cx="3036.5"
     cy="2852.8196"
     r="72"
     inkscape:label="head outer b" />
  <circle
     style="display:inline;fill:#0000ff;fill-opacity:0.396875;stroke:none;stroke-width:0.0897605;paint-order:markers fill stroke"
     id="circle10"
     cx="2964.5"
     cy="2852.8196"
     r="116.5"
     inkscape:label="head inner a" />
  <circle
     style="display:inline;fill:#ffccaa;fill-opacity:0.396875;stroke:none;stroke-width:0.0342862;paint-order:markers fill stroke"
     id="circle11"
     cx="3036.5"
     cy="2852.8196"
     r="44.5"
     inkscape:label="head inner b" />
  <rect
     style="fill:#000000;fill-opacity:0.50108;stroke-width:0.514585;-inkscape-stroke:none;paint-order:markers fill stroke"
     id="rect12"
     width="233"
     height="233"
     x="3136"
     y="2719.3196"
     ry="0.00018416393" />
  <rect
     style="fill:#000000;fill-opacity:0.50108;stroke-width:0.832612;-inkscape-stroke:none;paint-order:markers fill stroke"
     id="rect15"
     width="377"
     height="377"
     x="3369"
     y="2575.3196"
     ry="0.00029798198" />
  <rect
     style="fill:#ffffff;fill-opacity:0.50108;stroke:none;stroke-width:0.196558;-inkscape-stroke:none;paint-order:markers fill stroke"
     id="rect5"
     width="89"
     height="89"
     x="2992"
     y="2863.3196"
     ry="7.0345879e-05" />
  <rect
     style="fill:#ffffff;fill-opacity:0.50108;stroke-width:0.121469;-inkscape-stroke:none;paint-order:markers fill stroke"
     id="rect6"
     width="55.000084"
     height="55.000084"
     x="3081"
     y="2808.3196"
     ry="4.3472239e-05" />
  <rect
     style="fill:#ffffff;fill-opacity:0.50108;stroke:none;stroke-width:0.318026;-inkscape-stroke:none;paint-order:markers fill stroke"
     id="rect11"
     width="144"
     height="144"
     x="3136"
     y="2808.3196"
     ry="0.00011381805" />
  <rect
     style="fill:#ffffff;fill-opacity:0.50108;stroke:none;stroke-width:0.196558;-inkscape-stroke:none;paint-order:markers fill stroke"
     id="rect13"
     width="89"
     height="89"
     x="3280"
     y="2719.3196"
     ry="7.0345879e-05" />
  <rect
     style="fill:#ffffff;fill-opacity:0.50108;stroke-width:0.318026;-inkscape-stroke:none;paint-order:markers fill stroke;font-variation-settings:normal;opacity:1;vector-effect:none;stroke:none;stroke-linecap:butt;stroke-linejoin:miter;stroke-miterlimit:4;stroke-dasharray:none;stroke-dashoffset:0;stroke-opacity:1;stop-color:#000000;stop-opacity:1"
     id="rect16"
     width="233"
     height="233"
     x="3369"
     y="2719.3196"
     ry="0.00018416393" />
  <rect
     style="fill:#ffffff;fill-opacity:0.50108;stroke:none;stroke-width:0.318026;-inkscape-stroke:none;paint-order:markers fill stroke"
     id="rect14"
     width="144"
     height="144"
     x="3602"
     y="2575.3196"
     ry="0.00011381805" />
  <text
     xml:space="preserve"
     style="font-style:italic;font-variant:normal;font-weight:500;font-stretch:normal;font-size:64px;font-family:'JetBrainsMono Nerd Font';-inkscape-font-specification:'JetBrainsMono Nerd Font, Medium Italic';font-variant-ligatures:discretionary-ligatures;font-variant-caps:normal;font-variant-numeric:normal;font-variant-east-asian:normal;letter-spacing:0px;word-spacing:0px;opacity:1;vector-effect:none;fill:#ffffff;fill-opacity:0.50108;stroke:none;stroke-width:0.318026;stroke-linecap:butt;stroke-linejoin:miter;stroke-miterlimit:4;stroke-dasharray:none;stroke-dashoffset:0;stroke-opacity:1;-inkscape-stroke:none;paint-order:markers fill stroke"
     x="2992"
     y="184.08"
     id="text18"><tspan
       sodipodi:role="line"
       id="tspan18"
       x="2992"
       y="184.08">head sketches</tspan><tspan
       sodipodi:role="line"
       id="tspan19"
       x="2992"
       y="264.08002"></tspan></text>
  <text
     xml:space="preserve"
     style="font-style:italic;font-variant:normal;font-weight:500;font-stretch:normal;font-size:64px;font-family:'JetBrainsMono Nerd Font';-inkscape-font-specification:'JetBrainsMono Nerd Font, Medium Italic';font-variant-ligatures:discretionary-ligatures;font-variant-caps:normal;font-variant-numeric:normal;font-variant-east-asian:normal;letter-spacing:0px;word-spacing:0px;opacity:1;vector-effect:none;fill:#ffffff;fill-opacity:0.50108;stroke:none;stroke-width:0.318026;stroke-linecap:butt;stroke-linejoin:miter;stroke-miterlimit:4;stroke-dasharray:none;stroke-dashoffset:0;stroke-opacity:1;-inkscape-stroke:none;paint-order:markers fill stroke"
     x="3792"
     y="183.955"
     id="text20"><tspan
       sodipodi:role="line"
       id="tspan20"
       x="3792"
       y="183.955">eye sketches</tspan></text>
  <text
     xml:space="preserve"
     style="font-style:italic;font-variant:normal;font-weight:500;font-stretch:normal;font-size:64px;font-family:'JetBrainsMono Nerd Font';-inkscape-font-specification:'JetBrainsMono Nerd Font, Medium Italic';font-variant-ligatures:discretionary-ligatures;font-variant-caps:normal;font-variant-numeric:normal;font-variant-east-asian:normal;letter-spacing:0px;word-spacing:0px;opacity:1;vector-effect:none;fill:#ffffff;fill-opacity:0.50108;stroke:none;stroke-width:0.318026;stroke-linecap:butt;stroke-linejoin:miter;stroke-miterlimit:4;stroke-dasharray:none;stroke-dashoffset:0;stroke-opacity:1;-inkscape-stroke:none;paint-order:markers fill stroke"
     x="2992"
     y="2498"
     id="text21"><tspan
       sodipodi:role="line"
       id="tspan21"
       x="2992"
       y="2498">wing sketches</tspan></text>
  <path
     style="fill:#666666;fill-opacity:0.396875;stroke:none;stroke-width:0.38023;paint-order:markers fill stroke"
     id="circle22"
     inkscape:label="n15"
     sodipodi:type="arc"
     sodipodi:cx="3419.9353"
     sodipodi:cy="2458.8665"
     sodipodi:rx="493.5"
     sodipodi:ry="493.5"
     sodipodi:start="0.78980114"
     sodipodi:end="2.3384542"
     sodipodi:open="true"
     sodipodi:arc-type="arc"
     d="m 3767.3527,2809.3567 a 493.5,493.5 0 0 1 -690.1294,4.6023" />
  <path
     style="opacity:1;vector-effect:none;fill:#ffffff;fill-opacity:0.50108;stroke:none;stroke-width:0.318026;stroke-linecap:butt;stroke-linejoin:miter;stroke-miterlimit:4;stroke-dasharray:none;stroke-dashoffset:0;stroke-opacity:1;-inkscape-stroke:none;paint-order:markers fill stroke"
     d="m 3106.105,2829.3183 c 0,0 98.7768,13.0014 173.895,13.0014 211.914,-1e-4 214.6011,-10.8329 322,-13 47.9902,-0.9684 49.2477,6.4999 144,0 0,0 -66.306,13 -144,13 -77.644,6.0357 -209.8935,15.6185 -322,21 -58.9619,2.8304 -175.8398,21.0013 -175.8398,21.0013 z"
     id="path22"
     sodipodi:nodetypes="csaccscc" />
  <circle
     style="display:inline;fill:#ff0000;fill-opacity:0.396875;stroke:none;stroke-width:0.0897605;paint-order:markers fill stroke"
     id="circle23"
     cx="2992"
     cy="3115.1562"
     r="116.5"
     inkscape:label="head outer a" />
  <circle
     style="display:inline;fill:#ff00ff;fill-opacity:0.396875;stroke:none;stroke-width:0.0554743;paint-order:markers fill stroke"
     id="circle24"
     cx="3036.5"
     cy="3115.1562"
     r="72"
     inkscape:label="head outer b" />
  <circle
     style="display:inline;fill:#0000ff;fill-opacity:0.396875;stroke:none;stroke-width:0.0897605;paint-order:markers fill stroke"
     id="circle26"
     cx="2964.5"
     cy="3115.1562"
     r="116.5"
     inkscape:label="head inner a" />
  <circle
     style="display:inline;fill:#ffccaa;fill-opacity:0.396875;stroke:none;stroke-width:0.0342862;paint-order:markers fill stroke"
     id="circle31"
     cx="3036.5"
     cy="3115.1562"
     r="44.5"
     inkscape:label="head inner b" />
  <path
     style="fill:#666666;fill-opacity:0.396875;stroke:none;stroke-width:0.38023;paint-order:markers fill stroke"
     id="path31"
     inkscape:label="n15"
     sodipodi:type="arc"
     sodipodi:cx="3419.9353"
     sodipodi:cy="2721.2031"
     sodipodi:rx="493.5"
     sodipodi:ry="493.5"
     sodipodi:start="0.78980114"
     sodipodi:end="2.3384542"
     sodipodi:open="true"
     sodipodi:arc-type="arc"
     d="m 3767.3527,3071.6934 a 493.5,493.5 0 0 1 -690.1294,4.6023" />
  <path
     style="opacity:1;vector-effect:none;fill:#ffffff;fill-opacity:0.50108;stroke:none;stroke-width:0.318026;stroke-linecap:butt;stroke-linejoin:miter;stroke-miterlimit:4;stroke-dasharray:none;stroke-dashoffset:0;stroke-opacity:1;-inkscape-stroke:none;paint-order:markers fill stroke"
     d="m 3106.105,3091.6549 c 0,0 115.7768,12.0053 173.895,13.0014 107.405,1.8409 214.6011,-10.8329 322,-13 47.9902,-0.9684 49.2477,6.4999 144,0 0,0 -82.1612,13 -144,13 -107.5614,0 -214.8935,11.1185 -322,21 -58.7802,5.423 -175.8398,21.0013 -175.8398,21.0013 z"
     id="path32"
     sodipodi:nodetypes="caacsacc" />
  <circle
     style="display:inline;fill:#ff0000;fill-opacity:0.396875;stroke:none;stroke-width:0.0897605;paint-order:markers fill stroke"
     id="circle33"
     cx="2992"
     cy="3518.5754"
     r="116.5"
     inkscape:label="head outer a" />
  <circle
     style="display:inline;fill:#ff00ff;fill-opacity:0.396875;stroke:none;stroke-width:0.0554743;paint-order:markers fill stroke"
     id="circle35"
     cx="3036.5"
     cy="3518.5754"
     r="72"
     inkscape:label="head outer b" />
  <circle
     style="display:inline;fill:#0000ff;fill-opacity:0.396875;stroke:none;stroke-width:0.0897605;paint-order:markers fill stroke"
     id="circle36"
     cx="2964.5"
     cy="3518.5754"
     r="116.5"
     inkscape:label="head inner a" />
  <circle
     style="display:inline;fill:#ffccaa;fill-opacity:0.396875;stroke:none;stroke-width:0.0342862;paint-order:markers fill stroke"
     id="circle37"
     cx="3036.5"
     cy="3518.5754"
     r="44.5"
     inkscape:label="head inner b" />
  <path
     style="fill:#666666;fill-opacity:0.396875;stroke:none;stroke-width:0.38023;paint-order:markers fill stroke"
     id="path37"
     inkscape:label="n15"
     sodipodi:type="arc"
     sodipodi:cx="3393.4028"
     sodipodi:cy="3149.4861"
     sodipodi:rx="493.5"
     sodipodi:ry="493.5"
     sodipodi:start="0.75310145"
     sodipodi:end="2.382713"
     sodipodi:open="true"
     sodipodi:arc-type="arc"
     d="m 3753.4463,3486.9931 a 493.5,493.5 0 0 1 -358.6177,155.9909 493.5,493.5 0 0 1 -359.513,-153.9162" />
  <path
     style="opacity:1;vector-effect:none;fill:#ffffff;fill-opacity:0.50108;stroke:none;stroke-width:0.318026;stroke-linecap:butt;stroke-linejoin:miter;stroke-miterlimit:4;stroke-dasharray:none;stroke-dashoffset:0;stroke-opacity:1;-inkscape-stroke:none;paint-order:markers fill stroke"
     d="m 3106.105,3495.0742 c 0,0 115.7768,12.0053 173.895,13.0014 107.405,1.8409 107.5969,-9.5949 322,-13 47.9939,-0.7622 47.628,6.611 144,0 0,0 -95.9498,13 -144,13 -107.5614,0 -214.8935,11.1185 -322,21 -58.7802,5.423 -175.8398,21.0013 -175.8398,21.0013 z"
     id="path38"
     sodipodi:nodetypes="cascsacc" />
</svg>
