<?xml version="1.0" encoding="UTF-8" standalone="no"?>
<!-- Created with Inkscape (http://www.inkscape.org/) -->

<svg
   width="355.98477"
   height="60.971275"
   viewBox="0 0 355.98477 60.971279"
   version="1.1"
   id="svg1"
   inkscape:version="1.3.2 (091e20e, 2023-11-25, custom)"
   xml:space="preserve"
   sodipodi:docname="title-glitch.svg"
   xmlns:inkscape="http://www.inkscape.org/namespaces/inkscape"
   xmlns:sodipodi="http://sodipodi.sourceforge.net/DTD/sodipodi-0.dtd"
   xmlns="http://www.w3.org/2000/svg"
   xmlns:svg="http://www.w3.org/2000/svg"
   xmlns:rdf="http://www.w3.org/1999/02/22-rdf-syntax-ns#"
   xmlns:cc="http://creativecommons.org/ns#"
   xmlns:dc="http://purl.org/dc/elements/1.1/"><title
     id="title104">Devs Forge organization title (glitch version)</title><sodipodi:namedview
     id="namedview1"
     pagecolor="#505050"
     bordercolor="#eeeeee"
     borderopacity="1"
     inkscape:showpageshadow="0"
     inkscape:pageopacity="0"
     inkscape:pagecheckerboard="0"
     inkscape:deskcolor="#505050"
     inkscape:document-units="px"
     showguides="true"
     inkscape:zoom="2.7753941"
     inkscape:cx="172.76826"
     inkscape:cy="16.394068"
     inkscape:window-width="1920"
     inkscape:window-height="991"
     inkscape:window-x="-9"
     inkscape:window-y="-9"
     inkscape:window-maximized="1"
     inkscape:current-layer="svg1" /><defs
     id="defs1" /><path
     id="path103"
     style="font-weight:800;font-size:67.0016px;font-family:'JetBrainsMono Nerd Font';-inkscape-font-specification:'JetBrainsMono Nerd Font, Ultra-Bold';font-variant-ligatures:discretionary-ligatures;letter-spacing:0px;word-spacing:0px;fill:#ff00ff;stroke-width:1.46977;paint-order:markers fill stroke"
     d="M 6.8574218,0 V 4.341797 H 3.0078124 v 5.330078 h 4.5878907 v 3.701172 H 3.0078124 v 3.107421 h 1.1835938 v 7.976563 H 0.046875 v 2.681641 h 2.3691405 v 8.289062 h 2.2207031 v 6.810552 H 0 v 6.67382 h 15.878907 c 0.848682,0 1.669899,-0.0401 2.462891,-0.12109 2.378973,-0.24297 4.506775,-0.85075 6.382812,-1.82227 2.231521,-1.17448 3.99063,-2.7669 5.330078,-4.73046 h 4.636719 c 0.188791,-0.27676 0.395348,-0.53763 0.566406,-0.83008 1.073855,-1.778589 1.743092,-3.773019 2.009766,-5.980472 h -2.220703 c 0.08828,-0.730785 0.132812,-1.484052 0.132812,-2.261719 v -6.027343 h -2.36914 v -2.681641 h 4.144531 v -7.976563 h -1.183594 v -0.800781 c 0,-0.795769 -0.04491,-1.564206 -0.134765,-2.30664 h 4.58789 C 40.14475,12.713187 40.028043,12.075449 39.875001,11.458984 39.721958,10.84252 39.532575,10.247326 39.310548,9.671875 H 34.722657 C 34.647227,9.476383 34.569169,9.282932 34.486329,9.091797 34.237807,8.518389 33.95378,7.965415 33.628907,7.4375 32.949604,6.276111 32.128825,5.245195 31.169923,4.341797 h 3.849609 C 34.023814,3.403714 32.879024,2.603234 31.582032,1.943359 29.080662,0.648006 26.131033,0 22.736329,0 Z m 6.2011722,9.044922 h 5.828126 c 1.140387,0 2.144627,0.224114 3.041015,0.626953 h 4.587891 c 0.683559,0.30719 1.310456,0.708893 1.851562,1.25 0.739412,0.68842 1.243116,1.515122 1.560547,2.451172 h -4.587891 c 0.238665,0.703775 0.382813,1.463154 0.382813,2.30664 v 0.800781 h 1.183594 v 7.976563 H 22.76172 v 2.681641 h 2.36914 v 6.027343 c 0,0.821492 -0.140812,1.565066 -0.367187,2.261719 h 2.220703 c -0.315218,0.970049 -0.822256,1.834579 -1.576172,2.5625 -1.25069,1.25069 -2.88255,1.876953 -4.892578,1.876953 h -5.828125 v -4.439453 h -2.220703 v -8.289062 h -2.369142 v -2.681641 h 4.144532 v -7.976563 h -1.183594 v -3.107421 h 4.587891 V 9.671875 h -4.587891 z m 50.685547,2.345703 c -3.260711,0 -6.119478,0.626267 -8.576171,1.876953 -0.06515,0.03258 -0.123185,0.07209 -0.1875,0.105469 h -4.587891 c -1.172904,0.608773 -2.210265,1.347065 -3.121094,2.207031 -0.30361,0.286655 -0.593392,0.587064 -0.869141,0.90039 h 1.183594 c -0.530949,0.603309 -1.027497,1.239186 -1.451172,1.945313 -0.781606,1.320644 -1.316484,2.786398 -1.621093,4.386719 -0.101537,0.53344 -0.177567,1.081448 -0.228516,1.644531 h -4.144531 c -0.04952,0.547256 -0.09375,1.097553 -0.09375,1.673828 v 1.007813 h 2.36914 v 7.703125 c 0,0.201326 0.02501,0.388055 0.03125,0.585937 h 2.220704 c 0.06014,1.907748 0.396972,3.663925 1.015624,5.263672 0.206218,0.53325 0.443909,1.04829 0.712891,1.54688 h -4.636719 c 0.066,0.12232 0.113836,0.25472 0.183594,0.375 1.340023,2.18867 3.216859,3.90945 5.628906,5.16015 2.456712,1.20603 5.315443,1.80859 8.576172,1.80859 3.975409,1e-5 7.369542,-0.98387 10.183594,-2.94921 1.750662,-1.22269 3.095096,-2.68802 4.033203,-4.39453 h 4.636719 c 0.569825,-1.0366 0.989701,-2.161655 1.259766,-3.376958 h -9.84961 c -0.178671,0.893348 -0.802981,1.563081 -1.875,2.009768 -1.072019,0.44668 -2.322598,0.66992 -3.751953,0.66992 -2.188705,0 -3.842297,-0.53539 -4.958984,-1.607422 -0.975389,-0.975393 -1.484438,-2.495135 -1.572266,-4.50586 h -2.220703 c -0.0087,-0.199196 -0.03516,-0.376577 -0.03516,-0.585937 v -1.876953 h 22.580078 v -5.826172 h -2.369141 v -1.007813 c 0,-0.576291 -0.04635,-1.126558 -0.09766,-1.673828 h 4.144531 C 76.203072,23.893952 76.124649,23.34594 76.019532,22.8125 75.70418,21.212179 75.150351,19.746416 74.341798,18.425781 73.932262,17.719688 73.446859,17.083753 72.925782,16.480468 h -1.183594 c -1.082503,-1.25328 -2.39414,-2.295728 -3.957031,-3.107421 h 4.587891 c -0.06436,-0.03343 -0.122263,-0.07285 -0.1875,-0.105469 -2.367368,-1.250686 -5.180704,-1.876953 -8.441407,-1.876953 z m 78.390619,0 c -3.51566,0 -6.38152,0.506417 -8.60156,1.517578 -0.31715,0.144451 -0.62132,0.299825 -0.91211,0.464844 h -4.58789 c -1.05272,0.597407 -1.93286,1.328735 -2.64062,2.195312 -0.23593,0.288859 -0.4528,0.593343 -0.65039,0.912109 h 1.18359 c -1.01609,1.639165 -1.5332,3.667519 -1.5332,6.09961 0,0.651089 0.0547,1.272095 0.13672,1.876953 h -4.14454 c 0.0642,0.473259 0.14997,0.933479 0.25977,1.380859 0.1098,0.44738 0.24364,0.881922 0.4043,1.300782 h 2.36914 c 0.43125,1.124311 1.02827,2.155052 1.8125,3.080078 1.74204,2.010034 4.24317,3.215184 7.5039,3.617187 l 8.44336,1.00586 c 0.53925,0.0583 1.02859,0.138021 1.47266,0.236328 0.44406,0.09831 0.84285,0.215193 1.20117,0.349609 h 2.2207 c 0.38156,0.143135 0.73042,0.300096 1.00977,0.486328 0.80402,0.491345 1.20704,1.295423 1.20703,2.41211 1e-5,1.161348 -0.51366,2.05437 -1.54101,2.679684 -0.98269,0.62536 -2.38939,0.9375 -4.22071,0.9375 h -2.94922 c -1.69736,0 -3.0151,-0.31214 -3.95312,-0.9375 -0.93802,-0.625314 -1.40625,-1.563761 -1.40625,-2.81445 h -9.84961 c 0,1.10645 0.16206,2.135941 0.46484,3.10156 0.10093,0.32188 0.21856,0.6374 0.34961,0.94532 h -4.63672 c 0.28525,0.6702 0.61981,1.31787 1.06055,1.91601 1.29537,1.69738 3.08328,3.03684 5.36133,4.01953 1.70853,0.70352 3.6301,1.14411 5.76562,1.32031 0.71185,0.0587 1.44768,0.0879 2.20704,0.0879 h 2.94921 c 0.63093,0 1.24341,-0.0161 1.83594,-0.0469 4.14775,-0.21519 7.35421,-1.18266 9.62109,-2.90234 1.52547,-1.18356 2.58799,-2.6537 3.21485,-4.39453 h 4.63672 c 0.10943,-0.30392 0.20574,-0.6154 0.28906,-0.93555 0.24997,-0.960466 0.38086,-1.995579 0.38086,-3.11133 0,-0.977686 -0.0826,-1.894217 -0.23047,-2.763672 h -2.2207 c -0.0931,-0.547299 -0.21435,-1.073061 -0.36524,-1.578125 -0.45266,-1.515191 -1.1673,-2.839846 -2.15039,-3.966797 -1.02823,-1.178703 -2.3481,-2.08662 -3.93945,-2.74414 h -2.36914 c -0.31075,-0.128395 -0.63161,-0.247944 -0.96289,-0.357422 -0.99384,-0.328436 -2.08147,-0.569883 -3.27149,-0.716797 l -8.04101,-1.005859 c -1.12291,-0.140365 -1.99558,-0.351271 -2.73242,-0.601563 h 4.14453 c -0.20109,-0.06831 -0.44481,-0.124557 -0.61719,-0.201172 -0.75935,-0.357342 -1.13867,-1.050776 -1.13867,-2.078125 0,-1.027349 0.40106,-1.831437 1.20508,-2.412109 0.80402,-0.58068 1.98748,-0.871094 3.55078,-0.871094 h 3.15039 c 1.56337,0 2.76851,0.290414 3.61719,0.871094 0.89334,0.580672 1.33984,1.406498 1.33984,2.478515 h 9.84961 c 0,-0.557102 -0.0377,-1.09495 -0.11524,-1.613281 -0.23254,-1.554993 -0.81309,-2.936283 -1.72656,-4.150391 h -1.18359 c -0.29432,-0.391175 -0.62072,-0.765729 -0.98242,-1.123046 -0.36171,-0.357317 -0.7587,-0.6974 -1.19532,-1.017578 -0.48924,-0.358789 -1.02003,-0.673446 -1.57031,-0.966797 h 4.58789 c -2.46403,-1.313574 -5.52895,-1.982422 -9.2168,-1.982422 z m -56.749994,0.669922 0.4375,1.3125 h -4.58789 l 1.033203,3.107421 h 1.183594 l 2.654297,7.976563 h -4.144532 l 0.892578,2.681641 h 2.369141 l 2.757813,8.289062 h 2.220703 l 2.265625,6.810552 h -4.636719 l 2.220703,6.67382 h 12.595698 l 2.19532,-6.67382 h 4.63671 l 2.24219,-6.810552 H 109.5 l 2.72656,-8.289062 h -2.36914 l 0.88281,-2.681641 h 4.14453 l 2.625,-7.976563 h -1.18359 l 1.02344,-3.107421 h 4.58789 l 0.43164,-1.3125 h -10.51758 l -0.39844,1.3125 h -4.58789 l -0.9414,3.107421 h 1.18359 l -2.41992,7.976563 h -4.14453 l -0.812498,2.681641 h 2.369138 l -1.72656,5.693359 c -0.24291,0.819832 -0.461078,1.71416 -0.683598,2.595703 h -1.904295 c -0.23513,-0.90667 -0.484049,-1.800204 -0.761719,-2.664062 l -1.748047,-5.625 h -2.36914 l -0.833985,-2.681641 h 4.144532 l -2.478516,-7.976563 h -1.183594 l -0.964844,-3.107421 h 4.587891 l -0.408203,-1.3125 z m -25.044922,6.767578 c 2.188701,0 3.79687,0.624312 4.824219,1.875 0.816007,0.95201 1.317017,2.206125 1.511719,3.753906 h -4.144531 c 0.06108,0.485582 0.0957,0.997004 0.0957,1.541016 v 0.871093 l -12.998047,0.132813 v -0.871094 c 1e-6,-0.592019 0.03899,-1.148251 0.111328,-1.673828 h 4.144531 c 0.05151,-0.374199 0.121055,-0.731483 0.208985,-1.072266 0.26379,-1.022347 0.692045,-1.894245 1.287109,-2.613281 1.116685,-1.295355 2.770284,-1.943359 4.958984,-1.943359 z m 39.666016,16.599609 h 1.90429 c -0.10481,0.415258 -0.22213,0.793561 -0.32226,1.222656 -0.15634,0.670013 -0.28463,1.318045 -0.38477,1.94336 -0.10014,0.625315 -0.17213,1.227916 -0.21679,1.808594 -0.0893,-1.161355 -0.31259,-2.411929 -0.66992,-3.751954 -0.0967,-0.414455 -0.20526,-0.816658 -0.31055,-1.222656 z" /><path
     id="path104"
     style="font-weight:800;font-size:67.0016px;font-family:'JetBrainsMono Nerd Font';-inkscape-font-specification:'JetBrainsMono Nerd Font, Ultra-Bold';font-variant-ligatures:discretionary-ligatures;letter-spacing:0px;word-spacing:0px;fill:#2a7fff;stroke-width:1.46977;paint-order:markers fill stroke"
     d="M 11.001954,0 V 4.341797 H 7.1523442 v 5.330078 h 4.5878908 v 3.701172 H 7.1523442 v 3.107421 H 8.335938 v 7.976563 H 4.1914068 v 2.681641 h 2.3691406 v 8.289062 h 2.2207031 v 6.810552 H 4.1445318 v 6.67382 H 20.023438 c 0.848682,0 1.669899,-0.0401 2.462891,-0.12109 2.378973,-0.24297 4.506775,-0.85075 6.382812,-1.82227 2.231521,-1.17448 3.99063,-2.7669 5.330078,-4.73046 h 4.636719 c 0.188791,-0.27676 0.395348,-0.53763 0.566406,-0.83008 1.073855,-1.778589 1.743092,-3.773019 2.009766,-5.980472 h -2.220703 c 0.08828,-0.730785 0.132812,-1.484052 0.132812,-2.261719 v -6.027343 h -2.36914 v -2.681641 h 4.144531 v -7.976563 h -1.183594 v -0.800781 c 0,-0.795769 -0.04491,-1.564206 -0.134765,-2.30664 h 4.58789 C 44.289281,12.713187 44.172574,12.075449 44.019532,11.458984 43.866489,10.84252 43.677106,10.247326 43.455079,9.671875 H 38.867188 C 38.791758,9.476383 38.7137,9.282932 38.63086,9.091797 38.382338,8.518389 38.098311,7.965415 37.773438,7.4375 37.094135,6.276111 36.273356,5.245195 35.314454,4.341797 h 3.849609 C 38.168345,3.403714 37.023555,2.603234 35.726563,1.943359 33.225193,0.648006 30.275564,0 26.88086,0 Z m 6.201171,9.044922 h 5.828126 c 1.140387,0 2.144627,0.224114 3.041015,0.626953 h 4.587891 c 0.683559,0.30719 1.310456,0.708893 1.851562,1.25 0.739412,0.68842 1.243116,1.515122 1.560547,2.451172 h -4.587891 c 0.238665,0.703775 0.382813,1.463154 0.382813,2.30664 v 0.800781 h 1.183594 v 7.976563 h -4.144531 v 2.681641 h 2.36914 v 6.027343 c 0,0.821492 -0.140812,1.565066 -0.367187,2.261719 h 2.220703 c -0.315218,0.970049 -0.822256,1.834579 -1.576172,2.5625 -1.25069,1.25069 -2.88255,1.876953 -4.892578,1.876953 h -5.828125 v -4.439453 h -2.220703 v -8.289062 h -2.369141 v -2.681641 h 4.144531 v -7.976563 h -1.183594 v -3.107421 h 4.587891 V 9.671875 h -4.587891 z m 50.685547,2.345703 c -3.260711,0 -6.119478,0.626267 -8.576171,1.876953 -0.06515,0.03258 -0.123185,0.07209 -0.1875,0.105469 H 54.53711 c -1.172904,0.608773 -2.210265,1.347065 -3.121094,2.207031 -0.30361,0.286655 -0.593392,0.587064 -0.869141,0.90039 h 1.183594 c -0.530949,0.603309 -1.027497,1.239186 -1.451172,1.945313 -0.781606,1.320644 -1.316484,2.786398 -1.621093,4.386719 -0.101537,0.53344 -0.177567,1.081448 -0.228516,1.644531 h -4.144531 c -0.04952,0.547256 -0.09375,1.097553 -0.09375,1.673828 v 1.007813 h 2.36914 v 7.703125 c 0,0.201326 0.02501,0.388055 0.03125,0.585937 h 2.220704 c 0.06014,1.907748 0.396972,3.663925 1.015624,5.263672 0.206218,0.53325 0.443909,1.04829 0.712891,1.54688 h -4.636719 c 0.066,0.12232 0.113836,0.25472 0.183594,0.375 1.340023,2.18867 3.216859,3.90945 5.628906,5.16015 2.456712,1.20603 5.315443,1.80859 8.576172,1.80859 3.975409,1e-5 7.369542,-0.98387 10.183594,-2.94921 1.750662,-1.22269 3.095096,-2.68802 4.033203,-4.39453 h 4.636719 c 0.569825,-1.0366 0.989701,-2.161655 1.259766,-3.376958 h -9.84961 c -0.178671,0.893348 -0.802981,1.563081 -1.875,2.009768 -1.072019,0.44668 -2.322598,0.66992 -3.751953,0.66992 -2.188705,0 -3.842297,-0.53539 -4.958984,-1.607422 -0.975389,-0.975393 -1.484438,-2.495135 -1.572266,-4.50586 h -2.220703 c -0.0087,-0.199196 -0.03516,-0.376577 -0.03516,-0.585937 v -1.876953 h 22.580078 v -5.826172 h -2.369141 v -1.007813 c 0,-0.576291 -0.04635,-1.126558 -0.09766,-1.673828 h 4.144531 C 80.347593,23.893952 80.269172,23.34594 80.164055,22.8125 79.848703,21.212179 79.294874,19.746416 78.486321,18.425781 78.076785,17.719688 77.591382,17.083753 77.070305,16.480468 h -1.183594 c -1.082503,-1.25328 -2.39414,-2.295728 -3.957031,-3.107421 h 4.587891 c -0.06436,-0.03343 -0.122263,-0.07285 -0.1875,-0.105469 -2.367368,-1.250686 -5.180704,-1.876953 -8.441407,-1.876953 z m 78.390618,0 c -3.51566,0 -6.38152,0.506417 -8.60156,1.517578 -0.31715,0.144451 -0.62132,0.299825 -0.91211,0.464844 h -4.58789 c -1.05272,0.597407 -1.93286,1.328735 -2.64062,2.195312 -0.23593,0.288859 -0.4528,0.593343 -0.65039,0.912109 h 1.18359 c -1.01609,1.639165 -1.5332,3.667519 -1.5332,6.09961 0,0.651089 0.0547,1.272095 0.13672,1.876953 h -4.14454 c 0.0642,0.473259 0.14997,0.933479 0.25977,1.380859 0.1098,0.44738 0.24364,0.881922 0.4043,1.300782 h 2.36914 c 0.43125,1.124311 1.02827,2.155052 1.8125,3.080078 1.74204,2.010034 4.24317,3.215184 7.5039,3.617187 l 8.44336,1.00586 c 0.53925,0.0583 1.02859,0.138021 1.47266,0.236328 0.44406,0.09831 0.84285,0.215193 1.20117,0.349609 h 2.2207 c 0.38156,0.143135 0.73042,0.300096 1.00977,0.486328 0.80402,0.491345 1.20704,1.295423 1.20703,2.41211 1e-5,1.161348 -0.51366,2.05437 -1.54101,2.679684 -0.98269,0.62536 -2.38939,0.9375 -4.22071,0.9375 h -2.94922 c -1.69736,0 -3.0151,-0.31214 -3.95312,-0.9375 -0.93802,-0.625314 -1.40625,-1.563761 -1.40625,-2.81445 h -9.84961 c 0,1.10645 0.16206,2.135941 0.46484,3.10156 0.10093,0.32188 0.21856,0.6374 0.34961,0.94532 h -4.63672 c 0.28525,0.6702 0.61981,1.31787 1.06055,1.91601 1.29537,1.69738 3.08328,3.03684 5.36133,4.01953 1.70853,0.70352 3.6301,1.14411 5.76562,1.32031 0.71185,0.0587 1.44768,0.0879 2.20704,0.0879 h 2.94921 c 0.63093,0 1.24341,-0.0161 1.83594,-0.0469 4.14775,-0.21519 7.35421,-1.18266 9.62109,-2.90234 1.52547,-1.18356 2.58799,-2.6537 3.21485,-4.39453 h 4.63672 c 0.10943,-0.30392 0.20574,-0.6154 0.28906,-0.93555 0.24997,-0.960466 0.38086,-1.995579 0.38086,-3.11133 0,-0.977686 -0.0826,-1.894217 -0.23047,-2.763672 h -2.2207 c -0.0931,-0.547299 -0.21435,-1.073061 -0.36524,-1.578125 -0.45266,-1.515191 -1.1673,-2.839846 -2.15039,-3.966797 -1.02823,-1.178703 -2.3481,-2.08662 -3.93945,-2.74414 h -2.36914 c -0.31075,-0.128395 -0.63161,-0.247944 -0.96289,-0.357422 -0.99384,-0.328436 -2.08147,-0.569883 -3.27149,-0.716797 l -8.04101,-1.005859 c -1.12291,-0.140365 -1.99558,-0.351271 -2.73242,-0.601563 h 4.14453 c -0.20109,-0.06831 -0.44481,-0.124557 -0.61719,-0.201172 -0.75935,-0.357342 -1.13867,-1.050776 -1.13867,-2.078125 0,-1.027349 0.40106,-1.831437 1.20508,-2.412109 0.80402,-0.58068 1.98748,-0.871094 3.55078,-0.871094 h 3.15039 c 1.56337,0 2.76851,0.290414 3.61719,0.871094 0.89334,0.580672 1.33984,1.406498 1.33984,2.478515 h 9.84961 c 0,-0.557102 -0.0377,-1.09495 -0.11524,-1.613281 -0.23254,-1.554993 -0.81309,-2.936283 -1.72656,-4.150391 h -1.18359 c -0.29432,-0.391175 -0.62072,-0.765729 -0.98242,-1.123046 -0.36171,-0.357317 -0.7587,-0.6974 -1.19532,-1.017578 -0.48924,-0.358789 -1.02003,-0.673446 -1.57031,-0.966797 h 4.58789 c -2.46403,-1.313574 -5.52895,-1.982422 -9.2168,-1.982422 z m -56.749993,0.669922 0.4375,1.3125 h -4.58789 l 1.033203,3.107421 h 1.183594 l 2.654297,7.976563 h -4.144532 l 0.892578,2.681641 h 2.369141 l 2.757813,8.289062 h 2.220703 l 2.265625,6.810552 H 91.97461 l 2.220703,6.67382 h 12.595697 l 2.19532,-6.67382 h 4.63671 l 2.24219,-6.810552 h -2.2207 l 2.72656,-8.289062 h -2.36914 l 0.88281,-2.681641 h 4.14453 l 2.625,-7.976563 h -1.18359 l 1.02344,-3.107421 h 4.58789 l 0.43164,-1.3125 h -10.51758 l -0.39844,1.3125 h -4.58789 l -0.9414,3.107421 h 1.18359 l -2.41992,7.976563 h -4.14453 l -0.8125,2.681641 h 2.36914 l -1.72656,5.693359 c -0.24291,0.819832 -0.46108,1.71416 -0.6836,2.595703 h -1.9043 c -0.23513,-0.90667 -0.48404,-1.800204 -0.76171,-2.664062 l -1.748046,-5.625 h -2.369142 l -0.833985,-2.681641 h 4.144533 l -2.478517,-7.976563 h -1.183594 l -0.964844,-3.107421 h 4.587885 l -0.408196,-1.3125 z m -25.044922,6.767578 c 2.188701,0 3.79687,0.624312 4.824219,1.875 0.816007,0.95201 1.317017,2.206125 1.511719,3.753906 h -4.144531 c 0.06108,0.485582 0.0957,0.997004 0.0957,1.541016 v 0.871093 l -12.998047,0.132813 v -0.871094 c 10e-7,-0.592019 0.03899,-1.148251 0.111328,-1.673828 h 4.144531 c 0.05151,-0.374199 0.121055,-0.731483 0.208985,-1.072266 0.26379,-1.022347 0.692045,-1.894245 1.287109,-2.613281 1.116685,-1.295355 2.770284,-1.943359 4.958984,-1.943359 z m 39.666015,16.599609 h 1.90429 c -0.10481,0.415258 -0.22213,0.793561 -0.32226,1.222656 -0.15634,0.670013 -0.28463,1.318045 -0.38477,1.94336 -0.10014,0.625315 -0.17213,1.227916 -0.21679,1.808594 -0.0893,-1.161355 -0.31259,-2.411929 -0.66992,-3.751954 -0.0967,-0.414455 -0.20526,-0.816658 -0.31055,-1.222656 z" /><path
     id="path31"
     style="font-weight:800;font-size:67.0016px;font-family:'JetBrainsMono Nerd Font';-inkscape-font-specification:'JetBrainsMono Nerd Font, Ultra-Bold';font-variant-ligatures:discretionary-ligatures;letter-spacing:0px;word-spacing:0px;fill:#000000;stroke-width:1.46977;paint-order:markers fill stroke"
     d="M 8.2753906,0 V 4.341797 H 4.4257812 v 5.330078 h 4.5878907 v 3.701172 H 4.4257812 v 3.107421 H 5.609375 v 7.976563 H 1.4648438 v 2.681641 h 2.3691406 v 8.289062 h 2.2207031 v 6.810552 H 1.4179688 v 6.67382 H 17.296875 c 0.848682,0 1.669899,-0.0401 2.462891,-0.12109 2.378973,-0.24297 4.506775,-0.85075 6.382812,-1.82227 2.231521,-1.17448 3.99063,-2.7669 5.330078,-4.73046 h 4.636719 c 0.188791,-0.27676 0.395348,-0.53763 0.566406,-0.83008 1.073855,-1.778589 1.743092,-3.773019 2.009766,-5.980472 h -2.220703 c 0.08828,-0.730785 0.132812,-1.484052 0.132812,-2.261719 v -6.027343 h -2.36914 v -2.681641 h 4.144531 v -7.976563 h -1.183594 v -0.800781 c 0,-0.795769 -0.04491,-1.564206 -0.134765,-2.30664 h 4.58789 C 41.562718,12.713187 41.446011,12.075449 41.292969,11.458984 41.139926,10.84252 40.950543,10.247326 40.728516,9.671875 H 36.140625 C 36.065195,9.476383 35.987137,9.282932 35.904297,9.091797 35.655775,8.518389 35.371748,7.965415 35.046875,7.4375 34.367572,6.276111 33.546793,5.245195 32.587891,4.341797 H 36.4375 C 35.441782,3.403714 34.296992,2.603234 33,1.943359 30.49863,0.648006 27.549001,0 24.154297,0 Z m 6.2011714,9.044922 h 5.828126 c 1.140387,0 2.144627,0.224114 3.041015,0.626953 h 4.587891 c 0.683559,0.30719 1.310456,0.708893 1.851562,1.25 0.739412,0.68842 1.243116,1.515122 1.560547,2.451172 h -4.587891 c 0.238665,0.703775 0.382813,1.463154 0.382813,2.30664 v 0.800781 h 1.183594 v 7.976563 h -4.144531 v 2.681641 h 2.36914 v 6.027343 c 0,0.821492 -0.140812,1.565066 -0.367187,2.261719 h 2.220703 c -0.315218,0.970049 -0.822256,1.834579 -1.576172,2.5625 -1.25069,1.25069 -2.88255,1.876953 -4.892578,1.876953 h -5.828125 v -4.439453 h -2.220703 v -8.289062 h -2.369141 v -2.681641 h 4.144531 v -7.976563 h -1.183594 v -3.107421 h 4.587891 V 9.671875 h -4.587891 z m 50.685547,2.345703 c -3.260711,0 -6.119478,0.626267 -8.576171,1.876953 -0.06515,0.03258 -0.123185,0.07209 -0.1875,0.105469 h -4.587891 c -1.172904,0.608773 -2.210265,1.347065 -3.121094,2.207031 -0.30361,0.286655 -0.593392,0.587064 -0.869141,0.90039 h 1.183594 c -0.530949,0.603309 -1.027497,1.239186 -1.451172,1.945313 -0.781606,1.320644 -1.316484,2.786398 -1.621093,4.386719 -0.101537,0.53344 -0.177567,1.081448 -0.228516,1.644531 h -4.144531 c -0.04952,0.547256 -0.09375,1.097553 -0.09375,1.673828 v 1.007813 h 2.36914 v 7.703125 c 0,0.201326 0.02501,0.388055 0.03125,0.585937 h 2.220704 c 0.06014,1.907748 0.396972,3.663925 1.015624,5.263672 0.206218,0.53325 0.443909,1.04829 0.712891,1.54688 h -4.636719 c 0.066,0.12232 0.113836,0.25472 0.183594,0.375 1.340023,2.18867 3.216859,3.90945 5.628906,5.16015 2.456712,1.20603 5.315443,1.80859 8.576172,1.80859 3.975409,1e-5 7.369542,-0.98387 10.183594,-2.94921 1.750662,-1.22269 3.095096,-2.68802 4.033203,-4.39453 h 4.636719 c 0.569825,-1.0366 0.989701,-2.161655 1.259766,-3.376958 h -9.84961 c -0.178671,0.893348 -0.802981,1.563081 -1.875,2.009768 -1.072019,0.44668 -2.322598,0.66992 -3.751953,0.66992 -2.188705,0 -3.842297,-0.53539 -4.958984,-1.607422 -0.975389,-0.975393 -1.484438,-2.495135 -1.572266,-4.50586 h -2.220703 c -0.0087,-0.199196 -0.03516,-0.376577 -0.03516,-0.585937 V 32.964844 H 75.99609 v -5.826172 h -2.369141 v -1.007813 c 0,-0.576291 -0.04635,-1.126558 -0.09766,-1.673828 H 77.67382 C 77.621036,23.893952 77.542617,23.34594 77.4375,22.8125 77.122148,21.212179 76.568319,19.746416 75.759766,18.425781 75.35023,17.719688 74.864827,17.083753 74.34375,16.480468 h -1.183594 c -1.082503,-1.25328 -2.39414,-2.295728 -3.957031,-3.107421 h 4.587891 c -0.06436,-0.03343 -0.122263,-0.07285 -0.1875,-0.105469 -2.367368,-1.250686 -5.180704,-1.876953 -8.441407,-1.876953 z m 78.390621,0 c -3.51566,0 -6.38152,0.506417 -8.60156,1.517578 -0.31715,0.144451 -0.62132,0.299825 -0.91211,0.464844 h -4.58789 c -1.05272,0.597407 -1.93286,1.328735 -2.64062,2.195312 -0.23593,0.288859 -0.4528,0.593343 -0.65039,0.912109 h 1.18359 c -1.01609,1.639165 -1.5332,3.667519 -1.5332,6.09961 0,0.651089 0.0547,1.272095 0.13672,1.876953 h -4.14454 c 0.0642,0.473259 0.14997,0.933479 0.25977,1.380859 0.1098,0.44738 0.24364,0.881922 0.4043,1.300782 h 2.36914 c 0.43125,1.124311 1.02827,2.155052 1.8125,3.080078 1.74204,2.010034 4.24317,3.215184 7.5039,3.617187 l 8.44336,1.00586 c 0.53925,0.0583 1.02859,0.138021 1.47266,0.236328 0.44406,0.09831 0.84285,0.215193 1.20117,0.349609 h 2.2207 c 0.38156,0.143135 0.73042,0.300096 1.00977,0.486328 0.80402,0.491345 1.20704,1.295423 1.20703,2.41211 1e-5,1.161348 -0.51366,2.05437 -1.54101,2.679684 -0.98269,0.62536 -2.38939,0.9375 -4.22071,0.9375 h -2.94922 c -1.69736,0 -3.0151,-0.31214 -3.95312,-0.9375 -0.93802,-0.625314 -1.40625,-1.563761 -1.40625,-2.81445 h -9.84961 c 0,1.10645 0.16206,2.135941 0.46484,3.10156 0.10093,0.32188 0.21856,0.6374 0.34961,0.94532 h -4.63672 c 0.28525,0.6702 0.61981,1.31787 1.06055,1.91601 1.29537,1.69738 3.08328,3.03684 5.36133,4.01953 1.70853,0.70352 3.6301,1.14411 5.76562,1.32031 0.71185,0.0587 1.44768,0.0879 2.20704,0.0879 h 2.94921 c 0.63093,0 1.24341,-0.0161 1.83594,-0.0469 4.14775,-0.21519 7.35421,-1.18266 9.62109,-2.90234 1.52547,-1.18356 2.58799,-2.6537 3.21485,-4.39453 h 4.63672 c 0.10943,-0.30392 0.20574,-0.6154 0.28906,-0.93555 0.24997,-0.960466 0.38086,-1.995579 0.38086,-3.11133 0,-0.977686 -0.0826,-1.894217 -0.23047,-2.763672 h -2.2207 c -0.0931,-0.547299 -0.21435,-1.073061 -0.36524,-1.578125 -0.45266,-1.515191 -1.1673,-2.839846 -2.15039,-3.966797 -1.02823,-1.178703 -2.3481,-2.08662 -3.93945,-2.74414 h -2.36914 c -0.31075,-0.128395 -0.63161,-0.247944 -0.96289,-0.357422 -0.99384,-0.328436 -2.08147,-0.569883 -3.27149,-0.716797 l -8.04101,-1.005859 c -1.12291,-0.140365 -1.99558,-0.351271 -2.73242,-0.601563 h 4.14453 c -0.20109,-0.06831 -0.44481,-0.124557 -0.61719,-0.201172 -0.75935,-0.357342 -1.13867,-1.050776 -1.13867,-2.078125 0,-1.027349 0.40106,-1.831437 1.20508,-2.412109 0.80402,-0.58068 1.98748,-0.871094 3.55078,-0.871094 h 3.15039 c 1.56337,0 2.76851,0.290414 3.61719,0.871094 0.89334,0.580672 1.33984,1.406498 1.33984,2.478515 h 9.84961 c 0,-0.557102 -0.0377,-1.09495 -0.11524,-1.613281 -0.23254,-1.554993 -0.81309,-2.936283 -1.72656,-4.150391 h -1.18359 c -0.29432,-0.391175 -0.62072,-0.765729 -0.98242,-1.123046 -0.36171,-0.357317 -0.7587,-0.6974 -1.19532,-1.017578 -0.48924,-0.358789 -1.02003,-0.673446 -1.57031,-0.966797 h 4.58789 c -2.46403,-1.313574 -5.52895,-1.982422 -9.2168,-1.982422 z m -56.749996,0.669922 0.4375,1.3125 h -4.58789 l 1.033203,3.107421 h 1.183594 l 2.654297,7.976563 h -4.144532 l 0.892578,2.681641 h 2.369141 l 2.757813,8.289062 h 2.220703 l 2.265625,6.810552 h -4.636719 l 2.220703,6.67382 h 12.5957 l 2.19532,-6.67382 h 4.63671 l 2.24219,-6.810552 h -2.2207 l 2.72656,-8.289062 h -2.36914 l 0.88281,-2.681641 h 4.14453 l 2.625,-7.976563 h -1.18359 l 1.02344,-3.107421 h 4.58789 l 0.43164,-1.3125 h -10.51758 l -0.39844,1.3125 h -4.58789 l -0.9414,3.107421 h 1.18359 l -2.41992,7.976563 h -4.14453 l -0.8125,2.681641 h 2.36914 l -1.72656,5.693359 c -0.24291,0.819832 -0.46108,1.71416 -0.6836,2.595703 h -1.904295 c -0.23513,-0.90667 -0.484049,-1.800204 -0.761719,-2.664062 l -1.748047,-5.625 h -2.36914 l -0.833985,-2.681641 h 4.144532 L 95.15625,16.480468 h -1.183594 l -0.964844,-3.107421 h 4.587891 l -0.408203,-1.3125 z m -25.044922,6.767578 c 2.188701,0 3.79687,0.624312 4.824219,1.875 0.816007,0.95201 1.317017,2.206125 1.511719,3.753906 h -4.144531 c 0.06108,0.485582 0.0957,0.997004 0.0957,1.541016 v 0.871093 l -12.998047,0.132813 v -0.871094 c 10e-7,-0.592019 0.03899,-1.148251 0.111328,-1.673828 h 4.144531 c 0.05151,-0.374199 0.121055,-0.731483 0.208985,-1.072266 0.26379,-1.022347 0.692045,-1.894245 1.287109,-2.613281 1.116685,-1.295355 2.770284,-1.943359 4.958984,-1.943359 z m 39.666018,16.599609 h 1.90429 c -0.10481,0.415258 -0.22213,0.793561 -0.32226,1.222656 -0.15634,0.670013 -0.28463,1.318045 -0.38477,1.94336 -0.10014,0.625315 -0.17213,1.227916 -0.21679,1.808594 -0.0893,-1.161355 -0.31259,-2.411929 -0.66992,-3.751954 -0.0967,-0.414455 -0.20526,-0.816658 -0.31055,-1.222656 z" /><path
     id="forge-text"
     style="font-weight:300;font-size:67.0016px;font-family:'JetBrainsMono Nerd Font';-inkscape-font-specification:'JetBrainsMono Nerd Font, Light';font-variant-ligatures:discretionary-ligatures;letter-spacing:0px;word-spacing:0px;mix-blend-mode:normal;fill:#000000;stroke-width:1.46977;paint-order:markers fill stroke"
     d="m 185.66641,5.75e-4 c -3.08206,0 -5.51797,0.825811 -7.30468,2.478516 -1.74204,1.608037 -2.61328,3.818748 -2.61328,6.632812 v 7.97461 h -10.85352 v 4.824218 h 10.85352 v 27.001955 h 5.36132 V 21.910731 h 15.20899 v -4.824218 h -15.20899 v -7.97461 c 0,-2.858732 1.51925,-4.287109 4.55664,-4.287109 h 126.4043 V 5.75e-4 Z M 264.52579,11.3912 c -2.7694,0 -5.02358,0.669735 -6.76563,2.009766 -1.69737,1.34003 -2.74838,3.171421 -3.15039,5.49414 v -6.833984 h -5.35937 v 36.851564 h 5.35937 V 25.260341 c 0,-2.948068 0.71517,-5.225948 2.14453,-6.833985 1.42937,-1.608036 3.50574,-2.412109 6.23047,-2.412109 5.49413,0 8.24219,2.858707 8.24219,8.576172 v 3.216797 h 5.29297 v -3.216797 c 0,-4.198763 -1.02732,-7.436792 -3.08203,-9.714844 -2.05472,-2.32272 -5.02603,-3.484375 -8.91211,-3.484375 z m 35.51172,0 c -3.75209,0 -6.72339,1.228824 -8.91211,3.685547 -2.18872,2.456722 -3.2832,5.761921 -3.2832,9.916016 v 7.83789 c 0,4.198763 1.09448,7.503957 3.2832,9.916013 2.18872,2.36739 5.16002,3.55274 8.91211,3.55274 2.68007,0 4.89077,-0.60452 6.63281,-1.81055 1.74204,-1.20603 2.83652,-2.87939 3.2832,-5.023437 h 0.13477 l -0.13477,6.431637 v 3.28321 c 0,2.18871 -0.6243,3.88576 -1.875,5.09179 -1.25068,1.2507 -2.99317,1.875 -5.22656,1.875 H 168.07071 v 4.82422 H 302.7836 c 3.88609,0 6.92457,-1.04906 9.11328,-3.14844 2.23339,-2.05471 3.34961,-4.93516 3.34961,-8.64257 V 12.061122 h -5.22656 v 6.365234 h -0.0664 c -0.44668,-2.188717 -1.54116,-3.90946 -3.2832,-5.160156 -1.74204,-1.250696 -3.95274,-1.875 -6.63281,-1.875 z m 41.875,0 c -4.2881,0 -7.70394,1.29404 -10.25,3.884766 -2.54607,2.546058 -3.82031,6.052762 -3.82031,10.519531 v 9.380859 c 0,4.466766 1.27424,7.99521 3.82031,10.58594 2.54606,2.54605 5.9619,3.82031 10.25,3.82031 3.79675,0 6.94587,-0.89494 9.44726,-2.68164 2.50139,-1.78671 3.95347,-4.22066 4.35547,-7.302735 h -5.29297 c -0.31267,1.652705 -1.22739,2.970435 -2.74609,3.953125 -1.51871,0.93802 -3.44095,1.4082 -5.76367,1.4082 -2.72473,0 -4.89002,-0.82776 -6.49805,-2.48047 -1.60804,-1.69737 -2.41211,-3.95351 -2.41211,-6.767573 v -3.884766 h 22.98242 v -6.566406 c 0,-4.198764 -1.27425,-7.549391 -3.82031,-10.050782 C 349.6184,12.663501 346.2006,11.3912 341.91251,11.3912 Z m -120.60156,0.06641 c -4.33277,0 -7.77231,1.272302 -10.31836,3.81836 -2.50139,2.546058 -3.75196,6.076453 -3.75196,10.58789 v 9.246094 c 0,4.511433 1.27231,8.039872 3.81836,10.585932 2.54606,2.54606 5.96386,3.81837 10.25196,3.81837 4.2881,0 7.70394,-1.27231 10.25,-3.81837 2.54605,-2.54606 3.82031,-6.074499 3.82031,-10.585932 V 25.86386 c 0,-4.511437 -1.27426,-8.041832 -3.82031,-10.58789 -2.5014,-2.546058 -5.91724,-3.81836 -10.25,-3.81836 z m 120.60156,4.355465 c 2.81406,0 5.00303,0.825811 6.5664,2.478516 1.56337,1.652704 2.34571,3.976014 2.34571,6.96875 v 2.345703 h -17.82227 v -2.345703 c 0,-2.992736 0.78234,-5.316046 2.34571,-6.96875 1.56337,-1.652705 3.75038,-2.478516 6.56445,-2.478516 z m -40.33399,0.201172 c 2.63539,0 4.69003,0.825811 6.16407,2.478516 1.51869,1.608036 2.27734,3.864178 2.27734,6.767578 v 7.36914 c 0,2.9034 -0.75865,5.183233 -2.27734,6.835938 -1.51871,1.608027 -3.57334,2.412107 -6.16407,2.412107 -2.68006,0 -4.75644,-0.78233 -6.23046,-2.345701 -1.47403,-1.563369 -2.21094,-3.706911 -2.21094,-6.431641 v -8.308593 c 0,-2.724729 0.73691,-4.868272 2.21094,-6.431641 1.47402,-1.563369 3.5504,-2.345703 6.23046,-2.345703 z m -80.26757,0.201172 c 2.72473,0 4.86826,0.780381 6.43164,2.34375 1.56336,1.563369 2.3457,3.843202 2.3457,6.835937 V 35.5787 c 0,2.992736 -0.78234,5.270616 -2.3457,6.833986 -1.56338,1.56336 -3.70691,2.3457 -6.43164,2.3457 -2.72473,0 -4.86827,-0.78234 -6.43165,-2.3457 -1.56337,-1.56337 -2.3457,-3.84125 -2.3457,-6.833986 V 25.395106 c 0,-2.992735 0.78233,-5.272568 2.3457,-6.835937 1.56338,-1.563369 3.70692,-2.34375 6.43165,-2.34375 z" /><metadata
     id="metadata104"><rdf:RDF><cc:Work
         rdf:about=""><dc:title>Devs Forge organization title (glitch version)</dc:title><dc:date>07/03/2024</dc:date><dc:creator><cc:Agent><dc:title>devsforge.org</dc:title></cc:Agent></dc:creator><dc:rights><cc:Agent><dc:title>devsforge.org</dc:title></cc:Agent></dc:rights><dc:publisher><cc:Agent><dc:title>devsforge.org</dc:title></cc:Agent></dc:publisher><dc:identifier>devsforge-title-glitch</dc:identifier><dc:language>en</dc:language><dc:subject><rdf:Bag><rdf:li>devsforge</rdf:li><rdf:li>logo</rdf:li><rdf:li>title</rdf:li><rdf:li>glitch</rdf:li></rdf:Bag></dc:subject><dc:contributor><cc:Agent><dc:title>Serhii Horodilov</dc:title></cc:Agent></dc:contributor><cc:license
           rdf:resource="http://creativecommons.org/licenses/by-sa/4.0/" /></cc:Work><cc:License
         rdf:about="http://creativecommons.org/licenses/by-sa/4.0/"><cc:permits
           rdf:resource="http://creativecommons.org/ns#Reproduction" /><cc:permits
           rdf:resource="http://creativecommons.org/ns#Distribution" /><cc:requires
           rdf:resource="http://creativecommons.org/ns#Notice" /><cc:requires
           rdf:resource="http://creativecommons.org/ns#Attribution" /><cc:permits
           rdf:resource="http://creativecommons.org/ns#DerivativeWorks" /><cc:requires
           rdf:resource="http://creativecommons.org/ns#ShareAlike" /></cc:License></rdf:RDF></metadata></svg>
