<?xml version="1.0" encoding="UTF-8" standalone="no"?>
<!-- Created with Inkscape (http://www.inkscape.org/) -->

<svg
   width="360"
   height="180"
   viewBox="0 0 360 180.00001"
   version="1.1"
   id="svg1"
   inkscape:version="1.3.2 (091e20e, 2023-11-25, custom)"
   xml:space="preserve"
   sodipodi:docname="title-glitch.svg"
   xmlns:inkscape="http://www.inkscape.org/namespaces/inkscape"
   xmlns:sodipodi="http://sodipodi.sourceforge.net/DTD/sodipodi-0.dtd"
   xmlns="http://www.w3.org/2000/svg"
   xmlns:svg="http://www.w3.org/2000/svg"><sodipodi:namedview
     id="namedview1"
     pagecolor="#505050"
     bordercolor="#eeeeee"
     borderopacity="1"
     inkscape:showpageshadow="0"
     inkscape:pageopacity="0"
     inkscape:pagecheckerboard="0"
     inkscape:deskcolor="#505050"
     inkscape:document-units="px"
     showguides="true"
     inkscape:zoom="3.925"
     inkscape:cx="180"
     inkscape:cy="90.063694"
     inkscape:window-width="1920"
     inkscape:window-height="991"
     inkscape:window-x="-9"
     inkscape:window-y="-9"
     inkscape:window-maximized="1"
     inkscape:current-layer="svg1" /><defs
     id="defs1" /><path
     id="path103"
     style="font-weight:800;font-size:67.0016px;font-family:'JetBrainsMono Nerd Font';-inkscape-font-specification:'JetBrainsMono Nerd Font, Ultra-Bold';font-variant-ligatures:discretionary-ligatures;letter-spacing:0px;word-spacing:0px;fill:#ff00ff;stroke-width:1.46977;paint-order:markers fill stroke"
     d="m 6.8574218,59.308594 v 4.341797 H 3.0078124 v 5.330078 h 4.5878907 v 3.701172 H 3.0078124 v 3.107421 h 1.1835938 v 7.976563 H 0.046875 v 2.681641 h 2.3691405 v 8.289062 h 2.2207031 v 6.810552 H 0 v 6.67382 h 15.878907 c 0.848682,0 1.669899,-0.0401 2.462891,-0.12109 2.378973,-0.24297 4.506775,-0.85075 6.382812,-1.82227 2.231521,-1.17448 3.99063,-2.7669 5.330078,-4.73046 h 4.636719 c 0.188791,-0.27676 0.395348,-0.53763 0.566406,-0.83008 1.073855,-1.778589 1.743092,-3.773019 2.009766,-5.980472 h -2.220703 c 0.08828,-0.730785 0.132812,-1.484052 0.132812,-2.261719 v -6.027343 h -2.36914 v -2.681641 h 4.144531 v -7.976563 h -1.183594 v -0.800781 c 0,-0.795769 -0.04491,-1.564206 -0.134765,-2.30664 h 4.58789 c -0.07986,-0.65986 -0.196567,-1.297598 -0.349609,-1.914063 -0.153043,-0.616464 -0.342426,-1.211658 -0.564453,-1.787109 h -4.587891 c -0.07543,-0.195492 -0.153488,-0.388943 -0.236328,-0.580078 -0.248522,-0.573408 -0.532549,-1.126382 -0.857422,-1.654297 -0.679303,-1.161389 -1.500082,-2.192305 -2.458984,-3.095703 h 3.849609 c -0.995718,-0.938083 -2.140508,-1.738563 -3.4375,-2.398438 -2.50137,-1.295353 -5.450999,-1.943359 -8.845703,-1.943359 z m 6.2011722,9.044922 h 5.828126 c 1.140387,0 2.144627,0.224114 3.041015,0.626953 h 4.587891 c 0.683559,0.30719 1.310456,0.708893 1.851562,1.25 0.739412,0.68842 1.243116,1.515122 1.560547,2.451172 h -4.587891 c 0.238665,0.703775 0.382813,1.463154 0.382813,2.30664 v 0.800781 h 1.183594 v 7.976563 H 22.76172 v 2.681641 h 2.36914 v 6.027343 c 0,0.821492 -0.140812,1.565066 -0.367187,2.261719 h 2.220703 c -0.315218,0.970049 -0.822256,1.834579 -1.576172,2.5625 -1.25069,1.25069 -2.88255,1.876953 -4.892578,1.876953 h -5.828125 v -4.439453 h -2.220703 v -8.289062 h -2.369142 v -2.681641 h 4.144532 v -7.976563 h -1.183594 v -3.107421 h 4.587891 v -3.701172 h -4.587891 z m 50.685547,2.345703 c -3.260711,0 -6.119478,0.626267 -8.576171,1.876953 -0.06515,0.03258 -0.123185,0.07209 -0.1875,0.105469 h -4.587891 c -1.172904,0.608773 -2.210265,1.347065 -3.121094,2.207031 -0.30361,0.286655 -0.593392,0.587064 -0.869141,0.90039 h 1.183594 c -0.530949,0.603309 -1.027497,1.239186 -1.451172,1.945313 -0.781606,1.320644 -1.316484,2.786398 -1.621093,4.386719 -0.101537,0.53344 -0.177567,1.081448 -0.228516,1.644531 h -4.144531 c -0.04952,0.547256 -0.09375,1.097553 -0.09375,1.673828 v 1.007813 h 2.36914 v 7.703125 c 0,0.201326 0.02501,0.388055 0.03125,0.585937 h 2.220704 c 0.06014,1.907748 0.396972,3.663925 1.015624,5.263672 0.206218,0.53325 0.443909,1.04829 0.712891,1.54688 h -4.636719 c 0.066,0.12232 0.113836,0.25472 0.183594,0.375 1.340023,2.18867 3.216859,3.90945 5.628906,5.16015 2.456712,1.20603 5.315443,1.80859 8.576172,1.80859 3.975409,1e-5 7.369542,-0.98387 10.183594,-2.94921 1.750662,-1.22269 3.095096,-2.68802 4.033203,-4.39453 h 4.636719 c 0.569825,-1.0366 0.989701,-2.161655 1.259766,-3.376958 h -9.84961 c -0.178671,0.893348 -0.802981,1.563081 -1.875,2.009768 -1.072019,0.44668 -2.322598,0.66992 -3.751953,0.66992 -2.188705,0 -3.842297,-0.53539 -4.958984,-1.607422 -0.975389,-0.975393 -1.484438,-2.495135 -1.572266,-4.50586 h -2.220703 c -0.0087,-0.199196 -0.03516,-0.376577 -0.03516,-0.585937 v -1.876953 h 22.580078 v -5.826172 h -2.369141 v -1.007813 c 0,-0.576291 -0.04635,-1.126558 -0.09766,-1.673828 h 4.144531 c -0.05278,-0.563079 -0.131203,-1.111091 -0.23632,-1.644531 -0.315352,-1.600321 -0.869181,-3.066084 -1.677734,-4.386719 -0.409536,-0.706093 -0.894939,-1.342028 -1.416016,-1.945313 h -1.183594 c -1.082503,-1.25328 -2.39414,-2.295728 -3.957031,-3.107421 h 4.587891 c -0.06436,-0.03343 -0.122263,-0.07285 -0.1875,-0.105469 -2.367368,-1.250686 -5.180704,-1.876953 -8.441407,-1.876953 z m 78.390619,0 c -3.51566,0 -6.38152,0.506417 -8.60156,1.517578 -0.31715,0.144451 -0.62132,0.299825 -0.91211,0.464844 h -4.58789 c -1.05272,0.597407 -1.93286,1.328735 -2.64062,2.195312 -0.23593,0.288859 -0.4528,0.593343 -0.65039,0.912109 h 1.18359 c -1.01609,1.639165 -1.5332,3.667519 -1.5332,6.09961 0,0.651089 0.0547,1.272095 0.13672,1.876953 h -4.14454 c 0.0642,0.473259 0.14997,0.933479 0.25977,1.380859 0.1098,0.44738 0.24364,0.881922 0.4043,1.300782 h 2.36914 c 0.43125,1.124311 1.02827,2.155052 1.8125,3.080078 1.74204,2.010034 4.24317,3.215184 7.5039,3.617187 l 8.44336,1.00586 c 0.53925,0.0583 1.02859,0.138021 1.47266,0.236328 0.44406,0.09831 0.84285,0.215193 1.20117,0.349609 h 2.2207 c 0.38156,0.143135 0.73042,0.300096 1.00977,0.486328 0.80402,0.491345 1.20704,1.295423 1.20703,2.41211 1e-5,1.161348 -0.51366,2.05437 -1.54101,2.679684 -0.98269,0.62536 -2.38939,0.9375 -4.22071,0.9375 h -2.94922 c -1.69736,0 -3.0151,-0.31214 -3.95312,-0.9375 -0.93802,-0.625314 -1.40625,-1.563761 -1.40625,-2.81445 h -9.84961 c 0,1.10645 0.16206,2.135941 0.46484,3.10156 0.10093,0.32188 0.21856,0.6374 0.34961,0.94532 h -4.63672 c 0.28525,0.6702 0.61981,1.31787 1.06055,1.91601 1.29537,1.69738 3.08328,3.03684 5.36133,4.01953 1.70853,0.70352 3.6301,1.14411 5.76562,1.32031 0.71185,0.0587 1.44768,0.0879 2.20704,0.0879 h 2.94921 c 0.63093,0 1.24341,-0.0161 1.83594,-0.0469 4.14775,-0.21519 7.35421,-1.18266 9.62109,-2.90234 1.52547,-1.18356 2.58799,-2.6537 3.21485,-4.39453 h 4.63672 c 0.10943,-0.30392 0.20574,-0.6154 0.28906,-0.93555 0.24997,-0.960466 0.38086,-1.995579 0.38086,-3.11133 0,-0.977686 -0.0826,-1.894217 -0.23047,-2.763672 h -2.2207 c -0.0931,-0.547299 -0.21435,-1.073061 -0.36524,-1.578125 -0.45266,-1.515191 -1.1673,-2.839846 -2.15039,-3.966797 -1.02823,-1.178703 -2.3481,-2.08662 -3.93945,-2.74414 h -2.36914 c -0.31075,-0.128395 -0.63161,-0.247944 -0.96289,-0.357422 -0.99384,-0.328436 -2.08147,-0.569883 -3.27149,-0.716797 l -8.04101,-1.005859 c -1.12291,-0.140365 -1.99558,-0.351271 -2.73242,-0.601563 h 4.14453 c -0.20109,-0.06831 -0.44481,-0.124557 -0.61719,-0.201172 -0.75935,-0.357342 -1.13867,-1.050776 -1.13867,-2.078125 0,-1.027349 0.40106,-1.831437 1.20508,-2.412109 0.80402,-0.58068 1.98748,-0.871094 3.55078,-0.871094 h 3.15039 c 1.56337,0 2.76851,0.290414 3.61719,0.871094 0.89334,0.580672 1.33984,1.406498 1.33984,2.478515 h 9.84961 c 0,-0.557102 -0.0377,-1.09495 -0.11524,-1.613281 -0.23254,-1.554993 -0.81309,-2.936283 -1.72656,-4.150391 h -1.18359 c -0.29432,-0.391175 -0.62072,-0.765729 -0.98242,-1.123046 -0.36171,-0.357317 -0.7587,-0.6974 -1.19532,-1.017578 -0.48924,-0.358789 -1.02003,-0.673446 -1.57031,-0.966797 h 4.58789 c -2.46403,-1.313574 -5.52895,-1.982422 -9.2168,-1.982422 z m -56.749994,0.669922 0.4375,1.3125 h -4.58789 l 1.033203,3.107421 h 1.183594 l 2.654297,7.976563 h -4.144532 l 0.892578,2.681641 h 2.369141 l 2.757813,8.289062 h 2.220703 l 2.265625,6.810552 h -4.636719 l 2.220703,6.67382 h 12.595698 l 2.19532,-6.67382 h 4.63671 l 2.24219,-6.810552 H 109.5 l 2.72656,-8.289062 h -2.36914 l 0.88281,-2.681641 h 4.14453 l 2.625,-7.976563 h -1.18359 l 1.02344,-3.107421 h 4.58789 l 0.43164,-1.3125 h -10.51758 l -0.39844,1.3125 h -4.58789 l -0.9414,3.107421 h 1.18359 l -2.41992,7.976563 h -4.14453 l -0.812498,2.681641 h 2.369138 l -1.72656,5.693359 c -0.24291,0.819832 -0.461078,1.71416 -0.683598,2.595703 h -1.904295 c -0.23513,-0.90667 -0.484049,-1.800204 -0.761719,-2.664062 l -1.748047,-5.625 h -2.36914 l -0.833985,-2.681641 h 4.144532 l -2.478516,-7.976563 h -1.183594 l -0.964844,-3.107421 h 4.587891 l -0.408203,-1.3125 z m -25.044922,6.767578 c 2.188701,0 3.79687,0.624312 4.824219,1.875 0.816007,0.95201 1.317017,2.206125 1.511719,3.753906 h -4.144531 c 0.06108,0.485582 0.0957,0.997004 0.0957,1.541016 v 0.871093 l -12.998047,0.132813 v -0.871094 c 1e-6,-0.592019 0.03899,-1.148251 0.111328,-1.673828 h 4.144531 c 0.05151,-0.374199 0.121055,-0.731483 0.208985,-1.072266 0.26379,-1.022347 0.692045,-1.894245 1.287109,-2.613281 1.116685,-1.295355 2.770284,-1.943359 4.958984,-1.943359 z m 39.666016,16.599609 h 1.90429 c -0.10481,0.415258 -0.22213,0.793561 -0.32226,1.222656 -0.15634,0.670013 -0.28463,1.318045 -0.38477,1.94336 -0.10014,0.625315 -0.17213,1.227916 -0.21679,1.808594 -0.0893,-1.161355 -0.31259,-2.411929 -0.66992,-3.751954 -0.0967,-0.414455 -0.20526,-0.816658 -0.31055,-1.222656 z" /><path
     id="path104"
     style="font-weight:800;font-size:67.0016px;font-family:'JetBrainsMono Nerd Font';-inkscape-font-specification:'JetBrainsMono Nerd Font, Ultra-Bold';font-variant-ligatures:discretionary-ligatures;letter-spacing:0px;word-spacing:0px;fill:#2a7fff;stroke-width:1.46977;paint-order:markers fill stroke"
     d="m 11.001954,59.308594 v 4.341797 H 7.1523442 v 5.330078 h 4.5878908 v 3.701172 H 7.1523442 v 3.107421 H 8.335938 v 7.976563 H 4.1914068 v 2.681641 h 2.3691406 v 8.289062 h 2.2207031 v 6.810552 H 4.1445318 v 6.67382 H 20.023438 c 0.848682,0 1.669899,-0.0401 2.462891,-0.12109 2.378973,-0.24297 4.506775,-0.85075 6.382812,-1.82227 2.231521,-1.17448 3.99063,-2.7669 5.330078,-4.73046 h 4.636719 c 0.188791,-0.27676 0.395348,-0.53763 0.566406,-0.83008 1.073855,-1.778589 1.743092,-3.773019 2.009766,-5.980472 h -2.220703 c 0.08828,-0.730785 0.132812,-1.484052 0.132812,-2.261719 v -6.027343 h -2.36914 v -2.681641 h 4.144531 v -7.976563 h -1.183594 v -0.800781 c 0,-0.795769 -0.04491,-1.564206 -0.134765,-2.30664 h 4.58789 c -0.07986,-0.65986 -0.196567,-1.297598 -0.349609,-1.914063 -0.153043,-0.616464 -0.342426,-1.211658 -0.564453,-1.787109 H 38.867188 C 38.791758,68.784977 38.7137,68.591526 38.63086,68.400391 38.382338,67.826983 38.098311,67.274009 37.773438,66.746094 37.094135,65.584705 36.273356,64.553789 35.314454,63.650391 h 3.849609 c -0.995718,-0.938083 -2.140508,-1.738563 -3.4375,-2.398438 -2.50137,-1.295353 -5.450999,-1.943359 -8.845703,-1.943359 z m 6.201171,9.044922 h 5.828126 c 1.140387,0 2.144627,0.224114 3.041015,0.626953 h 4.587891 c 0.683559,0.30719 1.310456,0.708893 1.851562,1.25 0.739412,0.68842 1.243116,1.515122 1.560547,2.451172 h -4.587891 c 0.238665,0.703775 0.382813,1.463154 0.382813,2.30664 v 0.800781 h 1.183594 v 7.976563 h -4.144531 v 2.681641 h 2.36914 v 6.027343 c 0,0.821492 -0.140812,1.565066 -0.367187,2.261719 h 2.220703 c -0.315218,0.970049 -0.822256,1.834579 -1.576172,2.5625 -1.25069,1.25069 -2.88255,1.876953 -4.892578,1.876953 h -5.828125 v -4.439453 h -2.220703 v -8.289062 h -2.369141 v -2.681641 h 4.144531 v -7.976563 h -1.183594 v -3.107421 h 4.587891 v -3.701172 h -4.587891 z m 50.685547,2.345703 c -3.260711,0 -6.119478,0.626267 -8.576171,1.876953 -0.06515,0.03258 -0.123185,0.07209 -0.1875,0.105469 H 54.53711 c -1.172904,0.608773 -2.210265,1.347065 -3.121094,2.207031 -0.30361,0.286655 -0.593392,0.587064 -0.869141,0.90039 h 1.183594 c -0.530949,0.603309 -1.027497,1.239186 -1.451172,1.945313 -0.781606,1.320644 -1.316484,2.786398 -1.621093,4.386719 -0.101537,0.53344 -0.177567,1.081448 -0.228516,1.644531 h -4.144531 c -0.04952,0.547256 -0.09375,1.097553 -0.09375,1.673828 v 1.007813 h 2.36914 v 7.703125 c 0,0.201326 0.02501,0.388055 0.03125,0.585937 h 2.220704 c 0.06014,1.907748 0.396972,3.663925 1.015624,5.263672 0.206218,0.53325 0.443909,1.04829 0.712891,1.54688 h -4.636719 c 0.066,0.12232 0.113836,0.25472 0.183594,0.375 1.340023,2.18867 3.216859,3.90945 5.628906,5.16015 2.456712,1.20603 5.315443,1.80859 8.576172,1.80859 3.975409,1e-5 7.369542,-0.98387 10.183594,-2.94921 1.750662,-1.22269 3.095096,-2.68802 4.033203,-4.39453 h 4.636719 c 0.569825,-1.0366 0.989701,-2.161655 1.259766,-3.376958 h -9.84961 c -0.178671,0.893348 -0.802981,1.563081 -1.875,2.009768 -1.072019,0.44668 -2.322598,0.66992 -3.751953,0.66992 -2.188705,0 -3.842297,-0.53539 -4.958984,-1.607422 -0.975389,-0.975393 -1.484438,-2.495135 -1.572266,-4.50586 h -2.220703 c -0.0087,-0.199196 -0.03516,-0.376577 -0.03516,-0.585937 v -1.876953 h 22.580078 v -5.826172 h -2.369141 v -1.007813 c 0,-0.576291 -0.04635,-1.126558 -0.09766,-1.673828 h 4.144531 c -0.05279,-0.563079 -0.131211,-1.111091 -0.236328,-1.644531 -0.315352,-1.600321 -0.869181,-3.066084 -1.677734,-4.386719 -0.409536,-0.706093 -0.894939,-1.342028 -1.416016,-1.945313 h -1.183594 c -1.082503,-1.25328 -2.39414,-2.295728 -3.957031,-3.107421 h 4.587891 c -0.06436,-0.03343 -0.122263,-0.07285 -0.1875,-0.105469 -2.367368,-1.250686 -5.180704,-1.876953 -8.441407,-1.876953 z m 78.390618,0 c -3.51566,0 -6.38152,0.506417 -8.60156,1.517578 -0.31715,0.144451 -0.62132,0.299825 -0.91211,0.464844 h -4.58789 c -1.05272,0.597407 -1.93286,1.328735 -2.64062,2.195312 -0.23593,0.288859 -0.4528,0.593343 -0.65039,0.912109 h 1.18359 c -1.01609,1.639165 -1.5332,3.667519 -1.5332,6.09961 0,0.651089 0.0547,1.272095 0.13672,1.876953 h -4.14454 c 0.0642,0.473259 0.14997,0.933479 0.25977,1.380859 0.1098,0.44738 0.24364,0.881922 0.4043,1.300782 h 2.36914 c 0.43125,1.124311 1.02827,2.155052 1.8125,3.080078 1.74204,2.010034 4.24317,3.215184 7.5039,3.617187 l 8.44336,1.00586 c 0.53925,0.0583 1.02859,0.138021 1.47266,0.236328 0.44406,0.09831 0.84285,0.215193 1.20117,0.349609 h 2.2207 c 0.38156,0.143135 0.73042,0.300096 1.00977,0.486328 0.80402,0.491345 1.20704,1.295423 1.20703,2.41211 1e-5,1.161348 -0.51366,2.05437 -1.54101,2.679684 -0.98269,0.62536 -2.38939,0.9375 -4.22071,0.9375 h -2.94922 c -1.69736,0 -3.0151,-0.31214 -3.95312,-0.9375 -0.93802,-0.625314 -1.40625,-1.563761 -1.40625,-2.81445 h -9.84961 c 0,1.10645 0.16206,2.135941 0.46484,3.10156 0.10093,0.32188 0.21856,0.6374 0.34961,0.94532 h -4.63672 c 0.28525,0.6702 0.61981,1.31787 1.06055,1.91601 1.29537,1.69738 3.08328,3.03684 5.36133,4.01953 1.70853,0.70352 3.6301,1.14411 5.76562,1.32031 0.71185,0.0587 1.44768,0.0879 2.20704,0.0879 h 2.94921 c 0.63093,0 1.24341,-0.0161 1.83594,-0.0469 4.14775,-0.21519 7.35421,-1.18266 9.62109,-2.90234 1.52547,-1.18356 2.58799,-2.6537 3.21485,-4.39453 h 4.63672 c 0.10943,-0.30392 0.20574,-0.6154 0.28906,-0.93555 0.24997,-0.960466 0.38086,-1.995579 0.38086,-3.11133 0,-0.977686 -0.0826,-1.894217 -0.23047,-2.763672 h -2.2207 c -0.0931,-0.547299 -0.21435,-1.073061 -0.36524,-1.578125 -0.45266,-1.515191 -1.1673,-2.839846 -2.15039,-3.966797 -1.02823,-1.178703 -2.3481,-2.08662 -3.93945,-2.74414 h -2.36914 c -0.31075,-0.128395 -0.63161,-0.247944 -0.96289,-0.357422 -0.99384,-0.328436 -2.08147,-0.569883 -3.27149,-0.716797 l -8.04101,-1.005859 c -1.12291,-0.140365 -1.99558,-0.351271 -2.73242,-0.601563 h 4.14453 c -0.20109,-0.06831 -0.44481,-0.124557 -0.61719,-0.201172 -0.75935,-0.357342 -1.13867,-1.050776 -1.13867,-2.078125 0,-1.027349 0.40106,-1.831437 1.20508,-2.412109 0.80402,-0.58068 1.98748,-0.871094 3.55078,-0.871094 h 3.15039 c 1.56337,0 2.76851,0.290414 3.61719,0.871094 0.89334,0.580672 1.33984,1.406498 1.33984,2.478515 h 9.84961 c 0,-0.557102 -0.0377,-1.09495 -0.11524,-1.613281 -0.23254,-1.554993 -0.81309,-2.936283 -1.72656,-4.150391 h -1.18359 c -0.29432,-0.391175 -0.62072,-0.765729 -0.98242,-1.123046 -0.36171,-0.357317 -0.7587,-0.6974 -1.19532,-1.017578 -0.48924,-0.358789 -1.02003,-0.673446 -1.57031,-0.966797 h 4.58789 c -2.46403,-1.313574 -5.52895,-1.982422 -9.2168,-1.982422 z m -56.749993,0.669922 0.4375,1.3125 h -4.58789 l 1.033203,3.107421 h 1.183594 l 2.654297,7.976563 h -4.144532 l 0.892578,2.681641 h 2.369141 l 2.757813,8.289062 h 2.220703 l 2.265625,6.810552 H 91.97461 l 2.220703,6.67382 h 12.595697 l 2.19532,-6.67382 h 4.63671 l 2.24219,-6.810552 h -2.2207 l 2.72656,-8.289062 h -2.36914 l 0.88281,-2.681641 h 4.14453 l 2.625,-7.976563 h -1.18359 l 1.02344,-3.107421 h 4.58789 l 0.43164,-1.3125 h -10.51758 l -0.39844,1.3125 h -4.58789 l -0.9414,3.107421 h 1.18359 l -2.41992,7.976563 h -4.14453 l -0.8125,2.681641 h 2.36914 l -1.72656,5.693359 c -0.24291,0.819832 -0.46108,1.71416 -0.6836,2.595703 h -1.9043 c -0.23513,-0.90667 -0.48404,-1.800204 -0.76171,-2.664062 l -1.748046,-5.625 h -2.369142 l -0.833985,-2.681641 h 4.144533 l -2.478517,-7.976563 h -1.183594 l -0.964844,-3.107421 h 4.587885 l -0.408196,-1.3125 z m -25.044922,6.767578 c 2.188701,0 3.79687,0.624312 4.824219,1.875 0.816007,0.95201 1.317017,2.206125 1.511719,3.753906 h -4.144531 c 0.06108,0.485582 0.0957,0.997004 0.0957,1.541016 v 0.871093 l -12.998047,0.132813 v -0.871094 c 10e-7,-0.592019 0.03899,-1.148251 0.111328,-1.673828 h 4.144531 c 0.05151,-0.374199 0.121055,-0.731483 0.208985,-1.072266 0.26379,-1.022347 0.692045,-1.894245 1.287109,-2.613281 1.116685,-1.295355 2.770284,-1.943359 4.958984,-1.943359 z m 39.666015,16.599609 h 1.90429 c -0.10481,0.415258 -0.22213,0.793561 -0.32226,1.222656 -0.15634,0.670013 -0.28463,1.318045 -0.38477,1.94336 -0.10014,0.625315 -0.17213,1.227916 -0.21679,1.808594 -0.0893,-1.161355 -0.31259,-2.411929 -0.66992,-3.751954 -0.0967,-0.414455 -0.20526,-0.816658 -0.31055,-1.222656 z" /><path
     id="path31"
     style="font-weight:800;font-size:67.0016px;font-family:'JetBrainsMono Nerd Font';-inkscape-font-specification:'JetBrainsMono Nerd Font, Ultra-Bold';font-variant-ligatures:discretionary-ligatures;letter-spacing:0px;word-spacing:0px;fill:#000000;stroke-width:1.46977;paint-order:markers fill stroke"
     d="M 8.2753906 59.308594 L 8.2753906 63.650391 L 4.4257812 63.650391 L 4.4257812 68.980469 L 9.0136719 68.980469 L 9.0136719 72.681641 L 4.4257812 72.681641 L 4.4257812 75.789062 L 5.609375 75.789062 L 5.609375 83.765625 L 1.4648438 83.765625 L 1.4648438 86.447266 L 3.8339844 86.447266 L 3.8339844 94.736328 L 6.0546875 94.736328 L 6.0546875 101.54688 L 1.4179688 101.54688 L 1.4179688 108.2207 L 17.296875 108.2207 C 18.145557 108.2207 18.966774 108.1806 19.759766 108.09961 C 22.138739 107.85664 24.266541 107.24886 26.142578 106.27734 C 28.374099 105.10286 30.133208 103.51044 31.472656 101.54688 L 36.109375 101.54688 C 36.298166 101.27012 36.504723 101.00925 36.675781 100.7168 C 37.749636 98.938211 38.418873 96.943781 38.685547 94.736328 L 36.464844 94.736328 C 36.553124 94.005543 36.597656 93.252276 36.597656 92.474609 L 36.597656 86.447266 L 34.228516 86.447266 L 34.228516 83.765625 L 38.373047 83.765625 L 38.373047 75.789062 L 37.189453 75.789062 L 37.189453 74.988281 C 37.189453 74.192512 37.144543 73.424075 37.054688 72.681641 L 41.642578 72.681641 C 41.562714 72.021781 41.446011 71.384043 41.292969 70.767578 C 41.139926 70.151114 40.950543 69.55592 40.728516 68.980469 L 36.140625 68.980469 C 36.065198 68.784977 35.987137 68.591526 35.904297 68.400391 C 35.655775 67.826983 35.371748 67.274009 35.046875 66.746094 C 34.367572 65.584705 33.546793 64.553789 32.587891 63.650391 L 36.4375 63.650391 C 35.441782 62.712308 34.296992 61.911828 33 61.251953 C 30.49863 59.9566 27.549001 59.308594 24.154297 59.308594 L 8.2753906 59.308594 z M 14.476562 68.353516 L 20.304688 68.353516 C 21.445075 68.353516 22.449315 68.57763 23.345703 68.980469 L 27.933594 68.980469 C 28.617153 69.287659 29.24405 69.689362 29.785156 70.230469 C 30.524568 70.918889 31.028272 71.745591 31.345703 72.681641 L 26.757812 72.681641 C 26.996477 73.385416 27.140625 74.144795 27.140625 74.988281 L 27.140625 75.789062 L 28.324219 75.789062 L 28.324219 83.765625 L 24.179688 83.765625 L 24.179688 86.447266 L 26.548828 86.447266 L 26.548828 92.474609 C 26.548828 93.296101 26.408016 94.039675 26.181641 94.736328 L 28.402344 94.736328 C 28.087126 95.706377 27.580088 96.570907 26.826172 97.298828 C 25.575482 98.549518 23.943622 99.175781 21.933594 99.175781 L 16.105469 99.175781 L 16.105469 94.736328 L 13.884766 94.736328 L 13.884766 86.447266 L 11.515625 86.447266 L 11.515625 83.765625 L 15.660156 83.765625 L 15.660156 75.789062 L 14.476562 75.789062 L 14.476562 72.681641 L 19.064453 72.681641 L 19.064453 68.980469 L 14.476562 68.980469 L 14.476562 68.353516 z M 65.162109 70.699219 C 61.901398 70.699219 59.042631 71.325486 56.585938 72.576172 C 56.520788 72.608752 56.462753 72.648262 56.398438 72.681641 L 51.810547 72.681641 C 50.637643 73.290414 49.600282 74.028706 48.689453 74.888672 C 48.385843 75.175327 48.096061 75.475736 47.820312 75.789062 L 49.003906 75.789062 C 48.472957 76.392371 47.976409 77.028248 47.552734 77.734375 C 46.771128 79.055019 46.23625 80.520773 45.931641 82.121094 C 45.830104 82.654534 45.754074 83.202542 45.703125 83.765625 L 41.558594 83.765625 C 41.509074 84.312881 41.464844 84.863178 41.464844 85.439453 L 41.464844 86.447266 L 43.833984 86.447266 L 43.833984 94.150391 C 43.833984 94.351717 43.858994 94.538446 43.865234 94.736328 L 46.085938 94.736328 C 46.14608 96.644076 46.48291 98.400253 47.101562 100 C 47.30778 100.53325 47.545471 101.04829 47.814453 101.54688 L 43.177734 101.54688 C 43.243734 101.6692 43.29157 101.8016 43.361328 101.92188 C 44.701351 104.11055 46.578187 105.83133 48.990234 107.08203 C 51.446946 108.28806 54.305677 108.89062 57.566406 108.89062 C 61.541815 108.89063 64.935948 107.90675 67.75 105.94141 C 69.500662 104.71872 70.845096 103.25339 71.783203 101.54688 L 76.419922 101.54688 C 76.989747 100.51028 77.409623 99.385225 77.679688 98.169922 L 67.830078 98.169922 C 67.651407 99.06327 67.027097 99.733003 65.955078 100.17969 C 64.883059 100.62637 63.63248 100.84961 62.203125 100.84961 C 60.01442 100.84961 58.360828 100.31422 57.244141 99.242188 C 56.268752 98.266795 55.759703 96.747053 55.671875 94.736328 L 53.451172 94.736328 C 53.442472 94.537132 53.416016 94.359751 53.416016 94.150391 L 53.416016 92.273438 L 75.996094 92.273438 L 75.996094 86.447266 L 73.626953 86.447266 L 73.626953 85.439453 C 73.626953 84.863162 73.580607 84.312895 73.529297 83.765625 L 77.673828 83.765625 C 77.621036 83.202546 77.542617 82.654534 77.4375 82.121094 C 77.122148 80.520773 76.568319 79.05501 75.759766 77.734375 C 75.35023 77.028282 74.864827 76.392347 74.34375 75.789062 L 73.160156 75.789062 C 72.077653 74.535782 70.766016 73.493334 69.203125 72.681641 L 73.791016 72.681641 C 73.726656 72.648211 73.668753 72.608791 73.603516 72.576172 C 71.236148 71.325486 68.422812 70.699219 65.162109 70.699219 z M 143.55273 70.699219 C 140.03707 70.699219 137.17121 71.205636 134.95117 72.216797 C 134.63402 72.361248 134.32985 72.516622 134.03906 72.681641 L 129.45117 72.681641 C 128.39845 73.279048 127.51831 74.010376 126.81055 74.876953 C 126.57462 75.165812 126.35775 75.470296 126.16016 75.789062 L 127.34375 75.789062 C 126.32766 77.428227 125.81055 79.456581 125.81055 81.888672 C 125.81055 82.539761 125.86525 83.160767 125.94727 83.765625 L 121.80273 83.765625 C 121.86694 84.238884 121.9527 84.699104 122.0625 85.146484 C 122.1723 85.593864 122.30614 86.028406 122.4668 86.447266 L 124.83594 86.447266 C 125.26719 87.571577 125.86421 88.602318 126.64844 89.527344 C 128.39048 91.537378 130.89161 92.742528 134.15234 93.144531 L 142.5957 94.150391 C 143.13495 94.208686 143.62429 94.288412 144.06836 94.386719 C 144.51242 94.485025 144.91121 94.601912 145.26953 94.736328 L 147.49023 94.736328 C 147.87179 94.879463 148.22065 95.036424 148.5 95.222656 C 149.30402 95.714001 149.70704 96.518079 149.70703 97.634766 C 149.70704 98.796114 149.19337 99.689136 148.16602 100.31445 C 147.18333 100.93981 145.77663 101.25195 143.94531 101.25195 L 140.99609 101.25195 C 139.29873 101.25195 137.98099 100.93981 137.04297 100.31445 C 136.10495 99.689136 135.63672 98.750689 135.63672 97.5 L 125.78711 97.5 C 125.78711 98.60645 125.94917 99.635941 126.25195 100.60156 C 126.35288 100.92344 126.47051 101.23896 126.60156 101.54688 L 121.96484 101.54688 C 122.25009 102.21708 122.58465 102.86475 123.02539 103.46289 C 124.32076 105.16027 126.10867 106.49973 128.38672 107.48242 C 130.09525 108.18594 132.01682 108.62653 134.15234 108.80273 C 134.86419 108.86147 135.60002 108.89063 136.35938 108.89062 L 139.30859 108.89062 C 139.93952 108.89062 140.552 108.87449 141.14453 108.84375 C 145.29228 108.62856 148.49874 107.66109 150.76562 105.94141 C 152.29109 104.75785 153.35361 103.28771 153.98047 101.54688 L 158.61719 101.54688 C 158.72662 101.24296 158.82293 100.93148 158.90625 100.61133 C 159.15622 99.650864 159.28711 98.615751 159.28711 97.5 C 159.28711 96.522314 159.20451 95.605783 159.05664 94.736328 L 156.83594 94.736328 C 156.74286 94.189029 156.62159 93.663267 156.4707 93.158203 C 156.01804 91.643012 155.3034 90.318357 154.32031 89.191406 C 153.29208 88.012703 151.97221 87.104786 150.38086 86.447266 L 148.01172 86.447266 C 147.70097 86.318871 147.38011 86.199322 147.04883 86.089844 C 146.05499 85.761408 144.96736 85.519961 143.77734 85.373047 L 135.73633 84.367188 C 134.61342 84.226823 133.74075 84.015917 133.00391 83.765625 L 137.14844 83.765625 C 136.94735 83.697315 136.70363 83.641068 136.53125 83.564453 C 135.7719 83.207111 135.39258 82.513677 135.39258 81.486328 C 135.39258 80.458979 135.79364 79.654891 136.59766 79.074219 C 137.40168 78.493539 138.58514 78.203125 140.14844 78.203125 L 143.29883 78.203125 C 144.8622 78.203125 146.06734 78.493539 146.91602 79.074219 C 147.80936 79.654891 148.25586 80.480717 148.25586 81.552734 L 158.10547 81.552734 C 158.10547 80.995632 158.06775 80.457784 157.99023 79.939453 C 157.75769 78.38446 157.17714 77.00317 156.26367 75.789062 L 155.08008 75.789062 C 154.78576 75.397887 154.45936 75.023333 154.09766 74.666016 C 153.73595 74.308699 153.33896 73.968616 152.90234 73.648438 C 152.4131 73.289649 151.88231 72.974992 151.33203 72.681641 L 155.91992 72.681641 C 153.45589 71.368067 150.39097 70.699219 146.70312 70.699219 L 143.55273 70.699219 z M 86.802734 71.369141 L 87.240234 72.681641 L 82.652344 72.681641 L 83.685547 75.789062 L 84.869141 75.789062 L 87.523438 83.765625 L 83.378906 83.765625 L 84.271484 86.447266 L 86.640625 86.447266 L 89.398438 94.736328 L 91.619141 94.736328 L 93.884766 101.54688 L 89.248047 101.54688 L 91.46875 108.2207 L 104.06445 108.2207 L 106.25977 101.54688 L 110.89648 101.54688 L 113.13867 94.736328 L 110.91797 94.736328 L 113.64453 86.447266 L 111.27539 86.447266 L 112.1582 83.765625 L 116.30273 83.765625 L 118.92773 75.789062 L 117.74414 75.789062 L 118.76758 72.681641 L 123.35547 72.681641 L 123.78711 71.369141 L 113.26953 71.369141 L 112.87109 72.681641 L 108.2832 72.681641 L 107.3418 75.789062 L 108.52539 75.789062 L 106.10547 83.765625 L 101.96094 83.765625 L 101.14844 86.447266 L 103.51758 86.447266 L 101.79102 92.140625 C 101.54811 92.960457 101.32994 93.854785 101.10742 94.736328 L 99.203125 94.736328 C 98.967995 93.829658 98.719076 92.936124 98.441406 92.072266 L 96.693359 86.447266 L 94.324219 86.447266 L 93.490234 83.765625 L 97.634766 83.765625 L 95.15625 75.789062 L 93.972656 75.789062 L 93.007812 72.681641 L 97.595703 72.681641 L 97.1875 71.369141 L 86.802734 71.369141 z M 61.757812 78.136719 C 63.946513 78.136719 65.554682 78.761031 66.582031 80.011719 C 67.398038 80.963729 67.899048 82.217844 68.09375 83.765625 L 63.949219 83.765625 C 64.010299 84.251207 64.044922 84.762629 64.044922 85.306641 L 64.044922 86.177734 L 51.046875 86.310547 L 51.046875 85.439453 C 51.046876 84.847434 51.085864 84.291202 51.158203 83.765625 L 55.302734 83.765625 C 55.35424 83.391426 55.423789 83.034142 55.511719 82.693359 C 55.775509 81.671012 56.203764 80.799114 56.798828 80.080078 C 57.915513 78.784723 59.569112 78.136719 61.757812 78.136719 z M 101.42383 94.736328 L 103.32812 94.736328 C 103.22331 95.151586 103.10599 95.529889 103.00586 95.958984 C 102.84952 96.628997 102.72123 97.277029 102.62109 97.902344 C 102.52095 98.527659 102.44896 99.13026 102.4043 99.710938 C 102.315 98.549583 102.09171 97.299009 101.73438 95.958984 C 101.63768 95.544529 101.52912 95.142326 101.42383 94.736328 z " /><path
     id="forge-text"
     style="font-weight:300;font-size:67.0016px;font-family:'JetBrainsMono Nerd Font';-inkscape-font-specification:'JetBrainsMono Nerd Font, Light';font-variant-ligatures:discretionary-ligatures;letter-spacing:0px;word-spacing:0px;mix-blend-mode:normal;fill:#000000;stroke-width:1.46977;paint-order:markers fill stroke"
     d="m 185.66641,59.309169 c -3.08206,0 -5.51797,0.825811 -7.30468,2.478516 -1.74204,1.608037 -2.61328,3.818748 -2.61328,6.632812 v 7.97461 h -10.85352 v 4.824218 h 10.85352 v 27.001955 h 5.36132 V 81.219325 h 15.20899 v -4.824218 h -15.20899 v -7.97461 c 0,-2.858732 1.51925,-4.287109 4.55664,-4.287109 h 126.4043 v -4.824219 z m 78.85938,11.390625 c -2.7694,0 -5.02358,0.669735 -6.76563,2.009766 -1.69737,1.34003 -2.74838,3.171421 -3.15039,5.49414 v -6.833984 h -5.35937 v 36.851564 h 5.35937 V 84.568935 c 0,-2.948068 0.71517,-5.225948 2.14453,-6.833985 1.42937,-1.608036 3.50574,-2.412109 6.23047,-2.412109 5.49413,0 8.24219,2.858707 8.24219,8.576172 v 3.216797 h 5.29297 v -3.216797 c 0,-4.198763 -1.02732,-7.436792 -3.08203,-9.714844 -2.05472,-2.32272 -5.02603,-3.484375 -8.91211,-3.484375 z m 35.51172,0 c -3.75209,0 -6.72339,1.228824 -8.91211,3.685547 -2.18872,2.456722 -3.2832,5.761921 -3.2832,9.916016 v 7.83789 c 0,4.198763 1.09448,7.503957 3.2832,9.916013 2.18872,2.36739 5.16002,3.55274 8.91211,3.55274 2.68007,0 4.89077,-0.60452 6.63281,-1.81055 1.74204,-1.20603 2.83652,-2.87939 3.2832,-5.023437 h 0.13477 l -0.13477,6.431637 v 3.28321 c 0,2.18871 -0.6243,3.88576 -1.875,5.09179 -1.25068,1.2507 -2.99317,1.875 -5.22656,1.875 H 168.07071 v 4.82422 H 302.7836 c 3.88609,0 6.92457,-1.04906 9.11328,-3.14844 2.23339,-2.05471 3.34961,-4.93516 3.34961,-8.64257 V 71.369716 h -5.22656 v 6.365234 h -0.0664 c -0.44668,-2.188717 -1.54116,-3.90946 -3.2832,-5.160156 -1.74204,-1.250696 -3.95274,-1.875 -6.63281,-1.875 z m 41.875,0 c -4.2881,0 -7.70394,1.29404 -10.25,3.884766 -2.54607,2.546058 -3.82031,6.052762 -3.82031,10.519531 v 9.380859 c 0,4.466766 1.27424,7.99521 3.82031,10.58594 2.54606,2.54605 5.9619,3.82031 10.25,3.82031 3.79675,0 6.94587,-0.89494 9.44726,-2.68164 2.50139,-1.78671 3.95347,-4.22066 4.35547,-7.302735 h -5.29297 c -0.31267,1.652705 -1.22739,2.970435 -2.74609,3.953125 -1.51871,0.93802 -3.44095,1.4082 -5.76367,1.4082 -2.72473,0 -4.89002,-0.82776 -6.49805,-2.48047 -1.60804,-1.69737 -2.41211,-3.95351 -2.41211,-6.767573 v -3.884766 h 22.98242 v -6.566406 c 0,-4.198764 -1.27425,-7.549391 -3.82031,-10.050782 -2.54606,-2.546058 -5.96386,-3.818359 -10.25195,-3.818359 z m -120.60156,0.06641 c -4.33277,0 -7.77231,1.272302 -10.31836,3.81836 -2.50139,2.546058 -3.75196,6.076453 -3.75196,10.58789 v 9.246094 c 0,4.511433 1.27231,8.039872 3.81836,10.585932 2.54606,2.54606 5.96386,3.81837 10.25196,3.81837 4.2881,0 7.70394,-1.27231 10.25,-3.81837 2.54605,-2.54606 3.82031,-6.074499 3.82031,-10.585932 v -9.246094 c 0,-4.511437 -1.27426,-8.041832 -3.82031,-10.58789 -2.5014,-2.546058 -5.91724,-3.81836 -10.25,-3.81836 z m 120.60156,4.355465 c 2.81406,0 5.00303,0.825811 6.5664,2.478516 1.56337,1.652704 2.34571,3.976014 2.34571,6.96875 v 2.345703 h -17.82227 v -2.345703 c 0,-2.992736 0.78234,-5.316046 2.34571,-6.96875 1.56337,-1.652705 3.75038,-2.478516 6.56445,-2.478516 z m -40.33399,0.201172 c 2.63539,0 4.69003,0.825811 6.16407,2.478516 1.51869,1.608036 2.27734,3.864178 2.27734,6.767578 v 7.36914 c 0,2.9034 -0.75865,5.183233 -2.27734,6.835938 -1.51871,1.608027 -3.57334,2.412107 -6.16407,2.412107 -2.68006,0 -4.75644,-0.78233 -6.23046,-2.345701 -1.47403,-1.563369 -2.21094,-3.706911 -2.21094,-6.431641 v -8.308593 c 0,-2.724729 0.73691,-4.868272 2.21094,-6.431641 1.47402,-1.563369 3.5504,-2.345703 6.23046,-2.345703 z m -80.26757,0.201172 c 2.72473,0 4.86826,0.780381 6.43164,2.34375 1.56336,1.563369 2.3457,3.843202 2.3457,6.835937 v 10.183594 c 0,2.992736 -0.78234,5.270616 -2.3457,6.833986 -1.56338,1.56336 -3.70691,2.3457 -6.43164,2.3457 -2.72473,0 -4.86827,-0.78234 -6.43165,-2.3457 -1.56337,-1.56337 -2.3457,-3.84125 -2.3457,-6.833986 V 84.7037 c 0,-2.992735 0.78233,-5.272568 2.3457,-6.835937 1.56338,-1.563369 3.70692,-2.34375 6.43165,-2.34375 z" /></svg>
