<svg inkscape:version="1.3.2 (091e20e, 2023-11-25, custom)" sodipodi:docname="icon.svg" version="1.1" viewBox="0 0 48 48" xmlns="http://www.w3.org/2000/svg" xmlns:cc="http://creativecommons.org/ns#" xmlns:dc="http://purl.org/dc/elements/1.1/" xmlns:inkscape="http://www.inkscape.org/namespaces/inkscape" xmlns:rdf="http://www.w3.org/1999/02/22-rdf-syntax-ns#" xmlns:sodipodi="http://sodipodi.sourceforge.net/DTD/sodipodi-0.dtd">
    <style>@media(prefers-color-scheme:dark){path{filter:invert(100%)};:root{background:#1e1f22}</style>
    <title>DevsForge organization icon</title>
    <sodipodi:namedview bordercolor="#eeeeee" borderopacity="1" inkscape:current-layer="svg1" inkscape:cx="11.6875" inkscape:cy="10.6875" inkscape:deskcolor="#505050" inkscape:document-units="px" inkscape:pagecheckerboard="0" inkscape:pageopacity="0" inkscape:showpageshadow="0" inkscape:window-height="1369" inkscape:window-maximized="1" inkscape:window-width="2560" inkscape:window-x="1912" inkscape:window-y="-8" inkscape:zoom="8" pagecolor="#505050"/>
    <metadata>
        <rdf:RDF>
            <cc:Work rdf:about="">
                <cc:license rdf:resource="https://creativecommons.org/licenses/by-sa/4.0/"/>
                <dc:title>DevsForge organization icon</dc:title>
                <dc:date>2024/09/07</dc:date>
                <dc:creator>
                    <cc:Agent>
                        <dc:title>devsforge.org</dc:title>
                    </cc:Agent>
                </dc:creator>
                <dc:rights>
                    <cc:Agent>
                        <dc:title>devsforge.org</dc:title>
                    </cc:Agent>
                </dc:rights>
                <dc:publisher>
                    <cc:Agent>
                        <dc:title>devsforge.org</dc:title>
                    </cc:Agent>
                </dc:publisher>
                <dc:identifier>devsforge-icon</dc:identifier>
                <dc:language>en</dc:language>
                <dc:subject>
                    <rdf:Bag>
                        <rdf:li>devsforge</rdf:li>
                        <rdf:li>logo</rdf:li>
                        <rdf:li>icon</rdf:li>
                    </rdf:Bag>
                </dc:subject>
                <dc:contributor>
                    <cc:Agent>
                        <dc:title>Serhii Horodilov</dc:title>
                    </cc:Agent>
                </dc:contributor>
            </cc:Work>
            <cc:License rdf:about="https://creativecommons.org/licenses/by-sa/4.0/">
                <cc:permits rdf:resource="https://creativecommons.org/ns#Reproduction"/>
                <cc:permits rdf:resource="https://creativecommons.org/ns#Distribution"/>
                <cc:requires rdf:resource="https://creativecommons.org/ns#Notice"/>
                <cc:requires rdf:resource="https://creativecommons.org/ns#Attribution"/>
                <cc:permits rdf:resource="https://creativecommons.org/ns#DerivativeWorks"/>
                <cc:requires rdf:resource="https://creativecommons.org/ns#ShareAlike"/>
            </cc:License>
        </rdf:RDF>
    </metadata>
    <path d="m7.1895 1.3789-7.1895 45.242h14.688c3.14 0 5.97-0.60068 8.4902-1.7988 2.5202-1.2395 4.6072-2.9529 6.2598-5.1426 1.6526-2.1897 2.7057-4.731 3.1602-7.623l2.6035-16.176c0.45447-2.9334 0.20611-5.4727-0.74414-7.6211-0.95026-2.1897-2.5-3.8839-4.6484-5.082-2.1484-1.1981-4.7917-1.7988-7.9316-1.7988h-14.687zm30.727 0c0.51184 0.73628 0.96169 1.5236 1.332 2.377 0.82615 1.8678 1.228 3.9716 1.2285 6.3008h6.0977l1.4258-8.6777h-10.084zm-22.857 8.6777h5.3926c1.9005 0 3.3463 0.53713 4.3379 1.6113 0.99157 1.0742 1.3631 2.4776 1.1152 4.2129l-2.6016 16.176c-0.28921 1.7766-1.0959 3.2012-2.418 4.2754-1.3221 1.0742-2.9335 1.6113-4.834 1.6113h-5.3906l4.3984-27.887zm24.094 10.039-1.3965 8.6758h4.2949l1.3633-8.6758h-4.2617z" fill="#000"/>
</svg>
