<svg inkscape:version="1.3.2 (091e20e, 2023-11-25, custom)" sodipodi:docname="icon.svg" version="1.1" viewBox="0 0 48 48" xmlns="http://www.w3.org/2000/svg" xmlns:cc="http://creativecommons.org/ns#" xmlns:dc="http://purl.org/dc/elements/1.1/" xmlns:inkscape="http://www.inkscape.org/namespaces/inkscape" xmlns:rdf="http://www.w3.org/1999/02/22-rdf-syntax-ns#" xmlns:sodipodi="http://sodipodi.sourceforge.net/DTD/sodipodi-0.dtd">
    <style>@media(prefers-color-scheme:dark){path{filter:invert(100%)};:root{background:#1e1f22}}</style>
    <title>DevsForge organization icon</title>
    <sodipodi:namedview bordercolor="#eeeeee" borderopacity="1" inkscape:current-layer="svg1" inkscape:cx="24" inkscape:cy="24" inkscape:deskcolor="#505050" inkscape:document-units="px" inkscape:pagecheckerboard="0" inkscape:pageopacity="0" inkscape:showpageshadow="0" inkscape:window-height="1009" inkscape:window-maximized="1" inkscape:window-width="1920" inkscape:window-x="-8" inkscape:window-y="-8" inkscape:zoom="16.5625" pagecolor="#505050"/>
    <metadata>
        <rdf:RDF>
            <cc:Work rdf:about="">
                <cc:license rdf:resource="https://creativecommons.org/licenses/by-sa/4.0/"/>
                <dc:title>Devs Forge organization icon</dc:title>
                <dc:date>2024/07/03</dc:date>
                <dc:creator>
                    <cc:Agent>
                        <dc:title>devsforge.org</dc:title>
                    </cc:Agent>
                </dc:creator>
                <dc:rights>
                    <cc:Agent>
                        <dc:title>devsforge.org</dc:title>
                    </cc:Agent>
                </dc:rights>
                <dc:publisher>
                    <cc:Agent>
                        <dc:title>devsforge.org</dc:title>
                    </cc:Agent>
                </dc:publisher>
                <dc:identifier>devsforge-icon</dc:identifier>
                <dc:language>en</dc:language>
                <dc:subject>
                    <rdf:Bag>
                        <rdf:li>devsforge</rdf:li>
                        <rdf:li>logo</rdf:li>
                        <rdf:li>icon</rdf:li>
                    </rdf:Bag>
                </dc:subject>
                <dc:contributor>
                    <cc:Agent>
                        <dc:title>Serhii Horodilov</dc:title>
                    </cc:Agent>
                </dc:contributor>
            </cc:Work>
            <cc:License rdf:about="https://creativecommons.org/licenses/by-sa/4.0/">
                <cc:permits rdf:resource="https://creativecommons.org/ns#Reproduction"/>
                <cc:permits rdf:resource="https://creativecommons.org/ns#Distribution"/>
                <cc:requires rdf:resource="https://creativecommons.org/ns#Notice"/>
                <cc:requires rdf:resource="https://creativecommons.org/ns#Attribution"/>
                <cc:permits rdf:resource="https://creativecommons.org/ns#DerivativeWorks"/>
                <cc:requires rdf:resource="https://creativecommons.org/ns#ShareAlike"/>
            </cc:License>
        </rdf:RDF>
    </metadata>
    <path id="a" d="m7.627 0-7.627 48h15.584c3.3315 0 6.3339-0.63503 9.0078-1.9062 2.674-1.3151 4.8872-3.1357 6.6406-5.459 1.7534-2.3233 2.8713-5.0175 3.3535-8.0859l2.7617-17.162c0.48219-3.1123 0.21915-5.8085-0.78906-8.0879-1.0082-2.3233-2.6522-4.1214-4.9316-5.3926-2.2794-1.2712-5.0845-1.9062-8.416-1.9062h-15.584zm22.137 0c0.82788 0.28442 1.6161 0.62304 2.3516 1.0332 2.4488 1.3657 4.2658 3.3498 5.3574 5.8613 0.32419 0.73296 0.56694 1.5069 0.74805 2.3105h8.2676l1.5117-9.2051h-18.236zm-13.785 9.2051h5.7207c2.0164 0 3.5495 0.57122 4.6016 1.7109 1.052 1.1397 1.4466 2.6296 1.1836 4.4707l-2.7617 17.162c-0.30685 1.8849-1.1617 3.3974-2.5645 4.5371-1.4027 1.1397-3.1125 1.709-5.1289 1.709h-5.7207l4.6699-29.59zm21.662 10.652-1.4805 9.2051h5.5273l1.4473-9.2051h-5.4941z" stroke-width="1.4424" style="font-variant-ligatures:discretionary-ligatures;paint-order:markers fill stroke"/>
</svg>
